solid OpenSCAD_Model
  facet normal 0 0 -1
    outer loop
      vertex 0 0 0
      vertex 10 60 0
      vertex 10 0 0
    endloop
  endfacet
  facet normal -0 0 -1
    outer loop
      vertex 10 60 0
      vertex 0 0 0
      vertex 0 60 0
    endloop
  endfacet
  facet normal 1 -0 0
    outer loop
      vertex 10 0 10
      vertex 10 60 0
      vertex 10 60 10
    endloop
  endfacet
  facet normal 1 0 0
    outer loop
      vertex 10 60 0
      vertex 10 0 10
      vertex 10 0 0
    endloop
  endfacet
  facet normal -1 0 0
    outer loop
      vertex 0 60 0
      vertex 0 56.5415 4.83798
      vertex 0 60 10
    endloop
  endfacet
  facet normal -1 0 0
    outer loop
      vertex 0 60 0
      vertex 0 56.4741 4.52102
      vertex 0 56.5415 4.83798
    endloop
  endfacet
  facet normal -1 0 0
    outer loop
      vertex 0 60 0
      vertex 0 56.3423 4.225
      vertex 0 56.4741 4.52102
    endloop
  endfacet
  facet normal -1 0 0
    outer loop
      vertex 0 60 0
      vertex 0 56.1519 3.96285
      vertex 0 56.3423 4.225
    endloop
  endfacet
  facet normal -1 0 0
    outer loop
      vertex 0 60 0
      vertex 0 55.9111 3.74602
      vertex 0 56.1519 3.96285
    endloop
  endfacet
  facet normal -1 0 0
    outer loop
      vertex 0 60 0
      vertex 0 55.6304 3.584
      vertex 0 55.9111 3.74602
    endloop
  endfacet
  facet normal -1 0 0
    outer loop
      vertex 0 60 0
      vertex 0 55.3223 3.48387
      vertex 0 55.6304 3.584
    endloop
  endfacet
  facet normal -1 0 0
    outer loop
      vertex 0 60 0
      vertex 0 55 3.45
      vertex 0 55.3223 3.48387
    endloop
  endfacet
  facet normal -1 0 0
    outer loop
      vertex 0 60 0
      vertex 0 54.6777 3.48387
      vertex 0 55 3.45
    endloop
  endfacet
  facet normal -1 0 0
    outer loop
      vertex 0 60 0
      vertex 0 54.3696 3.584
      vertex 0 54.6777 3.48387
    endloop
  endfacet
  facet normal -1 0 0
    outer loop
      vertex 0 5.63044 3.584
      vertex 0 54.3696 3.584
      vertex 0 60 0
    endloop
  endfacet
  facet normal -1 0 0
    outer loop
      vertex 0 53.4585 4.83798
      vertex 0 6.54151 4.83798
      vertex 0 53.4585 5.16202
    endloop
  endfacet
  facet normal -1 0 0
    outer loop
      vertex 0 53.5259 4.52102
      vertex 0 6.54151 4.83798
      vertex 0 53.4585 4.83798
    endloop
  endfacet
  facet normal -1 0 0
    outer loop
      vertex 0 6.47414 4.52102
      vertex 0 53.5259 4.52102
      vertex 0 53.6577 4.225
    endloop
  endfacet
  facet normal -1 0 0
    outer loop
      vertex 0 6.34234 4.225
      vertex 0 53.6577 4.225
      vertex 0 53.8481 3.96285
    endloop
  endfacet
  facet normal -1 0 0
    outer loop
      vertex 0 6.15187 3.96285
      vertex 0 53.8481 3.96285
      vertex 0 54.0889 3.74602
    endloop
  endfacet
  facet normal -1 0 0
    outer loop
      vertex 0 54.3696 3.584
      vertex 0 5.63044 3.584
      vertex 0 54.0889 3.74602
    endloop
  endfacet
  facet normal -1 0 0
    outer loop
      vertex 0 53.5259 4.52102
      vertex 0 6.47414 4.52102
      vertex 0 6.54151 4.83798
    endloop
  endfacet
  facet normal -1 0 0
    outer loop
      vertex 0 53.6577 4.225
      vertex 0 6.34234 4.225
      vertex 0 6.47414 4.52102
    endloop
  endfacet
  facet normal -1 0 0
    outer loop
      vertex 0 53.8481 3.96285
      vertex 0 6.15187 3.96285
      vertex 0 6.34234 4.225
    endloop
  endfacet
  facet normal -1 0 0
    outer loop
      vertex 0 54.0889 3.74602
      vertex 0 5.91107 3.74602
      vertex 0 6.15187 3.96285
    endloop
  endfacet
  facet normal -1 -0 0
    outer loop
      vertex 0 54.0889 3.74602
      vertex 0 5.63044 3.584
      vertex 0 5.91107 3.74602
    endloop
  endfacet
  facet normal -1 0 0
    outer loop
      vertex 0 0 0
      vertex 0 5.63044 3.584
      vertex 0 60 0
    endloop
  endfacet
  facet normal -1 0 0
    outer loop
      vertex 0 5.63044 3.584
      vertex 0 0 0
      vertex 0 5.32226 3.48387
    endloop
  endfacet
  facet normal -1 -0 0
    outer loop
      vertex 0 3.45849 4.83798
      vertex 0 0 0
      vertex 0 3.45849 5.16202
    endloop
  endfacet
  facet normal -1 -0 0
    outer loop
      vertex 0 3.52586 4.52102
      vertex 0 0 0
      vertex 0 3.45849 4.83798
    endloop
  endfacet
  facet normal -1 -0 0
    outer loop
      vertex 0 3.65766 4.225
      vertex 0 0 0
      vertex 0 3.52586 4.52102
    endloop
  endfacet
  facet normal -1 -0 0
    outer loop
      vertex 0 3.84813 3.96285
      vertex 0 0 0
      vertex 0 3.65766 4.225
    endloop
  endfacet
  facet normal -1 -0 0
    outer loop
      vertex 0 4.08893 3.74602
      vertex 0 0 0
      vertex 0 3.84813 3.96285
    endloop
  endfacet
  facet normal -1 -0 0
    outer loop
      vertex 0 4.36956 3.584
      vertex 0 0 0
      vertex 0 4.08893 3.74602
    endloop
  endfacet
  facet normal -1 -0 0
    outer loop
      vertex 0 4.67774 3.48387
      vertex 0 0 0
      vertex 0 4.36956 3.584
    endloop
  endfacet
  facet normal -1 -0 0
    outer loop
      vertex 0 5 3.45
      vertex 0 0 0
      vertex 0 4.67774 3.48387
    endloop
  endfacet
  facet normal -1 0 0
    outer loop
      vertex 0 5.32226 3.48387
      vertex 0 0 0
      vertex 0 5 3.45
    endloop
  endfacet
  facet normal -1 0 0
    outer loop
      vertex 0 56.5415 5.16202
      vertex 0 60 10
      vertex 0 56.5415 4.83798
    endloop
  endfacet
  facet normal -1 0 0
    outer loop
      vertex 0 56.4741 5.47898
      vertex 0 60 10
      vertex 0 56.5415 5.16202
    endloop
  endfacet
  facet normal -1 0 0
    outer loop
      vertex 0 56.3423 5.775
      vertex 0 60 10
      vertex 0 56.4741 5.47898
    endloop
  endfacet
  facet normal -1 0 0
    outer loop
      vertex 0 56.1519 6.03715
      vertex 0 60 10
      vertex 0 56.3423 5.775
    endloop
  endfacet
  facet normal -1 0 0
    outer loop
      vertex 0 55.9111 6.25398
      vertex 0 60 10
      vertex 0 56.1519 6.03715
    endloop
  endfacet
  facet normal -1 0 0
    outer loop
      vertex 0 55.6304 6.41599
      vertex 0 60 10
      vertex 0 55.9111 6.25398
    endloop
  endfacet
  facet normal -1 0 0
    outer loop
      vertex 0 55.3223 6.51613
      vertex 0 60 10
      vertex 0 55.6304 6.41599
    endloop
  endfacet
  facet normal -1 0 0
    outer loop
      vertex 0 55 6.55
      vertex 0 60 10
      vertex 0 55.3223 6.51613
    endloop
  endfacet
  facet normal -1 0 0
    outer loop
      vertex 0 54.6777 6.51613
      vertex 0 60 10
      vertex 0 55 6.55
    endloop
  endfacet
  facet normal -1 0 0
    outer loop
      vertex 0 54.3696 6.41599
      vertex 0 60 10
      vertex 0 54.6777 6.51613
    endloop
  endfacet
  facet normal -1 0 0
    outer loop
      vertex 0 5.63044 6.41599
      vertex 0 54.3696 6.41599
      vertex 0 54.0889 6.25398
    endloop
  endfacet
  facet normal -1 0 0
    outer loop
      vertex 0 6.54151 5.16202
      vertex 0 53.4585 5.16202
      vertex 0 6.54151 4.83798
    endloop
  endfacet
  facet normal -1 0 0
    outer loop
      vertex 0 53.4585 5.16202
      vertex 0 6.54151 5.16202
      vertex 0 53.5259 5.47898
    endloop
  endfacet
  facet normal -1 0 0
    outer loop
      vertex 0 6.47414 5.47898
      vertex 0 53.5259 5.47898
      vertex 0 6.54151 5.16202
    endloop
  endfacet
  facet normal -1 0 0
    outer loop
      vertex 0 53.5259 5.47898
      vertex 0 6.47414 5.47898
      vertex 0 53.6577 5.775
    endloop
  endfacet
  facet normal -1 0 0
    outer loop
      vertex 0 6.34234 5.775
      vertex 0 53.6577 5.775
      vertex 0 6.47414 5.47898
    endloop
  endfacet
  facet normal -1 0 0
    outer loop
      vertex 0 53.6577 5.775
      vertex 0 6.34234 5.775
      vertex 0 53.8481 6.03715
    endloop
  endfacet
  facet normal -1 0 0
    outer loop
      vertex 0 6.15187 6.03715
      vertex 0 53.8481 6.03715
      vertex 0 6.34234 5.775
    endloop
  endfacet
  facet normal -1 0 0
    outer loop
      vertex 0 53.8481 6.03715
      vertex 0 6.15187 6.03715
      vertex 0 54.0889 6.25398
    endloop
  endfacet
  facet normal -1 0 0
    outer loop
      vertex 0 5.91107 6.25398
      vertex 0 54.0889 6.25398
      vertex 0 6.15187 6.03715
    endloop
  endfacet
  facet normal -1 0 0
    outer loop
      vertex 0 5.63044 6.41599
      vertex 0 54.0889 6.25398
      vertex 0 5.91107 6.25398
    endloop
  endfacet
  facet normal -1 0 0
    outer loop
      vertex 0 54.3696 6.41599
      vertex 0 5.63044 6.41599
      vertex 0 60 10
    endloop
  endfacet
  facet normal -1 0 0
    outer loop
      vertex 0 0 10
      vertex 0 5.63044 6.41599
      vertex 0 5.32226 6.51613
    endloop
  endfacet
  facet normal -1 0 0
    outer loop
      vertex 0 0 10
      vertex 0 5.32226 6.51613
      vertex 0 5 6.55
    endloop
  endfacet
  facet normal -1 0 0
    outer loop
      vertex 0 0 10
      vertex 0 3.45849 5.16202
      vertex 0 0 0
    endloop
  endfacet
  facet normal -1 0 0
    outer loop
      vertex 0 3.45849 5.16202
      vertex 0 0 10
      vertex 0 3.52586 5.47898
    endloop
  endfacet
  facet normal -1 0 0
    outer loop
      vertex 0 5.63044 6.41599
      vertex 0 0 10
      vertex 0 60 10
    endloop
  endfacet
  facet normal -1 0 0
    outer loop
      vertex 0 4.67774 6.51613
      vertex 0 0 10
      vertex 0 5 6.55
    endloop
  endfacet
  facet normal -1 0 0
    outer loop
      vertex 0 4.36956 6.41599
      vertex 0 0 10
      vertex 0 4.67774 6.51613
    endloop
  endfacet
  facet normal -1 0 0
    outer loop
      vertex 0 4.08893 6.25398
      vertex 0 0 10
      vertex 0 4.36956 6.41599
    endloop
  endfacet
  facet normal -1 0 0
    outer loop
      vertex 0 3.84813 6.03715
      vertex 0 0 10
      vertex 0 4.08893 6.25398
    endloop
  endfacet
  facet normal -1 0 0
    outer loop
      vertex 0 3.65766 5.775
      vertex 0 0 10
      vertex 0 3.84813 6.03715
    endloop
  endfacet
  facet normal -1 0 0
    outer loop
      vertex 0 3.52586 5.47898
      vertex 0 0 10
      vertex 0 3.65766 5.775
    endloop
  endfacet
  facet normal 0 -1 0
    outer loop
      vertex 0 0 0
      vertex 10 0 10
      vertex 0 0 10
    endloop
  endfacet
  facet normal 0 -1 -0
    outer loop
      vertex 10 0 10
      vertex 0 0 0
      vertex 10 0 0
    endloop
  endfacet
  facet normal 0 1 -0
    outer loop
      vertex 10 60 0
      vertex 0 60 10
      vertex 10 60 10
    endloop
  endfacet
  facet normal 0 1 0
    outer loop
      vertex 0 60 10
      vertex 10 60 0
      vertex 0 60 0
    endloop
  endfacet
  facet normal -0 0 1
    outer loop
      vertex 0 60 10
      vertex 10 0 10
      vertex 10 60 10
    endloop
  endfacet
  facet normal 0 0 1
    outer loop
      vertex 10 0 10
      vertex 0 60 10
      vertex 0 0 10
    endloop
  endfacet
  facet normal 0 -0.669131 0.743144
    outer loop
      vertex 0 6.15187 3.96285
      vertex 6 5.91107 3.74602
      vertex 6 6.15187 3.96285
    endloop
  endfacet
  facet normal 0 -0.669131 0.743144
    outer loop
      vertex 6 5.91107 3.74602
      vertex 0 6.15187 3.96285
      vertex 0 5.91107 3.74602
    endloop
  endfacet
  facet normal 0 -0.104527 0.994522
    outer loop
      vertex 0 5.32226 3.48387
      vertex 6 5 3.45
      vertex 6 5.32226 3.48387
    endloop
  endfacet
  facet normal 0 -0.104527 0.994522
    outer loop
      vertex 6 5 3.45
      vertex 0 5.32226 3.48387
      vertex 0 5 3.45
    endloop
  endfacet
  facet normal 0 0.104527 -0.994522
    outer loop
      vertex 0 4.67774 6.51613
      vertex 6 5 6.55
      vertex 6 4.67774 6.51613
    endloop
  endfacet
  facet normal 0 0.104527 -0.994522
    outer loop
      vertex 6 5 6.55
      vertex 0 4.67774 6.51613
      vertex 0 5 6.55
    endloop
  endfacet
  facet normal 0 -0.978148 -0.207912
    outer loop
      vertex 0 6.54151 5.16202
      vertex 6 6.47414 5.47898
      vertex 0 6.47414 5.47898
    endloop
  endfacet
  facet normal 0 -0.978148 -0.207912
    outer loop
      vertex 6 6.47414 5.47898
      vertex 0 6.54151 5.16202
      vertex 6 6.54151 5.16202
    endloop
  endfacet
  facet normal 0 1 -0
    outer loop
      vertex 6 3.45849 4.83798
      vertex 0 3.45849 5.16202
      vertex 6 3.45849 5.16202
    endloop
  endfacet
  facet normal 0 1 0
    outer loop
      vertex 0 3.45849 5.16202
      vertex 6 3.45849 4.83798
      vertex 0 3.45849 4.83798
    endloop
  endfacet
  facet normal 0 0.669131 -0.743144
    outer loop
      vertex 0 3.84813 6.03715
      vertex 6 4.08893 6.25398
      vertex 6 3.84813 6.03715
    endloop
  endfacet
  facet normal 0 0.669131 -0.743144
    outer loop
      vertex 6 4.08893 6.25398
      vertex 0 3.84813 6.03715
      vertex 0 4.08893 6.25398
    endloop
  endfacet
  facet normal 0 -0.669131 -0.743144
    outer loop
      vertex 0 5.91107 6.25398
      vertex 6 6.15187 6.03715
      vertex 6 5.91107 6.25398
    endloop
  endfacet
  facet normal -0 -0.669131 -0.743144
    outer loop
      vertex 6 6.15187 6.03715
      vertex 0 5.91107 6.25398
      vertex 0 6.15187 6.03715
    endloop
  endfacet
  facet normal 0 -0.809017 -0.587785
    outer loop
      vertex 0 6.34234 5.775
      vertex 6 6.15187 6.03715
      vertex 0 6.15187 6.03715
    endloop
  endfacet
  facet normal 0 -0.809017 -0.587785
    outer loop
      vertex 6 6.15187 6.03715
      vertex 0 6.34234 5.775
      vertex 6 6.34234 5.775
    endloop
  endfacet
  facet normal 0 0.499999 -0.866026
    outer loop
      vertex 0 4.08893 6.25398
      vertex 6 4.36956 6.41599
      vertex 6 4.08893 6.25398
    endloop
  endfacet
  facet normal 0 0.499999 -0.866026
    outer loop
      vertex 6 4.36956 6.41599
      vertex 0 4.08893 6.25398
      vertex 0 4.36956 6.41599
    endloop
  endfacet
  facet normal 0 -0.309018 -0.951056
    outer loop
      vertex 0 5.32226 6.51613
      vertex 6 5.63044 6.41599
      vertex 6 5.32226 6.51613
    endloop
  endfacet
  facet normal -0 -0.309018 -0.951056
    outer loop
      vertex 6 5.63044 6.41599
      vertex 0 5.32226 6.51613
      vertex 0 5.63044 6.41599
    endloop
  endfacet
  facet normal 0 -0.499999 -0.866026
    outer loop
      vertex 0 5.63044 6.41599
      vertex 6 5.91107 6.25398
      vertex 6 5.63044 6.41599
    endloop
  endfacet
  facet normal -0 -0.499999 -0.866026
    outer loop
      vertex 6 5.91107 6.25398
      vertex 0 5.63044 6.41599
      vertex 0 5.91107 6.25398
    endloop
  endfacet
  facet normal 0 -0.104527 -0.994522
    outer loop
      vertex 0 5 6.55
      vertex 6 5.32226 6.51613
      vertex 6 5 6.55
    endloop
  endfacet
  facet normal -0 -0.104527 -0.994522
    outer loop
      vertex 6 5.32226 6.51613
      vertex 0 5 6.55
      vertex 0 5.32226 6.51613
    endloop
  endfacet
  facet normal 0 -0.913545 -0.406738
    outer loop
      vertex 0 6.47414 5.47898
      vertex 6 6.34234 5.775
      vertex 0 6.34234 5.775
    endloop
  endfacet
  facet normal 0 -0.913545 -0.406738
    outer loop
      vertex 6 6.34234 5.775
      vertex 0 6.47414 5.47898
      vertex 6 6.47414 5.47898
    endloop
  endfacet
  facet normal 0 0.809017 0.587785
    outer loop
      vertex 6 3.84813 3.96285
      vertex 0 3.65766 4.225
      vertex 6 3.65766 4.225
    endloop
  endfacet
  facet normal 0 0.809017 0.587785
    outer loop
      vertex 0 3.65766 4.225
      vertex 6 3.84813 3.96285
      vertex 0 3.84813 3.96285
    endloop
  endfacet
  facet normal 0 0.978148 0.207912
    outer loop
      vertex 6 3.52586 4.52102
      vertex 0 3.45849 4.83798
      vertex 6 3.45849 4.83798
    endloop
  endfacet
  facet normal 0 0.978148 0.207912
    outer loop
      vertex 0 3.45849 4.83798
      vertex 6 3.52586 4.52102
      vertex 0 3.52586 4.52102
    endloop
  endfacet
  facet normal -0 0.499999 0.866026
    outer loop
      vertex 0 4.36956 3.584
      vertex 6 4.08893 3.74602
      vertex 6 4.36956 3.584
    endloop
  endfacet
  facet normal 0 0.499999 0.866026
    outer loop
      vertex 6 4.08893 3.74602
      vertex 0 4.36956 3.584
      vertex 0 4.08893 3.74602
    endloop
  endfacet
  facet normal -0 0.104527 0.994522
    outer loop
      vertex 0 5 3.45
      vertex 6 4.67774 3.48387
      vertex 6 5 3.45
    endloop
  endfacet
  facet normal 0 0.104527 0.994522
    outer loop
      vertex 6 4.67774 3.48387
      vertex 0 5 3.45
      vertex 0 4.67774 3.48387
    endloop
  endfacet
  facet normal 0 0.913545 -0.406738
    outer loop
      vertex 6 3.52586 5.47898
      vertex 0 3.65766 5.775
      vertex 6 3.65766 5.775
    endloop
  endfacet
  facet normal 0 0.913545 -0.406738
    outer loop
      vertex 0 3.65766 5.775
      vertex 6 3.52586 5.47898
      vertex 0 3.52586 5.47898
    endloop
  endfacet
  facet normal 0 0.809017 -0.587785
    outer loop
      vertex 6 3.65766 5.775
      vertex 0 3.84813 6.03715
      vertex 6 3.84813 6.03715
    endloop
  endfacet
  facet normal 0 0.809017 -0.587785
    outer loop
      vertex 0 3.84813 6.03715
      vertex 6 3.65766 5.775
      vertex 0 3.65766 5.775
    endloop
  endfacet
  facet normal 0 0.978148 -0.207912
    outer loop
      vertex 6 3.45849 5.16202
      vertex 0 3.52586 5.47898
      vertex 6 3.52586 5.47898
    endloop
  endfacet
  facet normal 0 0.978148 -0.207912
    outer loop
      vertex 0 3.52586 5.47898
      vertex 6 3.45849 5.16202
      vertex 0 3.45849 5.16202
    endloop
  endfacet
  facet normal -1 0 0
    outer loop
      vertex 6 6.47414 4.52102
      vertex 6 6.54151 5.16202
      vertex 6 6.54151 4.83798
    endloop
  endfacet
  facet normal -1 0 0
    outer loop
      vertex 6 6.47414 4.52102
      vertex 6 6.47414 5.47898
      vertex 6 6.54151 5.16202
    endloop
  endfacet
  facet normal -1 0 0
    outer loop
      vertex 6 6.34234 4.225
      vertex 6 6.47414 5.47898
      vertex 6 6.47414 4.52102
    endloop
  endfacet
  facet normal -1 0 0
    outer loop
      vertex 6 6.34234 4.225
      vertex 6 6.34234 5.775
      vertex 6 6.47414 5.47898
    endloop
  endfacet
  facet normal -1 0 0
    outer loop
      vertex 6 6.15187 3.96285
      vertex 6 6.34234 5.775
      vertex 6 6.34234 4.225
    endloop
  endfacet
  facet normal -1 0 0
    outer loop
      vertex 6 6.15187 3.96285
      vertex 6 6.15187 6.03715
      vertex 6 6.34234 5.775
    endloop
  endfacet
  facet normal -1 0 0
    outer loop
      vertex 6 5.91107 3.74602
      vertex 6 6.15187 6.03715
      vertex 6 6.15187 3.96285
    endloop
  endfacet
  facet normal -1 0 0
    outer loop
      vertex 6 5.91107 3.74602
      vertex 6 5.91107 6.25398
      vertex 6 6.15187 6.03715
    endloop
  endfacet
  facet normal -1 0 0
    outer loop
      vertex 6 5.63044 3.584
      vertex 6 5.91107 6.25398
      vertex 6 5.91107 3.74602
    endloop
  endfacet
  facet normal -1 0 0
    outer loop
      vertex 6 5.63044 3.584
      vertex 6 5.63044 6.41599
      vertex 6 5.91107 6.25398
    endloop
  endfacet
  facet normal -1 0 0
    outer loop
      vertex 6 5.32226 3.48387
      vertex 6 5.63044 6.41599
      vertex 6 5.63044 3.584
    endloop
  endfacet
  facet normal -1 0 0
    outer loop
      vertex 6 5.32226 3.48387
      vertex 6 5.32226 6.51613
      vertex 6 5.63044 6.41599
    endloop
  endfacet
  facet normal -1 0 0
    outer loop
      vertex 6 5 3.45
      vertex 6 5.32226 6.51613
      vertex 6 5.32226 3.48387
    endloop
  endfacet
  facet normal -1 0 0
    outer loop
      vertex 6 5 3.45
      vertex 6 5 6.55
      vertex 6 5.32226 6.51613
    endloop
  endfacet
  facet normal -1 0 0
    outer loop
      vertex 6 4.67774 3.48387
      vertex 6 5 6.55
      vertex 6 5 3.45
    endloop
  endfacet
  facet normal -1 0 0
    outer loop
      vertex 6 4.67774 3.48387
      vertex 6 4.67774 6.51613
      vertex 6 5 6.55
    endloop
  endfacet
  facet normal -1 0 0
    outer loop
      vertex 6 4.36956 3.584
      vertex 6 4.67774 6.51613
      vertex 6 4.67774 3.48387
    endloop
  endfacet
  facet normal -1 0 0
    outer loop
      vertex 6 4.36956 3.584
      vertex 6 4.36956 6.41599
      vertex 6 4.67774 6.51613
    endloop
  endfacet
  facet normal -1 0 0
    outer loop
      vertex 6 4.08893 3.74602
      vertex 6 4.36956 6.41599
      vertex 6 4.36956 3.584
    endloop
  endfacet
  facet normal -1 0 0
    outer loop
      vertex 6 4.08893 3.74602
      vertex 6 4.08893 6.25398
      vertex 6 4.36956 6.41599
    endloop
  endfacet
  facet normal -1 0 0
    outer loop
      vertex 6 3.84813 3.96285
      vertex 6 4.08893 6.25398
      vertex 6 4.08893 3.74602
    endloop
  endfacet
  facet normal -1 0 0
    outer loop
      vertex 6 3.84813 3.96285
      vertex 6 3.84813 6.03715
      vertex 6 4.08893 6.25398
    endloop
  endfacet
  facet normal -1 0 0
    outer loop
      vertex 6 3.65766 4.225
      vertex 6 3.84813 6.03715
      vertex 6 3.84813 3.96285
    endloop
  endfacet
  facet normal -1 0 0
    outer loop
      vertex 6 3.65766 4.225
      vertex 6 3.65766 5.775
      vertex 6 3.84813 6.03715
    endloop
  endfacet
  facet normal -1 0 0
    outer loop
      vertex 6 3.52586 4.52102
      vertex 6 3.65766 5.775
      vertex 6 3.65766 4.225
    endloop
  endfacet
  facet normal -1 0 0
    outer loop
      vertex 6 3.52586 4.52102
      vertex 6 3.52586 5.47898
      vertex 6 3.65766 5.775
    endloop
  endfacet
  facet normal -1 0 0
    outer loop
      vertex 6 3.45849 4.83798
      vertex 6 3.52586 5.47898
      vertex 6 3.52586 4.52102
    endloop
  endfacet
  facet normal -1 0 0
    outer loop
      vertex 6 3.52586 5.47898
      vertex 6 3.45849 4.83798
      vertex 6 3.45849 5.16202
    endloop
  endfacet
  facet normal 0 0.309018 -0.951056
    outer loop
      vertex 0 4.36956 6.41599
      vertex 6 4.67774 6.51613
      vertex 6 4.36956 6.41599
    endloop
  endfacet
  facet normal 0 0.309018 -0.951056
    outer loop
      vertex 6 4.67774 6.51613
      vertex 0 4.36956 6.41599
      vertex 0 4.67774 6.51613
    endloop
  endfacet
  facet normal 0 -0.309018 0.951056
    outer loop
      vertex 0 5.63044 3.584
      vertex 6 5.32226 3.48387
      vertex 6 5.63044 3.584
    endloop
  endfacet
  facet normal 0 -0.309018 0.951056
    outer loop
      vertex 6 5.32226 3.48387
      vertex 0 5.63044 3.584
      vertex 0 5.32226 3.48387
    endloop
  endfacet
  facet normal 0 -0.809017 0.587785
    outer loop
      vertex 0 6.15187 3.96285
      vertex 6 6.34234 4.225
      vertex 0 6.34234 4.225
    endloop
  endfacet
  facet normal 0 -0.809017 0.587785
    outer loop
      vertex 6 6.34234 4.225
      vertex 0 6.15187 3.96285
      vertex 6 6.15187 3.96285
    endloop
  endfacet
  facet normal 0 -0.978148 0.207912
    outer loop
      vertex 0 6.47414 4.52102
      vertex 6 6.54151 4.83798
      vertex 0 6.54151 4.83798
    endloop
  endfacet
  facet normal 0 -0.978148 0.207912
    outer loop
      vertex 6 6.54151 4.83798
      vertex 0 6.47414 4.52102
      vertex 6 6.47414 4.52102
    endloop
  endfacet
  facet normal 0 -0.913545 0.406738
    outer loop
      vertex 0 6.34234 4.225
      vertex 6 6.47414 4.52102
      vertex 0 6.47414 4.52102
    endloop
  endfacet
  facet normal 0 -0.913545 0.406738
    outer loop
      vertex 6 6.47414 4.52102
      vertex 0 6.34234 4.225
      vertex 6 6.34234 4.225
    endloop
  endfacet
  facet normal 0 -1 0
    outer loop
      vertex 0 6.54151 4.83798
      vertex 6 6.54151 5.16202
      vertex 0 6.54151 5.16202
    endloop
  endfacet
  facet normal 0 -1 -0
    outer loop
      vertex 6 6.54151 5.16202
      vertex 0 6.54151 4.83798
      vertex 6 6.54151 4.83798
    endloop
  endfacet
  facet normal 0 0.913545 0.406738
    outer loop
      vertex 6 3.65766 4.225
      vertex 0 3.52586 4.52102
      vertex 6 3.52586 4.52102
    endloop
  endfacet
  facet normal 0 0.913545 0.406738
    outer loop
      vertex 0 3.52586 4.52102
      vertex 6 3.65766 4.225
      vertex 0 3.65766 4.225
    endloop
  endfacet
  facet normal -0 0.669131 0.743144
    outer loop
      vertex 0 4.08893 3.74602
      vertex 6 3.84813 3.96285
      vertex 6 4.08893 3.74602
    endloop
  endfacet
  facet normal 0 0.669131 0.743144
    outer loop
      vertex 6 3.84813 3.96285
      vertex 0 4.08893 3.74602
      vertex 0 3.84813 3.96285
    endloop
  endfacet
  facet normal -0 0.309018 0.951056
    outer loop
      vertex 0 4.67774 3.48387
      vertex 6 4.36956 3.584
      vertex 6 4.67774 3.48387
    endloop
  endfacet
  facet normal 0 0.309018 0.951056
    outer loop
      vertex 6 4.36956 3.584
      vertex 0 4.67774 3.48387
      vertex 0 4.36956 3.584
    endloop
  endfacet
  facet normal 0 -0.499999 0.866026
    outer loop
      vertex 0 5.91107 3.74602
      vertex 6 5.63044 3.584
      vertex 6 5.91107 3.74602
    endloop
  endfacet
  facet normal 0 -0.499999 0.866026
    outer loop
      vertex 6 5.63044 3.584
      vertex 0 5.91107 3.74602
      vertex 0 5.63044 3.584
    endloop
  endfacet
  facet normal 0 -0.669131 0.743144
    outer loop
      vertex 0 56.1519 3.96285
      vertex 6 55.9111 3.74602
      vertex 6 56.1519 3.96285
    endloop
  endfacet
  facet normal 0 -0.669131 0.743144
    outer loop
      vertex 6 55.9111 3.74602
      vertex 0 56.1519 3.96285
      vertex 0 55.9111 3.74602
    endloop
  endfacet
  facet normal 0 -0.104527 0.994522
    outer loop
      vertex 0 55.3223 3.48387
      vertex 6 55 3.45
      vertex 6 55.3223 3.48387
    endloop
  endfacet
  facet normal 0 -0.104527 0.994522
    outer loop
      vertex 6 55 3.45
      vertex 0 55.3223 3.48387
      vertex 0 55 3.45
    endloop
  endfacet
  facet normal 0 0.104526 -0.994522
    outer loop
      vertex 0 54.6777 6.51613
      vertex 6 55 6.55
      vertex 6 54.6777 6.51613
    endloop
  endfacet
  facet normal 0 0.104526 -0.994522
    outer loop
      vertex 6 55 6.55
      vertex 0 54.6777 6.51613
      vertex 0 55 6.55
    endloop
  endfacet
  facet normal 0 -0.978148 -0.207912
    outer loop
      vertex 0 56.5415 5.16202
      vertex 6 56.4741 5.47898
      vertex 0 56.4741 5.47898
    endloop
  endfacet
  facet normal 0 -0.978148 -0.207912
    outer loop
      vertex 6 56.4741 5.47898
      vertex 0 56.5415 5.16202
      vertex 6 56.5415 5.16202
    endloop
  endfacet
  facet normal 0 1 -0
    outer loop
      vertex 6 53.4585 4.83798
      vertex 0 53.4585 5.16202
      vertex 6 53.4585 5.16202
    endloop
  endfacet
  facet normal 0 1 0
    outer loop
      vertex 0 53.4585 5.16202
      vertex 6 53.4585 4.83798
      vertex 0 53.4585 4.83798
    endloop
  endfacet
  facet normal 0 0.669131 -0.743144
    outer loop
      vertex 0 53.8481 6.03715
      vertex 6 54.0889 6.25398
      vertex 6 53.8481 6.03715
    endloop
  endfacet
  facet normal 0 0.669131 -0.743144
    outer loop
      vertex 6 54.0889 6.25398
      vertex 0 53.8481 6.03715
      vertex 0 54.0889 6.25398
    endloop
  endfacet
  facet normal 0 -0.669131 -0.743144
    outer loop
      vertex 0 55.9111 6.25398
      vertex 6 56.1519 6.03715
      vertex 6 55.9111 6.25398
    endloop
  endfacet
  facet normal -0 -0.669131 -0.743144
    outer loop
      vertex 6 56.1519 6.03715
      vertex 0 55.9111 6.25398
      vertex 0 56.1519 6.03715
    endloop
  endfacet
  facet normal 0 -0.809019 -0.587783
    outer loop
      vertex 0 56.3423 5.775
      vertex 6 56.1519 6.03715
      vertex 0 56.1519 6.03715
    endloop
  endfacet
  facet normal 0 -0.809019 -0.587783
    outer loop
      vertex 6 56.1519 6.03715
      vertex 0 56.3423 5.775
      vertex 6 56.3423 5.775
    endloop
  endfacet
  facet normal -0 0.104526 0.994522
    outer loop
      vertex 0 55 3.45
      vertex 6 54.6777 3.48387
      vertex 6 55 3.45
    endloop
  endfacet
  facet normal 0 0.104526 0.994522
    outer loop
      vertex 6 54.6777 3.48387
      vertex 0 55 3.45
      vertex 0 54.6777 3.48387
    endloop
  endfacet
  facet normal 0 0.5 -0.866025
    outer loop
      vertex 0 54.0889 6.25398
      vertex 6 54.3696 6.41599
      vertex 6 54.0889 6.25398
    endloop
  endfacet
  facet normal 0 0.5 -0.866025
    outer loop
      vertex 6 54.3696 6.41599
      vertex 0 54.0889 6.25398
      vertex 0 54.3696 6.41599
    endloop
  endfacet
  facet normal 0 -0.913546 0.406736
    outer loop
      vertex 0 56.3423 4.225
      vertex 6 56.4741 4.52102
      vertex 0 56.4741 4.52102
    endloop
  endfacet
  facet normal 0 -0.913546 0.406736
    outer loop
      vertex 6 56.4741 4.52102
      vertex 0 56.3423 4.225
      vertex 6 56.3423 4.225
    endloop
  endfacet
  facet normal 0 -0.309019 -0.951056
    outer loop
      vertex 0 55.3223 6.51613
      vertex 6 55.6304 6.41599
      vertex 6 55.3223 6.51613
    endloop
  endfacet
  facet normal -0 -0.309019 -0.951056
    outer loop
      vertex 6 55.6304 6.41599
      vertex 0 55.3223 6.51613
      vertex 0 55.6304 6.41599
    endloop
  endfacet
  facet normal 0 -0.499995 -0.866028
    outer loop
      vertex 0 55.6304 6.41599
      vertex 6 55.9111 6.25398
      vertex 6 55.6304 6.41599
    endloop
  endfacet
  facet normal -0 -0.499995 -0.866028
    outer loop
      vertex 6 55.9111 6.25398
      vertex 0 55.6304 6.41599
      vertex 0 55.9111 6.25398
    endloop
  endfacet
  facet normal 0 -0.104527 -0.994522
    outer loop
      vertex 0 55 6.55
      vertex 6 55.3223 6.51613
      vertex 6 55 6.55
    endloop
  endfacet
  facet normal -0 -0.104527 -0.994522
    outer loop
      vertex 6 55.3223 6.51613
      vertex 0 55 6.55
      vertex 0 55.3223 6.51613
    endloop
  endfacet
  facet normal 0 -0.913546 -0.406736
    outer loop
      vertex 0 56.4741 5.47898
      vertex 6 56.3423 5.775
      vertex 0 56.3423 5.775
    endloop
  endfacet
  facet normal 0 -0.913546 -0.406736
    outer loop
      vertex 6 56.3423 5.775
      vertex 0 56.4741 5.47898
      vertex 6 56.4741 5.47898
    endloop
  endfacet
  facet normal 0 0.809019 0.587783
    outer loop
      vertex 6 53.8481 3.96285
      vertex 0 53.6577 4.225
      vertex 6 53.6577 4.225
    endloop
  endfacet
  facet normal 0 0.809019 0.587783
    outer loop
      vertex 0 53.6577 4.225
      vertex 6 53.8481 3.96285
      vertex 0 53.8481 3.96285
    endloop
  endfacet
  facet normal 0 0.978145 0.207923
    outer loop
      vertex 6 53.5259 4.52102
      vertex 0 53.4585 4.83798
      vertex 6 53.4585 4.83798
    endloop
  endfacet
  facet normal 0 0.978145 0.207923
    outer loop
      vertex 0 53.4585 4.83798
      vertex 6 53.5259 4.52102
      vertex 0 53.5259 4.52102
    endloop
  endfacet
  facet normal -0 0.5 0.866025
    outer loop
      vertex 0 54.3696 3.584
      vertex 6 54.0889 3.74602
      vertex 6 54.3696 3.584
    endloop
  endfacet
  facet normal 0 0.5 0.866025
    outer loop
      vertex 6 54.0889 3.74602
      vertex 0 54.3696 3.584
      vertex 0 54.0889 3.74602
    endloop
  endfacet
  facet normal 0 0.913546 -0.406736
    outer loop
      vertex 6 53.5259 5.47898
      vertex 0 53.6577 5.775
      vertex 6 53.6577 5.775
    endloop
  endfacet
  facet normal 0 0.913546 -0.406736
    outer loop
      vertex 0 53.6577 5.775
      vertex 6 53.5259 5.47898
      vertex 0 53.5259 5.47898
    endloop
  endfacet
  facet normal 0 0.809019 -0.587783
    outer loop
      vertex 6 53.6577 5.775
      vertex 0 53.8481 6.03715
      vertex 6 53.8481 6.03715
    endloop
  endfacet
  facet normal 0 0.809019 -0.587783
    outer loop
      vertex 0 53.8481 6.03715
      vertex 6 53.6577 5.775
      vertex 0 53.6577 5.775
    endloop
  endfacet
  facet normal 0 0.978145 -0.207923
    outer loop
      vertex 6 53.4585 5.16202
      vertex 0 53.5259 5.47898
      vertex 6 53.5259 5.47898
    endloop
  endfacet
  facet normal 0 0.978145 -0.207923
    outer loop
      vertex 0 53.5259 5.47898
      vertex 6 53.4585 5.16202
      vertex 0 53.4585 5.16202
    endloop
  endfacet
  facet normal -1 0 0
    outer loop
      vertex 6 56.4741 4.52102
      vertex 6 56.5415 5.16202
      vertex 6 56.5415 4.83798
    endloop
  endfacet
  facet normal -1 0 0
    outer loop
      vertex 6 56.4741 4.52102
      vertex 6 56.4741 5.47898
      vertex 6 56.5415 5.16202
    endloop
  endfacet
  facet normal -1 0 0
    outer loop
      vertex 6 56.3423 4.225
      vertex 6 56.4741 5.47898
      vertex 6 56.4741 4.52102
    endloop
  endfacet
  facet normal -1 0 0
    outer loop
      vertex 6 56.3423 4.225
      vertex 6 56.3423 5.775
      vertex 6 56.4741 5.47898
    endloop
  endfacet
  facet normal -1 0 0
    outer loop
      vertex 6 56.1519 3.96285
      vertex 6 56.3423 5.775
      vertex 6 56.3423 4.225
    endloop
  endfacet
  facet normal -1 0 0
    outer loop
      vertex 6 56.1519 3.96285
      vertex 6 56.1519 6.03715
      vertex 6 56.3423 5.775
    endloop
  endfacet
  facet normal -1 0 0
    outer loop
      vertex 6 55.9111 3.74602
      vertex 6 56.1519 6.03715
      vertex 6 56.1519 3.96285
    endloop
  endfacet
  facet normal -1 0 0
    outer loop
      vertex 6 55.9111 3.74602
      vertex 6 55.9111 6.25398
      vertex 6 56.1519 6.03715
    endloop
  endfacet
  facet normal -1 0 0
    outer loop
      vertex 6 55.6304 3.584
      vertex 6 55.9111 6.25398
      vertex 6 55.9111 3.74602
    endloop
  endfacet
  facet normal -1 0 0
    outer loop
      vertex 6 55.6304 3.584
      vertex 6 55.6304 6.41599
      vertex 6 55.9111 6.25398
    endloop
  endfacet
  facet normal -1 0 0
    outer loop
      vertex 6 55.3223 3.48387
      vertex 6 55.6304 6.41599
      vertex 6 55.6304 3.584
    endloop
  endfacet
  facet normal -1 0 0
    outer loop
      vertex 6 55.3223 3.48387
      vertex 6 55.3223 6.51613
      vertex 6 55.6304 6.41599
    endloop
  endfacet
  facet normal -1 0 0
    outer loop
      vertex 6 55 3.45
      vertex 6 55.3223 6.51613
      vertex 6 55.3223 3.48387
    endloop
  endfacet
  facet normal -1 0 0
    outer loop
      vertex 6 55 3.45
      vertex 6 55 6.55
      vertex 6 55.3223 6.51613
    endloop
  endfacet
  facet normal -1 0 0
    outer loop
      vertex 6 54.6777 3.48387
      vertex 6 55 6.55
      vertex 6 55 3.45
    endloop
  endfacet
  facet normal -1 0 0
    outer loop
      vertex 6 54.6777 3.48387
      vertex 6 54.6777 6.51613
      vertex 6 55 6.55
    endloop
  endfacet
  facet normal -1 0 0
    outer loop
      vertex 6 54.3696 3.584
      vertex 6 54.6777 6.51613
      vertex 6 54.6777 3.48387
    endloop
  endfacet
  facet normal -1 0 0
    outer loop
      vertex 6 54.3696 3.584
      vertex 6 54.3696 6.41599
      vertex 6 54.6777 6.51613
    endloop
  endfacet
  facet normal -1 0 0
    outer loop
      vertex 6 54.0889 3.74602
      vertex 6 54.3696 6.41599
      vertex 6 54.3696 3.584
    endloop
  endfacet
  facet normal -1 0 0
    outer loop
      vertex 6 54.0889 3.74602
      vertex 6 54.0889 6.25398
      vertex 6 54.3696 6.41599
    endloop
  endfacet
  facet normal -1 0 0
    outer loop
      vertex 6 53.8481 3.96285
      vertex 6 54.0889 6.25398
      vertex 6 54.0889 3.74602
    endloop
  endfacet
  facet normal -1 0 0
    outer loop
      vertex 6 53.8481 3.96285
      vertex 6 53.8481 6.03715
      vertex 6 54.0889 6.25398
    endloop
  endfacet
  facet normal -1 0 0
    outer loop
      vertex 6 53.6577 4.225
      vertex 6 53.8481 6.03715
      vertex 6 53.8481 3.96285
    endloop
  endfacet
  facet normal -1 0 0
    outer loop
      vertex 6 53.6577 4.225
      vertex 6 53.6577 5.775
      vertex 6 53.8481 6.03715
    endloop
  endfacet
  facet normal -1 0 0
    outer loop
      vertex 6 53.5259 4.52102
      vertex 6 53.6577 5.775
      vertex 6 53.6577 4.225
    endloop
  endfacet
  facet normal -1 0 0
    outer loop
      vertex 6 53.5259 4.52102
      vertex 6 53.5259 5.47898
      vertex 6 53.6577 5.775
    endloop
  endfacet
  facet normal -1 0 0
    outer loop
      vertex 6 53.4585 4.83798
      vertex 6 53.5259 5.47898
      vertex 6 53.5259 4.52102
    endloop
  endfacet
  facet normal -1 0 0
    outer loop
      vertex 6 53.5259 5.47898
      vertex 6 53.4585 4.83798
      vertex 6 53.4585 5.16202
    endloop
  endfacet
  facet normal 0 0.309019 -0.951056
    outer loop
      vertex 0 54.3696 6.41599
      vertex 6 54.6777 6.51613
      vertex 6 54.3696 6.41599
    endloop
  endfacet
  facet normal 0 0.309019 -0.951056
    outer loop
      vertex 6 54.6777 6.51613
      vertex 0 54.3696 6.41599
      vertex 0 54.6777 6.51613
    endloop
  endfacet
  facet normal 0 -0.309019 0.951056
    outer loop
      vertex 0 55.6304 3.584
      vertex 6 55.3223 3.48387
      vertex 6 55.6304 3.584
    endloop
  endfacet
  facet normal 0 -0.309019 0.951056
    outer loop
      vertex 6 55.3223 3.48387
      vertex 0 55.6304 3.584
      vertex 0 55.3223 3.48387
    endloop
  endfacet
  facet normal 0 -0.978148 0.207912
    outer loop
      vertex 0 56.4741 4.52102
      vertex 6 56.5415 4.83798
      vertex 0 56.5415 4.83798
    endloop
  endfacet
  facet normal 0 -0.978148 0.207912
    outer loop
      vertex 6 56.5415 4.83798
      vertex 0 56.4741 4.52102
      vertex 6 56.4741 4.52102
    endloop
  endfacet
  facet normal 0 -1 0
    outer loop
      vertex 0 56.5415 4.83798
      vertex 6 56.5415 5.16202
      vertex 0 56.5415 5.16202
    endloop
  endfacet
  facet normal 0 -1 -0
    outer loop
      vertex 6 56.5415 5.16202
      vertex 0 56.5415 4.83798
      vertex 6 56.5415 4.83798
    endloop
  endfacet
  facet normal 0 0.913546 0.406736
    outer loop
      vertex 6 53.6577 4.225
      vertex 0 53.5259 4.52102
      vertex 6 53.5259 4.52102
    endloop
  endfacet
  facet normal 0 0.913546 0.406736
    outer loop
      vertex 0 53.5259 4.52102
      vertex 6 53.6577 4.225
      vertex 0 53.6577 4.225
    endloop
  endfacet
  facet normal -0 0.669131 0.743144
    outer loop
      vertex 0 54.0889 3.74602
      vertex 6 53.8481 3.96285
      vertex 6 54.0889 3.74602
    endloop
  endfacet
  facet normal 0 0.669131 0.743144
    outer loop
      vertex 6 53.8481 3.96285
      vertex 0 54.0889 3.74602
      vertex 0 53.8481 3.96285
    endloop
  endfacet
  facet normal -0 0.309019 0.951056
    outer loop
      vertex 0 54.6777 3.48387
      vertex 6 54.3696 3.584
      vertex 6 54.6777 3.48387
    endloop
  endfacet
  facet normal 0 0.309019 0.951056
    outer loop
      vertex 6 54.3696 3.584
      vertex 0 54.6777 3.48387
      vertex 0 54.3696 3.584
    endloop
  endfacet
  facet normal 0 -0.499995 0.866028
    outer loop
      vertex 0 55.9111 3.74602
      vertex 6 55.6304 3.584
      vertex 6 55.9111 3.74602
    endloop
  endfacet
  facet normal 0 -0.499995 0.866028
    outer loop
      vertex 6 55.6304 3.584
      vertex 0 55.9111 3.74602
      vertex 0 55.6304 3.584
    endloop
  endfacet
  facet normal 0 -0.809019 0.587783
    outer loop
      vertex 0 56.1519 3.96285
      vertex 6 56.3423 4.225
      vertex 0 56.3423 4.225
    endloop
  endfacet
  facet normal 0 -0.809019 0.587783
    outer loop
      vertex 6 56.3423 4.225
      vertex 0 56.1519 3.96285
      vertex 6 56.1519 3.96285
    endloop
  endfacet
endsolid OpenSCAD_Model
