solid OpenSCAD_Model
  facet normal 0 0 -1
    outer loop
      vertex 0 0 0
      vertex 10 60 0
      vertex 10 0 0
    endloop
  endfacet
  facet normal -0 0 -1
    outer loop
      vertex 10 60 0
      vertex 0 0 0
      vertex 0 60 0
    endloop
  endfacet
  facet normal 1 -0 0
    outer loop
      vertex 10 0 10
      vertex 10 60 0
      vertex 10 60 10
    endloop
  endfacet
  facet normal 1 0 0
    outer loop
      vertex 10 60 0
      vertex 10 0 10
      vertex 10 0 0
    endloop
  endfacet
  facet normal -1 0 0
    outer loop
      vertex 0 60 0
      vertex 0 56.7404 4.81707
      vertex 0 60 10
    endloop
  endfacet
  facet normal -1 0 0
    outer loop
      vertex 0 60 0
      vertex 0 56.6643 4.45922
      vertex 0 56.7404 4.81707
    endloop
  endfacet
  facet normal -1 0 0
    outer loop
      vertex 0 60 0
      vertex 0 56.5155 4.125
      vertex 0 56.6643 4.45922
    endloop
  endfacet
  facet normal -1 0 0
    outer loop
      vertex 0 60 0
      vertex 0 56.3005 3.82902
      vertex 0 56.5155 4.125
    endloop
  endfacet
  facet normal -1 0 0
    outer loop
      vertex 0 60 0
      vertex 0 56.0286 3.58422
      vertex 0 56.3005 3.82902
    endloop
  endfacet
  facet normal -1 0 0
    outer loop
      vertex 0 60 0
      vertex 0 55.7118 3.40129
      vertex 0 56.0286 3.58422
    endloop
  endfacet
  facet normal -1 0 0
    outer loop
      vertex 0 60 0
      vertex 0 55.3638 3.28824
      vertex 0 55.7118 3.40129
    endloop
  endfacet
  facet normal -1 0 0
    outer loop
      vertex 0 60 0
      vertex 0 55 3.25
      vertex 0 55.3638 3.28824
    endloop
  endfacet
  facet normal -1 0 0
    outer loop
      vertex 0 60 0
      vertex 0 54.6362 3.28824
      vertex 0 55 3.25
    endloop
  endfacet
  facet normal -1 0 0
    outer loop
      vertex 0 60 0
      vertex 0 54.2882 3.40129
      vertex 0 54.6362 3.28824
    endloop
  endfacet
  facet normal -1 0 0
    outer loop
      vertex 0 5.71179 3.40129
      vertex 0 54.2882 3.40129
      vertex 0 60 0
    endloop
  endfacet
  facet normal -1 0 0
    outer loop
      vertex 0 53.2596 4.81707
      vertex 0 6.74041 4.81707
      vertex 0 53.2596 5.18292
    endloop
  endfacet
  facet normal -1 0 0
    outer loop
      vertex 0 53.3357 4.45922
      vertex 0 6.74041 4.81707
      vertex 0 53.2596 4.81707
    endloop
  endfacet
  facet normal -1 0 0
    outer loop
      vertex 0 6.66435 4.45922
      vertex 0 53.3357 4.45922
      vertex 0 53.4845 4.125
    endloop
  endfacet
  facet normal -1 0 0
    outer loop
      vertex 0 6.51554 4.125
      vertex 0 53.4845 4.125
      vertex 0 53.6995 3.82902
    endloop
  endfacet
  facet normal -1 0 0
    outer loop
      vertex 0 6.3005 3.82902
      vertex 0 53.6995 3.82902
      vertex 0 53.9714 3.58422
    endloop
  endfacet
  facet normal -1 0 0
    outer loop
      vertex 0 54.2882 3.40129
      vertex 0 5.71179 3.40129
      vertex 0 53.9714 3.58422
    endloop
  endfacet
  facet normal -1 0 0
    outer loop
      vertex 0 53.3357 4.45922
      vertex 0 6.66435 4.45922
      vertex 0 6.74041 4.81707
    endloop
  endfacet
  facet normal -1 0 0
    outer loop
      vertex 0 53.4845 4.125
      vertex 0 6.51554 4.125
      vertex 0 6.66435 4.45922
    endloop
  endfacet
  facet normal -1 0 0
    outer loop
      vertex 0 53.6995 3.82902
      vertex 0 6.3005 3.82902
      vertex 0 6.51554 4.125
    endloop
  endfacet
  facet normal -1 0 0
    outer loop
      vertex 0 53.9714 3.58422
      vertex 0 6.02862 3.58422
      vertex 0 6.3005 3.82902
    endloop
  endfacet
  facet normal -1 -0 0
    outer loop
      vertex 0 53.9714 3.58422
      vertex 0 5.71179 3.40129
      vertex 0 6.02862 3.58422
    endloop
  endfacet
  facet normal -1 0 0
    outer loop
      vertex 0 0 0
      vertex 0 5.71179 3.40129
      vertex 0 60 0
    endloop
  endfacet
  facet normal -1 0 0
    outer loop
      vertex 0 5.71179 3.40129
      vertex 0 0 0
      vertex 0 5.36384 3.28824
    endloop
  endfacet
  facet normal -1 -0 0
    outer loop
      vertex 0 3.25959 4.81707
      vertex 0 0 0
      vertex 0 3.25959 5.18292
    endloop
  endfacet
  facet normal -1 -0 0
    outer loop
      vertex 0 3.33565 4.45922
      vertex 0 0 0
      vertex 0 3.25959 4.81707
    endloop
  endfacet
  facet normal -1 -0 0
    outer loop
      vertex 0 3.48446 4.125
      vertex 0 0 0
      vertex 0 3.33565 4.45922
    endloop
  endfacet
  facet normal -1 -0 0
    outer loop
      vertex 0 3.6995 3.82902
      vertex 0 0 0
      vertex 0 3.48446 4.125
    endloop
  endfacet
  facet normal -1 -0 0
    outer loop
      vertex 0 3.97138 3.58422
      vertex 0 0 0
      vertex 0 3.6995 3.82902
    endloop
  endfacet
  facet normal -1 -0 0
    outer loop
      vertex 0 4.28821 3.40129
      vertex 0 0 0
      vertex 0 3.97138 3.58422
    endloop
  endfacet
  facet normal -1 -0 0
    outer loop
      vertex 0 4.63615 3.28824
      vertex 0 0 0
      vertex 0 4.28821 3.40129
    endloop
  endfacet
  facet normal -1 -0 0
    outer loop
      vertex 0 5 3.25
      vertex 0 0 0
      vertex 0 4.63615 3.28824
    endloop
  endfacet
  facet normal -1 0 0
    outer loop
      vertex 0 5.36384 3.28824
      vertex 0 0 0
      vertex 0 5 3.25
    endloop
  endfacet
  facet normal -1 0 0
    outer loop
      vertex 0 56.7404 5.18292
      vertex 0 60 10
      vertex 0 56.7404 4.81707
    endloop
  endfacet
  facet normal -1 0 0
    outer loop
      vertex 0 56.6643 5.54078
      vertex 0 60 10
      vertex 0 56.7404 5.18292
    endloop
  endfacet
  facet normal -1 0 0
    outer loop
      vertex 0 56.5155 5.875
      vertex 0 60 10
      vertex 0 56.6643 5.54078
    endloop
  endfacet
  facet normal -1 0 0
    outer loop
      vertex 0 56.3005 6.17098
      vertex 0 60 10
      vertex 0 56.5155 5.875
    endloop
  endfacet
  facet normal -1 0 0
    outer loop
      vertex 0 56.0286 6.41578
      vertex 0 60 10
      vertex 0 56.3005 6.17098
    endloop
  endfacet
  facet normal -1 0 0
    outer loop
      vertex 0 55.7118 6.5987
      vertex 0 60 10
      vertex 0 56.0286 6.41578
    endloop
  endfacet
  facet normal -1 0 0
    outer loop
      vertex 0 55.3638 6.71176
      vertex 0 60 10
      vertex 0 55.7118 6.5987
    endloop
  endfacet
  facet normal -1 0 0
    outer loop
      vertex 0 55 6.75
      vertex 0 60 10
      vertex 0 55.3638 6.71176
    endloop
  endfacet
  facet normal -1 0 0
    outer loop
      vertex 0 54.6362 6.71176
      vertex 0 60 10
      vertex 0 55 6.75
    endloop
  endfacet
  facet normal -1 0 0
    outer loop
      vertex 0 54.2882 6.5987
      vertex 0 60 10
      vertex 0 54.6362 6.71176
    endloop
  endfacet
  facet normal -1 0 0
    outer loop
      vertex 0 5.71179 6.5987
      vertex 0 54.2882 6.5987
      vertex 0 53.9714 6.41578
    endloop
  endfacet
  facet normal -1 0 0
    outer loop
      vertex 0 6.74041 5.18292
      vertex 0 53.2596 5.18292
      vertex 0 6.74041 4.81707
    endloop
  endfacet
  facet normal -1 0 0
    outer loop
      vertex 0 53.2596 5.18292
      vertex 0 6.74041 5.18292
      vertex 0 53.3357 5.54078
    endloop
  endfacet
  facet normal -1 0 0
    outer loop
      vertex 0 6.66435 5.54078
      vertex 0 53.3357 5.54078
      vertex 0 6.74041 5.18292
    endloop
  endfacet
  facet normal -1 0 0
    outer loop
      vertex 0 53.3357 5.54078
      vertex 0 6.66435 5.54078
      vertex 0 53.4845 5.875
    endloop
  endfacet
  facet normal -1 0 0
    outer loop
      vertex 0 6.51554 5.875
      vertex 0 53.4845 5.875
      vertex 0 6.66435 5.54078
    endloop
  endfacet
  facet normal -1 0 0
    outer loop
      vertex 0 53.4845 5.875
      vertex 0 6.51554 5.875
      vertex 0 53.6995 6.17098
    endloop
  endfacet
  facet normal -1 0 0
    outer loop
      vertex 0 6.3005 6.17098
      vertex 0 53.6995 6.17098
      vertex 0 6.51554 5.875
    endloop
  endfacet
  facet normal -1 0 0
    outer loop
      vertex 0 53.6995 6.17098
      vertex 0 6.3005 6.17098
      vertex 0 53.9714 6.41578
    endloop
  endfacet
  facet normal -1 0 0
    outer loop
      vertex 0 6.02862 6.41578
      vertex 0 53.9714 6.41578
      vertex 0 6.3005 6.17098
    endloop
  endfacet
  facet normal -1 0 0
    outer loop
      vertex 0 5.71179 6.5987
      vertex 0 53.9714 6.41578
      vertex 0 6.02862 6.41578
    endloop
  endfacet
  facet normal -1 0 0
    outer loop
      vertex 0 54.2882 6.5987
      vertex 0 5.71179 6.5987
      vertex 0 60 10
    endloop
  endfacet
  facet normal -1 0 0
    outer loop
      vertex 0 0 10
      vertex 0 5.71179 6.5987
      vertex 0 5.36384 6.71176
    endloop
  endfacet
  facet normal -1 0 0
    outer loop
      vertex 0 0 10
      vertex 0 5.36384 6.71176
      vertex 0 5 6.75
    endloop
  endfacet
  facet normal -1 0 0
    outer loop
      vertex 0 0 10
      vertex 0 3.25959 5.18292
      vertex 0 0 0
    endloop
  endfacet
  facet normal -1 0 0
    outer loop
      vertex 0 3.25959 5.18292
      vertex 0 0 10
      vertex 0 3.33565 5.54078
    endloop
  endfacet
  facet normal -1 0 0
    outer loop
      vertex 0 5.71179 6.5987
      vertex 0 0 10
      vertex 0 60 10
    endloop
  endfacet
  facet normal -1 0 0
    outer loop
      vertex 0 4.63615 6.71176
      vertex 0 0 10
      vertex 0 5 6.75
    endloop
  endfacet
  facet normal -1 0 0
    outer loop
      vertex 0 4.28821 6.5987
      vertex 0 0 10
      vertex 0 4.63615 6.71176
    endloop
  endfacet
  facet normal -1 0 0
    outer loop
      vertex 0 3.97138 6.41578
      vertex 0 0 10
      vertex 0 4.28821 6.5987
    endloop
  endfacet
  facet normal -1 0 0
    outer loop
      vertex 0 3.6995 6.17098
      vertex 0 0 10
      vertex 0 3.97138 6.41578
    endloop
  endfacet
  facet normal -1 0 0
    outer loop
      vertex 0 3.48446 5.875
      vertex 0 0 10
      vertex 0 3.6995 6.17098
    endloop
  endfacet
  facet normal -1 0 0
    outer loop
      vertex 0 3.33565 5.54078
      vertex 0 0 10
      vertex 0 3.48446 5.875
    endloop
  endfacet
  facet normal 0 -1 0
    outer loop
      vertex 0 0 0
      vertex 10 0 10
      vertex 0 0 10
    endloop
  endfacet
  facet normal 0 -1 -0
    outer loop
      vertex 10 0 10
      vertex 0 0 0
      vertex 10 0 0
    endloop
  endfacet
  facet normal 0 1 -0
    outer loop
      vertex 10 60 0
      vertex 0 60 10
      vertex 10 60 10
    endloop
  endfacet
  facet normal 0 1 0
    outer loop
      vertex 0 60 10
      vertex 10 60 0
      vertex 0 60 0
    endloop
  endfacet
  facet normal -0 0 1
    outer loop
      vertex 0 60 10
      vertex 10 0 10
      vertex 10 60 10
    endloop
  endfacet
  facet normal 0 0 1
    outer loop
      vertex 10 0 10
      vertex 0 60 10
      vertex 0 0 10
    endloop
  endfacet
  facet normal 0 -0.5 0.866025
    outer loop
      vertex 0 6.02862 3.58422
      vertex 6 5.71179 3.40129
      vertex 6 6.02862 3.58422
    endloop
  endfacet
  facet normal 0 -0.5 0.866025
    outer loop
      vertex 6 5.71179 3.40129
      vertex 0 6.02862 3.58422
      vertex 0 5.71179 3.40129
    endloop
  endfacet
  facet normal 0 -0.104528 0.994522
    outer loop
      vertex 0 5.36384 3.28824
      vertex 6 5 3.25
      vertex 6 5.36384 3.28824
    endloop
  endfacet
  facet normal 0 -0.104528 0.994522
    outer loop
      vertex 6 5 3.25
      vertex 0 5.36384 3.28824
      vertex 0 5 3.25
    endloop
  endfacet
  facet normal 0 -0.10453 -0.994522
    outer loop
      vertex 0 5 6.75
      vertex 6 5.36384 6.71176
      vertex 6 5 6.75
    endloop
  endfacet
  facet normal -0 -0.10453 -0.994522
    outer loop
      vertex 6 5.36384 6.71176
      vertex 0 5 6.75
      vertex 0 5.36384 6.71176
    endloop
  endfacet
  facet normal 0 1 -0
    outer loop
      vertex 6 3.25959 4.81707
      vertex 0 3.25959 5.18292
      vertex 6 3.25959 5.18292
    endloop
  endfacet
  facet normal 0 1 0
    outer loop
      vertex 0 3.25959 5.18292
      vertex 6 3.25959 4.81707
      vertex 0 3.25959 4.81707
    endloop
  endfacet
  facet normal 0 -0.809017 -0.587786
    outer loop
      vertex 0 6.51554 5.875
      vertex 6 6.3005 6.17098
      vertex 0 6.3005 6.17098
    endloop
  endfacet
  facet normal 0 -0.809017 -0.587786
    outer loop
      vertex 6 6.3005 6.17098
      vertex 0 6.51554 5.875
      vertex 6 6.51554 5.875
    endloop
  endfacet
  facet normal 0 -0.913546 -0.406737
    outer loop
      vertex 0 6.66435 5.54078
      vertex 6 6.51554 5.875
      vertex 0 6.51554 5.875
    endloop
  endfacet
  facet normal 0 -0.913546 -0.406737
    outer loop
      vertex 6 6.51554 5.875
      vertex 0 6.66435 5.54078
      vertex 6 6.66435 5.54078
    endloop
  endfacet
  facet normal -0 0.309016 0.951057
    outer loop
      vertex 0 4.63615 3.28824
      vertex 6 4.28821 3.40129
      vertex 6 4.63615 3.28824
    endloop
  endfacet
  facet normal 0 0.309016 0.951057
    outer loop
      vertex 6 4.28821 3.40129
      vertex 0 4.63615 3.28824
      vertex 0 4.28821 3.40129
    endloop
  endfacet
  facet normal -0 0.104528 0.994522
    outer loop
      vertex 0 5 3.25
      vertex 6 4.63615 3.28824
      vertex 6 5 3.25
    endloop
  endfacet
  facet normal 0 0.104528 0.994522
    outer loop
      vertex 6 4.63615 3.28824
      vertex 0 5 3.25
      vertex 0 4.63615 3.28824
    endloop
  endfacet
  facet normal -0 0.5 0.866025
    outer loop
      vertex 0 4.28821 3.40129
      vertex 6 3.97138 3.58422
      vertex 6 4.28821 3.40129
    endloop
  endfacet
  facet normal 0 0.5 0.866025
    outer loop
      vertex 6 3.97138 3.58422
      vertex 0 4.28821 3.40129
      vertex 0 3.97138 3.58422
    endloop
  endfacet
  facet normal 0 -0.309016 0.951057
    outer loop
      vertex 0 5.71179 3.40129
      vertex 6 5.36384 3.28824
      vertex 6 5.71179 3.40129
    endloop
  endfacet
  facet normal 0 -0.309016 0.951057
    outer loop
      vertex 6 5.36384 3.28824
      vertex 0 5.71179 3.40129
      vertex 0 5.36384 3.28824
    endloop
  endfacet
  facet normal 0 -0.5 -0.866025
    outer loop
      vertex 0 5.71179 6.5987
      vertex 6 6.02862 6.41578
      vertex 6 5.71179 6.5987
    endloop
  endfacet
  facet normal -0 -0.5 -0.866025
    outer loop
      vertex 6 6.02862 6.41578
      vertex 0 5.71179 6.5987
      vertex 0 6.02862 6.41578
    endloop
  endfacet
  facet normal 0 -0.66913 -0.743146
    outer loop
      vertex 0 6.02862 6.41578
      vertex 6 6.3005 6.17098
      vertex 6 6.02862 6.41578
    endloop
  endfacet
  facet normal -0 -0.66913 -0.743146
    outer loop
      vertex 6 6.3005 6.17098
      vertex 0 6.02862 6.41578
      vertex 0 6.3005 6.17098
    endloop
  endfacet
  facet normal 0 -0.309016 -0.951057
    outer loop
      vertex 0 5.36384 6.71176
      vertex 6 5.71179 6.5987
      vertex 6 5.36384 6.71176
    endloop
  endfacet
  facet normal -0 -0.309016 -0.951057
    outer loop
      vertex 6 5.71179 6.5987
      vertex 0 5.36384 6.71176
      vertex 0 5.71179 6.5987
    endloop
  endfacet
  facet normal 0 -0.978148 -0.207911
    outer loop
      vertex 0 6.74041 5.18292
      vertex 6 6.66435 5.54078
      vertex 0 6.66435 5.54078
    endloop
  endfacet
  facet normal 0 -0.978148 -0.207911
    outer loop
      vertex 6 6.66435 5.54078
      vertex 0 6.74041 5.18292
      vertex 6 6.74041 5.18292
    endloop
  endfacet
  facet normal 0 0.978148 0.207911
    outer loop
      vertex 6 3.33565 4.45922
      vertex 0 3.25959 4.81707
      vertex 6 3.25959 4.81707
    endloop
  endfacet
  facet normal 0 0.978148 0.207911
    outer loop
      vertex 0 3.25959 4.81707
      vertex 6 3.33565 4.45922
      vertex 0 3.33565 4.45922
    endloop
  endfacet
  facet normal 0 -0.978148 0.207911
    outer loop
      vertex 0 6.66435 4.45922
      vertex 6 6.74041 4.81707
      vertex 0 6.74041 4.81707
    endloop
  endfacet
  facet normal 0 -0.978148 0.207911
    outer loop
      vertex 6 6.74041 4.81707
      vertex 0 6.66435 4.45922
      vertex 6 6.66435 4.45922
    endloop
  endfacet
  facet normal 0 -1 0
    outer loop
      vertex 0 6.74041 4.81707
      vertex 6 6.74041 5.18292
      vertex 0 6.74041 5.18292
    endloop
  endfacet
  facet normal 0 -1 -0
    outer loop
      vertex 6 6.74041 5.18292
      vertex 0 6.74041 4.81707
      vertex 6 6.74041 4.81707
    endloop
  endfacet
  facet normal 0 0.809018 0.587784
    outer loop
      vertex 6 3.6995 3.82902
      vertex 0 3.48446 4.125
      vertex 6 3.48446 4.125
    endloop
  endfacet
  facet normal 0 0.809018 0.587784
    outer loop
      vertex 0 3.48446 4.125
      vertex 6 3.6995 3.82902
      vertex 0 3.6995 3.82902
    endloop
  endfacet
  facet normal -0 0.66913 0.743146
    outer loop
      vertex 0 3.97138 3.58422
      vertex 6 3.6995 3.82902
      vertex 6 3.97138 3.58422
    endloop
  endfacet
  facet normal 0 0.66913 0.743146
    outer loop
      vertex 6 3.6995 3.82902
      vertex 0 3.97138 3.58422
      vertex 0 3.6995 3.82902
    endloop
  endfacet
  facet normal 0 0.66913 -0.743146
    outer loop
      vertex 0 3.6995 6.17098
      vertex 6 3.97138 6.41578
      vertex 6 3.6995 6.17098
    endloop
  endfacet
  facet normal 0 0.66913 -0.743146
    outer loop
      vertex 6 3.97138 6.41578
      vertex 0 3.6995 6.17098
      vertex 0 3.97138 6.41578
    endloop
  endfacet
  facet normal -1 0 0
    outer loop
      vertex 6 6.66435 4.45922
      vertex 6 6.74041 5.18292
      vertex 6 6.74041 4.81707
    endloop
  endfacet
  facet normal -1 0 0
    outer loop
      vertex 6 6.66435 4.45922
      vertex 6 6.66435 5.54078
      vertex 6 6.74041 5.18292
    endloop
  endfacet
  facet normal -1 0 0
    outer loop
      vertex 6 6.51554 4.125
      vertex 6 6.66435 5.54078
      vertex 6 6.66435 4.45922
    endloop
  endfacet
  facet normal -1 0 0
    outer loop
      vertex 6 6.51554 4.125
      vertex 6 6.51554 5.875
      vertex 6 6.66435 5.54078
    endloop
  endfacet
  facet normal -1 0 0
    outer loop
      vertex 6 6.3005 3.82902
      vertex 6 6.51554 5.875
      vertex 6 6.51554 4.125
    endloop
  endfacet
  facet normal -1 0 0
    outer loop
      vertex 6 6.3005 3.82902
      vertex 6 6.3005 6.17098
      vertex 6 6.51554 5.875
    endloop
  endfacet
  facet normal -1 0 0
    outer loop
      vertex 6 6.02862 3.58422
      vertex 6 6.3005 6.17098
      vertex 6 6.3005 3.82902
    endloop
  endfacet
  facet normal -1 0 0
    outer loop
      vertex 6 6.02862 3.58422
      vertex 6 6.02862 6.41578
      vertex 6 6.3005 6.17098
    endloop
  endfacet
  facet normal -1 0 0
    outer loop
      vertex 6 5.71179 3.40129
      vertex 6 6.02862 6.41578
      vertex 6 6.02862 3.58422
    endloop
  endfacet
  facet normal -1 0 0
    outer loop
      vertex 6 5.71179 3.40129
      vertex 6 5.71179 6.5987
      vertex 6 6.02862 6.41578
    endloop
  endfacet
  facet normal -1 0 0
    outer loop
      vertex 6 5.36384 3.28824
      vertex 6 5.71179 6.5987
      vertex 6 5.71179 3.40129
    endloop
  endfacet
  facet normal -1 0 0
    outer loop
      vertex 6 5.36384 3.28824
      vertex 6 5.36384 6.71176
      vertex 6 5.71179 6.5987
    endloop
  endfacet
  facet normal -1 0 0
    outer loop
      vertex 6 5 3.25
      vertex 6 5.36384 6.71176
      vertex 6 5.36384 3.28824
    endloop
  endfacet
  facet normal -1 0 0
    outer loop
      vertex 6 5 3.25
      vertex 6 5 6.75
      vertex 6 5.36384 6.71176
    endloop
  endfacet
  facet normal -1 0 0
    outer loop
      vertex 6 4.63615 3.28824
      vertex 6 5 6.75
      vertex 6 5 3.25
    endloop
  endfacet
  facet normal -1 0 0
    outer loop
      vertex 6 4.63615 3.28824
      vertex 6 4.63615 6.71176
      vertex 6 5 6.75
    endloop
  endfacet
  facet normal -1 0 0
    outer loop
      vertex 6 4.28821 3.40129
      vertex 6 4.63615 6.71176
      vertex 6 4.63615 3.28824
    endloop
  endfacet
  facet normal -1 0 0
    outer loop
      vertex 6 4.28821 3.40129
      vertex 6 4.28821 6.5987
      vertex 6 4.63615 6.71176
    endloop
  endfacet
  facet normal -1 0 0
    outer loop
      vertex 6 3.97138 3.58422
      vertex 6 4.28821 6.5987
      vertex 6 4.28821 3.40129
    endloop
  endfacet
  facet normal -1 0 0
    outer loop
      vertex 6 3.97138 3.58422
      vertex 6 3.97138 6.41578
      vertex 6 4.28821 6.5987
    endloop
  endfacet
  facet normal -1 0 0
    outer loop
      vertex 6 3.6995 3.82902
      vertex 6 3.97138 6.41578
      vertex 6 3.97138 3.58422
    endloop
  endfacet
  facet normal -1 0 0
    outer loop
      vertex 6 3.6995 3.82902
      vertex 6 3.6995 6.17098
      vertex 6 3.97138 6.41578
    endloop
  endfacet
  facet normal -1 0 0
    outer loop
      vertex 6 3.48446 4.125
      vertex 6 3.6995 6.17098
      vertex 6 3.6995 3.82902
    endloop
  endfacet
  facet normal -1 0 0
    outer loop
      vertex 6 3.48446 4.125
      vertex 6 3.48446 5.875
      vertex 6 3.6995 6.17098
    endloop
  endfacet
  facet normal -1 0 0
    outer loop
      vertex 6 3.33565 4.45922
      vertex 6 3.48446 5.875
      vertex 6 3.48446 4.125
    endloop
  endfacet
  facet normal -1 0 0
    outer loop
      vertex 6 3.33565 4.45922
      vertex 6 3.33565 5.54078
      vertex 6 3.48446 5.875
    endloop
  endfacet
  facet normal -1 0 0
    outer loop
      vertex 6 3.25959 4.81707
      vertex 6 3.33565 5.54078
      vertex 6 3.33565 4.45922
    endloop
  endfacet
  facet normal -1 0 0
    outer loop
      vertex 6 3.33565 5.54078
      vertex 6 3.25959 4.81707
      vertex 6 3.25959 5.18292
    endloop
  endfacet
  facet normal 0 0.913545 0.406737
    outer loop
      vertex 6 3.48446 4.125
      vertex 0 3.33565 4.45922
      vertex 6 3.33565 4.45922
    endloop
  endfacet
  facet normal 0 0.913545 0.406737
    outer loop
      vertex 0 3.33565 4.45922
      vertex 6 3.48446 4.125
      vertex 0 3.48446 4.125
    endloop
  endfacet
  facet normal 0 -0.66913 0.743146
    outer loop
      vertex 0 6.3005 3.82902
      vertex 6 6.02862 3.58422
      vertex 6 6.3005 3.82902
    endloop
  endfacet
  facet normal 0 -0.66913 0.743146
    outer loop
      vertex 6 6.02862 3.58422
      vertex 0 6.3005 3.82902
      vertex 0 6.02862 3.58422
    endloop
  endfacet
  facet normal 0 -0.913545 0.406737
    outer loop
      vertex 0 6.51554 4.125
      vertex 6 6.66435 4.45922
      vertex 0 6.66435 4.45922
    endloop
  endfacet
  facet normal 0 -0.913545 0.406737
    outer loop
      vertex 6 6.66435 4.45922
      vertex 0 6.51554 4.125
      vertex 6 6.51554 4.125
    endloop
  endfacet
  facet normal 0 -0.809018 0.587784
    outer loop
      vertex 0 6.3005 3.82902
      vertex 6 6.51554 4.125
      vertex 0 6.51554 4.125
    endloop
  endfacet
  facet normal 0 -0.809018 0.587784
    outer loop
      vertex 6 6.51554 4.125
      vertex 0 6.3005 3.82902
      vertex 6 6.3005 3.82902
    endloop
  endfacet
  facet normal 0 0.978148 -0.207911
    outer loop
      vertex 6 3.25959 5.18292
      vertex 0 3.33565 5.54078
      vertex 6 3.33565 5.54078
    endloop
  endfacet
  facet normal 0 0.978148 -0.207911
    outer loop
      vertex 0 3.33565 5.54078
      vertex 6 3.25959 5.18292
      vertex 0 3.25959 5.18292
    endloop
  endfacet
  facet normal 0 0.5 -0.866025
    outer loop
      vertex 0 3.97138 6.41578
      vertex 6 4.28821 6.5987
      vertex 6 3.97138 6.41578
    endloop
  endfacet
  facet normal 0 0.5 -0.866025
    outer loop
      vertex 6 4.28821 6.5987
      vertex 0 3.97138 6.41578
      vertex 0 4.28821 6.5987
    endloop
  endfacet
  facet normal 0 0.309016 -0.951057
    outer loop
      vertex 0 4.28821 6.5987
      vertex 6 4.63615 6.71176
      vertex 6 4.28821 6.5987
    endloop
  endfacet
  facet normal 0 0.309016 -0.951057
    outer loop
      vertex 6 4.63615 6.71176
      vertex 0 4.28821 6.5987
      vertex 0 4.63615 6.71176
    endloop
  endfacet
  facet normal 0 0.10453 -0.994522
    outer loop
      vertex 0 4.63615 6.71176
      vertex 6 5 6.75
      vertex 6 4.63615 6.71176
    endloop
  endfacet
  facet normal 0 0.10453 -0.994522
    outer loop
      vertex 6 5 6.75
      vertex 0 4.63615 6.71176
      vertex 0 5 6.75
    endloop
  endfacet
  facet normal 0 0.913546 -0.406737
    outer loop
      vertex 6 3.33565 5.54078
      vertex 0 3.48446 5.875
      vertex 6 3.48446 5.875
    endloop
  endfacet
  facet normal 0 0.913546 -0.406737
    outer loop
      vertex 0 3.48446 5.875
      vertex 6 3.33565 5.54078
      vertex 0 3.33565 5.54078
    endloop
  endfacet
  facet normal 0 0.809017 -0.587786
    outer loop
      vertex 6 3.48446 5.875
      vertex 0 3.6995 6.17098
      vertex 6 3.6995 6.17098
    endloop
  endfacet
  facet normal 0 0.809017 -0.587786
    outer loop
      vertex 0 3.6995 6.17098
      vertex 6 3.48446 5.875
      vertex 0 3.48446 5.875
    endloop
  endfacet
  facet normal 0 -0.499998 0.866026
    outer loop
      vertex 0 56.0286 3.58422
      vertex 6 55.7118 3.40129
      vertex 6 56.0286 3.58422
    endloop
  endfacet
  facet normal 0 -0.499998 0.866026
    outer loop
      vertex 6 55.7118 3.40129
      vertex 0 56.0286 3.58422
      vertex 0 55.7118 3.40129
    endloop
  endfacet
  facet normal 0 -0.104528 0.994522
    outer loop
      vertex 0 55.3638 3.28824
      vertex 6 55 3.25
      vertex 6 55.3638 3.28824
    endloop
  endfacet
  facet normal 0 -0.104528 0.994522
    outer loop
      vertex 6 55 3.25
      vertex 0 55.3638 3.28824
      vertex 0 55 3.25
    endloop
  endfacet
  facet normal 0 -0.10453 -0.994522
    outer loop
      vertex 0 55 6.75
      vertex 6 55.3638 6.71176
      vertex 6 55 6.75
    endloop
  endfacet
  facet normal -0 -0.10453 -0.994522
    outer loop
      vertex 6 55.3638 6.71176
      vertex 0 55 6.75
      vertex 0 55.3638 6.71176
    endloop
  endfacet
  facet normal 0 1 -0
    outer loop
      vertex 6 53.2596 4.81707
      vertex 0 53.2596 5.18292
      vertex 6 53.2596 5.18292
    endloop
  endfacet
  facet normal 0 1 0
    outer loop
      vertex 0 53.2596 5.18292
      vertex 6 53.2596 4.81707
      vertex 0 53.2596 4.81707
    endloop
  endfacet
  facet normal 0 -0.809016 -0.587787
    outer loop
      vertex 0 56.5155 5.875
      vertex 6 56.3005 6.17098
      vertex 0 56.3005 6.17098
    endloop
  endfacet
  facet normal 0 -0.809016 -0.587787
    outer loop
      vertex 6 56.3005 6.17098
      vertex 0 56.5155 5.875
      vertex 6 56.5155 5.875
    endloop
  endfacet
  facet normal 0 -0.913546 -0.406734
    outer loop
      vertex 0 56.6643 5.54078
      vertex 6 56.5155 5.875
      vertex 0 56.5155 5.875
    endloop
  endfacet
  facet normal 0 -0.913546 -0.406734
    outer loop
      vertex 6 56.5155 5.875
      vertex 0 56.6643 5.54078
      vertex 6 56.6643 5.54078
    endloop
  endfacet
  facet normal -0 0.309017 0.951057
    outer loop
      vertex 0 54.6362 3.28824
      vertex 6 54.2882 3.40129
      vertex 6 54.6362 3.28824
    endloop
  endfacet
  facet normal 0 0.309017 0.951057
    outer loop
      vertex 6 54.2882 3.40129
      vertex 0 54.6362 3.28824
      vertex 0 54.2882 3.40129
    endloop
  endfacet
  facet normal -0 0.104528 0.994522
    outer loop
      vertex 0 55 3.25
      vertex 6 54.6362 3.28824
      vertex 6 55 3.25
    endloop
  endfacet
  facet normal 0 0.104528 0.994522
    outer loop
      vertex 6 54.6362 3.28824
      vertex 0 55 3.25
      vertex 0 54.6362 3.28824
    endloop
  endfacet
  facet normal -0 0.499998 0.866026
    outer loop
      vertex 0 54.2882 3.40129
      vertex 6 53.9714 3.58422
      vertex 6 54.2882 3.40129
    endloop
  endfacet
  facet normal 0 0.499998 0.866026
    outer loop
      vertex 6 53.9714 3.58422
      vertex 0 54.2882 3.40129
      vertex 0 53.9714 3.58422
    endloop
  endfacet
  facet normal 0 -0.309017 0.951057
    outer loop
      vertex 0 55.7118 3.40129
      vertex 6 55.3638 3.28824
      vertex 6 55.7118 3.40129
    endloop
  endfacet
  facet normal 0 -0.309017 0.951057
    outer loop
      vertex 6 55.3638 3.28824
      vertex 0 55.7118 3.40129
      vertex 0 55.3638 3.28824
    endloop
  endfacet
  facet normal 0 -0.499998 -0.866026
    outer loop
      vertex 0 55.7118 6.5987
      vertex 6 56.0286 6.41578
      vertex 6 55.7118 6.5987
    endloop
  endfacet
  facet normal -0 -0.499998 -0.866026
    outer loop
      vertex 6 56.0286 6.41578
      vertex 0 55.7118 6.5987
      vertex 0 56.0286 6.41578
    endloop
  endfacet
  facet normal 0 -0.669132 -0.743143
    outer loop
      vertex 0 56.0286 6.41578
      vertex 6 56.3005 6.17098
      vertex 6 56.0286 6.41578
    endloop
  endfacet
  facet normal -0 -0.669132 -0.743143
    outer loop
      vertex 6 56.3005 6.17098
      vertex 0 56.0286 6.41578
      vertex 0 56.3005 6.17098
    endloop
  endfacet
  facet normal 0 -0.309017 -0.951057
    outer loop
      vertex 0 55.3638 6.71176
      vertex 6 55.7118 6.5987
      vertex 6 55.3638 6.71176
    endloop
  endfacet
  facet normal -0 -0.309017 -0.951057
    outer loop
      vertex 6 55.7118 6.5987
      vertex 0 55.3638 6.71176
      vertex 0 55.7118 6.5987
    endloop
  endfacet
  facet normal 0 -0.978147 -0.207913
    outer loop
      vertex 0 56.7404 5.18292
      vertex 6 56.6643 5.54078
      vertex 0 56.6643 5.54078
    endloop
  endfacet
  facet normal 0 -0.978147 -0.207913
    outer loop
      vertex 6 56.6643 5.54078
      vertex 0 56.7404 5.18292
      vertex 6 56.7404 5.18292
    endloop
  endfacet
  facet normal 0 0.978147 0.207913
    outer loop
      vertex 6 53.3357 4.45922
      vertex 0 53.2596 4.81707
      vertex 6 53.2596 4.81707
    endloop
  endfacet
  facet normal 0 0.978147 0.207913
    outer loop
      vertex 0 53.2596 4.81707
      vertex 6 53.3357 4.45922
      vertex 0 53.3357 4.45922
    endloop
  endfacet
  facet normal 0 -0.978147 0.207913
    outer loop
      vertex 0 56.6643 4.45922
      vertex 6 56.7404 4.81707
      vertex 0 56.7404 4.81707
    endloop
  endfacet
  facet normal 0 -0.978147 0.207913
    outer loop
      vertex 6 56.7404 4.81707
      vertex 0 56.6643 4.45922
      vertex 6 56.6643 4.45922
    endloop
  endfacet
  facet normal 0 -1 0
    outer loop
      vertex 0 56.7404 4.81707
      vertex 6 56.7404 5.18292
      vertex 0 56.7404 5.18292
    endloop
  endfacet
  facet normal 0 -1 -0
    outer loop
      vertex 6 56.7404 5.18292
      vertex 0 56.7404 4.81707
      vertex 6 56.7404 4.81707
    endloop
  endfacet
  facet normal 0 0.809016 0.587786
    outer loop
      vertex 6 53.6995 3.82902
      vertex 0 53.4845 4.125
      vertex 6 53.4845 4.125
    endloop
  endfacet
  facet normal 0 0.809016 0.587786
    outer loop
      vertex 0 53.4845 4.125
      vertex 6 53.6995 3.82902
      vertex 0 53.6995 3.82902
    endloop
  endfacet
  facet normal -0 0.669132 0.743143
    outer loop
      vertex 0 53.9714 3.58422
      vertex 6 53.6995 3.82902
      vertex 6 53.9714 3.58422
    endloop
  endfacet
  facet normal 0 0.669132 0.743143
    outer loop
      vertex 6 53.6995 3.82902
      vertex 0 53.9714 3.58422
      vertex 0 53.6995 3.82902
    endloop
  endfacet
  facet normal 0 0.669132 -0.743143
    outer loop
      vertex 0 53.6995 6.17098
      vertex 6 53.9714 6.41578
      vertex 6 53.6995 6.17098
    endloop
  endfacet
  facet normal 0 0.669132 -0.743143
    outer loop
      vertex 6 53.9714 6.41578
      vertex 0 53.6995 6.17098
      vertex 0 53.9714 6.41578
    endloop
  endfacet
  facet normal -1 0 0
    outer loop
      vertex 6 56.6643 4.45922
      vertex 6 56.7404 5.18292
      vertex 6 56.7404 4.81707
    endloop
  endfacet
  facet normal -1 0 0
    outer loop
      vertex 6 56.6643 4.45922
      vertex 6 56.6643 5.54078
      vertex 6 56.7404 5.18292
    endloop
  endfacet
  facet normal -1 0 0
    outer loop
      vertex 6 56.5155 4.125
      vertex 6 56.6643 5.54078
      vertex 6 56.6643 4.45922
    endloop
  endfacet
  facet normal -1 0 0
    outer loop
      vertex 6 56.5155 4.125
      vertex 6 56.5155 5.875
      vertex 6 56.6643 5.54078
    endloop
  endfacet
  facet normal -1 0 0
    outer loop
      vertex 6 56.3005 3.82902
      vertex 6 56.5155 5.875
      vertex 6 56.5155 4.125
    endloop
  endfacet
  facet normal -1 0 0
    outer loop
      vertex 6 56.3005 3.82902
      vertex 6 56.3005 6.17098
      vertex 6 56.5155 5.875
    endloop
  endfacet
  facet normal -1 0 0
    outer loop
      vertex 6 56.0286 3.58422
      vertex 6 56.3005 6.17098
      vertex 6 56.3005 3.82902
    endloop
  endfacet
  facet normal -1 0 0
    outer loop
      vertex 6 56.0286 3.58422
      vertex 6 56.0286 6.41578
      vertex 6 56.3005 6.17098
    endloop
  endfacet
  facet normal -1 0 0
    outer loop
      vertex 6 55.7118 3.40129
      vertex 6 56.0286 6.41578
      vertex 6 56.0286 3.58422
    endloop
  endfacet
  facet normal -1 0 0
    outer loop
      vertex 6 55.7118 3.40129
      vertex 6 55.7118 6.5987
      vertex 6 56.0286 6.41578
    endloop
  endfacet
  facet normal -1 0 0
    outer loop
      vertex 6 55.3638 3.28824
      vertex 6 55.7118 6.5987
      vertex 6 55.7118 3.40129
    endloop
  endfacet
  facet normal -1 0 0
    outer loop
      vertex 6 55.3638 3.28824
      vertex 6 55.3638 6.71176
      vertex 6 55.7118 6.5987
    endloop
  endfacet
  facet normal -1 0 0
    outer loop
      vertex 6 55 3.25
      vertex 6 55.3638 6.71176
      vertex 6 55.3638 3.28824
    endloop
  endfacet
  facet normal -1 0 0
    outer loop
      vertex 6 55 3.25
      vertex 6 55 6.75
      vertex 6 55.3638 6.71176
    endloop
  endfacet
  facet normal -1 0 0
    outer loop
      vertex 6 54.6362 3.28824
      vertex 6 55 6.75
      vertex 6 55 3.25
    endloop
  endfacet
  facet normal -1 0 0
    outer loop
      vertex 6 54.6362 3.28824
      vertex 6 54.6362 6.71176
      vertex 6 55 6.75
    endloop
  endfacet
  facet normal -1 0 0
    outer loop
      vertex 6 54.2882 3.40129
      vertex 6 54.6362 6.71176
      vertex 6 54.6362 3.28824
    endloop
  endfacet
  facet normal -1 0 0
    outer loop
      vertex 6 54.2882 3.40129
      vertex 6 54.2882 6.5987
      vertex 6 54.6362 6.71176
    endloop
  endfacet
  facet normal -1 0 0
    outer loop
      vertex 6 53.9714 3.58422
      vertex 6 54.2882 6.5987
      vertex 6 54.2882 3.40129
    endloop
  endfacet
  facet normal -1 0 0
    outer loop
      vertex 6 53.9714 3.58422
      vertex 6 53.9714 6.41578
      vertex 6 54.2882 6.5987
    endloop
  endfacet
  facet normal -1 0 0
    outer loop
      vertex 6 53.6995 3.82902
      vertex 6 53.9714 6.41578
      vertex 6 53.9714 3.58422
    endloop
  endfacet
  facet normal -1 0 0
    outer loop
      vertex 6 53.6995 3.82902
      vertex 6 53.6995 6.17098
      vertex 6 53.9714 6.41578
    endloop
  endfacet
  facet normal -1 0 0
    outer loop
      vertex 6 53.4845 4.125
      vertex 6 53.6995 6.17098
      vertex 6 53.6995 3.82902
    endloop
  endfacet
  facet normal -1 0 0
    outer loop
      vertex 6 53.4845 4.125
      vertex 6 53.4845 5.875
      vertex 6 53.6995 6.17098
    endloop
  endfacet
  facet normal -1 0 0
    outer loop
      vertex 6 53.3357 4.45922
      vertex 6 53.4845 5.875
      vertex 6 53.4845 4.125
    endloop
  endfacet
  facet normal -1 0 0
    outer loop
      vertex 6 53.3357 4.45922
      vertex 6 53.3357 5.54078
      vertex 6 53.4845 5.875
    endloop
  endfacet
  facet normal -1 0 0
    outer loop
      vertex 6 53.2596 4.81707
      vertex 6 53.3357 5.54078
      vertex 6 53.3357 4.45922
    endloop
  endfacet
  facet normal -1 0 0
    outer loop
      vertex 6 53.3357 5.54078
      vertex 6 53.2596 4.81707
      vertex 6 53.2596 5.18292
    endloop
  endfacet
  facet normal 0 0.913546 0.406735
    outer loop
      vertex 6 53.4845 4.125
      vertex 0 53.3357 4.45922
      vertex 6 53.3357 4.45922
    endloop
  endfacet
  facet normal 0 0.913546 0.406735
    outer loop
      vertex 0 53.3357 4.45922
      vertex 6 53.4845 4.125
      vertex 0 53.4845 4.125
    endloop
  endfacet
  facet normal 0 -0.669132 0.743143
    outer loop
      vertex 0 56.3005 3.82902
      vertex 6 56.0286 3.58422
      vertex 6 56.3005 3.82902
    endloop
  endfacet
  facet normal 0 -0.669132 0.743143
    outer loop
      vertex 6 56.0286 3.58422
      vertex 0 56.3005 3.82902
      vertex 0 56.0286 3.58422
    endloop
  endfacet
  facet normal 0 -0.913546 0.406735
    outer loop
      vertex 0 56.5155 4.125
      vertex 6 56.6643 4.45922
      vertex 0 56.6643 4.45922
    endloop
  endfacet
  facet normal 0 -0.913546 0.406735
    outer loop
      vertex 6 56.6643 4.45922
      vertex 0 56.5155 4.125
      vertex 6 56.5155 4.125
    endloop
  endfacet
  facet normal 0 -0.809016 0.587786
    outer loop
      vertex 0 56.3005 3.82902
      vertex 6 56.5155 4.125
      vertex 0 56.5155 4.125
    endloop
  endfacet
  facet normal 0 -0.809016 0.587786
    outer loop
      vertex 6 56.5155 4.125
      vertex 0 56.3005 3.82902
      vertex 6 56.3005 3.82902
    endloop
  endfacet
  facet normal 0 0.978147 -0.207913
    outer loop
      vertex 6 53.2596 5.18292
      vertex 0 53.3357 5.54078
      vertex 6 53.3357 5.54078
    endloop
  endfacet
  facet normal 0 0.978147 -0.207913
    outer loop
      vertex 0 53.3357 5.54078
      vertex 6 53.2596 5.18292
      vertex 0 53.2596 5.18292
    endloop
  endfacet
  facet normal 0 0.499998 -0.866026
    outer loop
      vertex 0 53.9714 6.41578
      vertex 6 54.2882 6.5987
      vertex 6 53.9714 6.41578
    endloop
  endfacet
  facet normal 0 0.499998 -0.866026
    outer loop
      vertex 6 54.2882 6.5987
      vertex 0 53.9714 6.41578
      vertex 0 54.2882 6.5987
    endloop
  endfacet
  facet normal 0 0.309017 -0.951057
    outer loop
      vertex 0 54.2882 6.5987
      vertex 6 54.6362 6.71176
      vertex 6 54.2882 6.5987
    endloop
  endfacet
  facet normal 0 0.309017 -0.951057
    outer loop
      vertex 6 54.6362 6.71176
      vertex 0 54.2882 6.5987
      vertex 0 54.6362 6.71176
    endloop
  endfacet
  facet normal 0 0.10453 -0.994522
    outer loop
      vertex 0 54.6362 6.71176
      vertex 6 55 6.75
      vertex 6 54.6362 6.71176
    endloop
  endfacet
  facet normal 0 0.10453 -0.994522
    outer loop
      vertex 6 55 6.75
      vertex 0 54.6362 6.71176
      vertex 0 55 6.75
    endloop
  endfacet
  facet normal 0 0.913546 -0.406734
    outer loop
      vertex 6 53.3357 5.54078
      vertex 0 53.4845 5.875
      vertex 6 53.4845 5.875
    endloop
  endfacet
  facet normal 0 0.913546 -0.406734
    outer loop
      vertex 0 53.4845 5.875
      vertex 6 53.3357 5.54078
      vertex 0 53.3357 5.54078
    endloop
  endfacet
  facet normal 0 0.809016 -0.587787
    outer loop
      vertex 6 53.4845 5.875
      vertex 0 53.6995 6.17098
      vertex 6 53.6995 6.17098
    endloop
  endfacet
  facet normal 0 0.809016 -0.587787
    outer loop
      vertex 0 53.6995 6.17098
      vertex 6 53.4845 5.875
      vertex 0 53.4845 5.875
    endloop
  endfacet
endsolid OpenSCAD_Model
