solid OpenSCAD_Model
  facet normal 0 0 -1
    outer loop
      vertex 0 -10 0
      vertex 10 100 0
      vertex 10 -10 0
    endloop
  endfacet
  facet normal -0 0 -1
    outer loop
      vertex 10 100 0
      vertex 0 -10 0
      vertex 0 100 0
    endloop
  endfacet
  facet normal 1 0 0
    outer loop
      vertex 10 10 60
      vertex 10 0 55
      vertex 10 10 55
    endloop
  endfacet
  facet normal 1 0 0
    outer loop
      vertex 10 -10 60
      vertex 10 0 45
      vertex 10 0 55
    endloop
  endfacet
  facet normal 1 0 0
    outer loop
      vertex 10 0 45
      vertex 10 -10 60
      vertex 10 0 40
    endloop
  endfacet
  facet normal 1 0 0
    outer loop
      vertex 10 -10 0
      vertex 10 0 40
      vertex 10 -10 60
    endloop
  endfacet
  facet normal 1 -0 0
    outer loop
      vertex 10 -10 60
      vertex 10 0 55
      vertex 10 10 60
    endloop
  endfacet
  facet normal 1 -0 0
    outer loop
      vertex 10 0 45
      vertex 10 10 40
      vertex 10 10 45
    endloop
  endfacet
  facet normal 1 0 0
    outer loop
      vertex 10 10 40
      vertex 10 0 45
      vertex 10 0 40
    endloop
  endfacet
  facet normal 1 -0 0
    outer loop
      vertex 10 80 45
      vertex 10 90 40
      vertex 10 90 45
    endloop
  endfacet
  facet normal 1 0 0
    outer loop
      vertex 10 90 40
      vertex 10 80 45
      vertex 10 80 40
    endloop
  endfacet
  facet normal 1 0 0
    outer loop
      vertex 10 90 45
      vertex 10 100 60
      vertex 10 90 55
    endloop
  endfacet
  facet normal 1 -0 0
    outer loop
      vertex 10 80 60
      vertex 10 90 55
      vertex 10 100 60
    endloop
  endfacet
  facet normal 1 0 0
    outer loop
      vertex 10 90 55
      vertex 10 80 60
      vertex 10 80 55
    endloop
  endfacet
  facet normal 1 0 0
    outer loop
      vertex 10 90 40
      vertex 10 100 60
      vertex 10 90 45
    endloop
  endfacet
  facet normal 1 0 0
    outer loop
      vertex 10 100 60
      vertex 10 90 40
      vertex 10 100 0
    endloop
  endfacet
  facet normal 1 -0 0
    outer loop
      vertex 10 90 10
      vertex 10 100 0
      vertex 10 90 40
    endloop
  endfacet
  facet normal 1 0 0
    outer loop
      vertex 10 71.989 4.79094
      vertex 10 90 10
      vertex 10 71.989 5.20906
    endloop
  endfacet
  facet normal 1 0 0
    outer loop
      vertex 10 71.9021 4.38197
      vertex 10 90 10
      vertex 10 71.989 4.79094
    endloop
  endfacet
  facet normal 1 0 0
    outer loop
      vertex 10 71.732 4
      vertex 10 90 10
      vertex 10 71.9021 4.38197
    endloop
  endfacet
  facet normal 1 0 0
    outer loop
      vertex 10 90 10
      vertex 10 71.732 4
      vertex 10 100 0
    endloop
  endfacet
  facet normal 1 -0 0
    outer loop
      vertex 10 71.4863 3.66174
      vertex 10 100 0
      vertex 10 71.732 4
    endloop
  endfacet
  facet normal 1 -0 0
    outer loop
      vertex 10 71.1756 3.38197
      vertex 10 100 0
      vertex 10 71.4863 3.66174
    endloop
  endfacet
  facet normal 1 -0 0
    outer loop
      vertex 10 70.8135 3.17291
      vertex 10 100 0
      vertex 10 71.1756 3.38197
    endloop
  endfacet
  facet normal 1 -0 0
    outer loop
      vertex 10 70.4158 3.0437
      vertex 10 100 0
      vertex 10 70.8135 3.17291
    endloop
  endfacet
  facet normal 1 -0 0
    outer loop
      vertex 10 70 3
      vertex 10 100 0
      vertex 10 70.4158 3.0437
    endloop
  endfacet
  facet normal 1 0 0
    outer loop
      vertex 10 21.989 4.79094
      vertex 10 68.011 4.79094
      vertex 10 21.989 5.20906
    endloop
  endfacet
  facet normal 1 0 0
    outer loop
      vertex 10 68.011 4.79094
      vertex 10 21.989 4.79094
      vertex 10 68.0979 4.38197
    endloop
  endfacet
  facet normal 1 0 0
    outer loop
      vertex 10 21.9021 4.38197
      vertex 10 68.0979 4.38197
      vertex 10 21.989 4.79094
    endloop
  endfacet
  facet normal 1 0 0
    outer loop
      vertex 10 68.0979 4.38197
      vertex 10 21.9021 4.38197
      vertex 10 68.268 4
    endloop
  endfacet
  facet normal 1 0 0
    outer loop
      vertex 10 21.732 4
      vertex 10 68.268 4
      vertex 10 21.9021 4.38197
    endloop
  endfacet
  facet normal 1 0 0
    outer loop
      vertex 10 68.268 4
      vertex 10 21.732 4
      vertex 10 68.5137 3.66174
    endloop
  endfacet
  facet normal 1 0 0
    outer loop
      vertex 10 21.4863 3.66174
      vertex 10 68.5137 3.66174
      vertex 10 21.732 4
    endloop
  endfacet
  facet normal 1 0 0
    outer loop
      vertex 10 68.5137 3.66174
      vertex 10 21.4863 3.66174
      vertex 10 68.8244 3.38197
    endloop
  endfacet
  facet normal 1 0 0
    outer loop
      vertex 10 21.1756 3.38197
      vertex 10 68.8244 3.38197
      vertex 10 21.4863 3.66174
    endloop
  endfacet
  facet normal 1 0 0
    outer loop
      vertex 10 68.8244 3.38197
      vertex 10 21.1756 3.38197
      vertex 10 69.1865 3.17291
    endloop
  endfacet
  facet normal 1 0 0
    outer loop
      vertex 10 20.8135 3.17291
      vertex 10 69.1865 3.17291
      vertex 10 21.1756 3.38197
    endloop
  endfacet
  facet normal 1 0 0
    outer loop
      vertex 10 69.1865 3.17291
      vertex 10 20.8135 3.17291
      vertex 10 69.5842 3.0437
    endloop
  endfacet
  facet normal 1 0 0
    outer loop
      vertex 10 20.4158 3.0437
      vertex 10 69.5842 3.0437
      vertex 10 20.8135 3.17291
    endloop
  endfacet
  facet normal 1 0 0
    outer loop
      vertex 10 69.5842 3.0437
      vertex 10 20.4158 3.0437
      vertex 10 70 3
    endloop
  endfacet
  facet normal 1 0 0
    outer loop
      vertex 10 20 3
      vertex 10 70 3
      vertex 10 20.4158 3.0437
    endloop
  endfacet
  facet normal 1 0 0
    outer loop
      vertex 10 70 3
      vertex 10 20 3
      vertex 10 100 0
    endloop
  endfacet
  facet normal 1 0 0
    outer loop
      vertex 10 0 10
      vertex 10 18.0979 4.38197
      vertex 10 18.011 4.79094
    endloop
  endfacet
  facet normal 1 0 0
    outer loop
      vertex 10 0 10
      vertex 10 18.2679 4
      vertex 10 18.0979 4.38197
    endloop
  endfacet
  facet normal 1 0 0
    outer loop
      vertex 10 -10 0
      vertex 10 18.2679 4
      vertex 10 0 10
    endloop
  endfacet
  facet normal 1 0 0
    outer loop
      vertex 10 18.2679 4
      vertex 10 -10 0
      vertex 10 18.5137 3.66174
    endloop
  endfacet
  facet normal 1 0 0
    outer loop
      vertex 10 18.5137 3.66174
      vertex 10 -10 0
      vertex 10 18.8244 3.38197
    endloop
  endfacet
  facet normal 1 0 0
    outer loop
      vertex 10 20 3
      vertex 10 -10 0
      vertex 10 100 0
    endloop
  endfacet
  facet normal 1 0 0
    outer loop
      vertex 10 19.5842 3.0437
      vertex 10 -10 0
      vertex 10 20 3
    endloop
  endfacet
  facet normal 1 0 0
    outer loop
      vertex 10 19.1865 3.17291
      vertex 10 -10 0
      vertex 10 19.5842 3.0437
    endloop
  endfacet
  facet normal 1 0 0
    outer loop
      vertex 10 18.8244 3.38197
      vertex 10 -10 0
      vertex 10 19.1865 3.17291
    endloop
  endfacet
  facet normal 1 0 0
    outer loop
      vertex 10 0 40
      vertex 10 -10 0
      vertex 10 0 10
    endloop
  endfacet
  facet normal 1 0 0
    outer loop
      vertex 10 90 10
      vertex 10 71.9021 5.61803
      vertex 10 71.989 5.20906
    endloop
  endfacet
  facet normal 1 0 0
    outer loop
      vertex 10 90 10
      vertex 10 71.732 6
      vertex 10 71.9021 5.61803
    endloop
  endfacet
  facet normal 1 0 0
    outer loop
      vertex 10 90 10
      vertex 10 71.4863 6.33826
      vertex 10 71.732 6
    endloop
  endfacet
  facet normal 1 0 0
    outer loop
      vertex 10 90 10
      vertex 10 71.1756 6.61803
      vertex 10 71.4863 6.33826
    endloop
  endfacet
  facet normal 1 0 0
    outer loop
      vertex 10 90 10
      vertex 10 70.8135 6.82709
      vertex 10 71.1756 6.61803
    endloop
  endfacet
  facet normal 1 0 0
    outer loop
      vertex 10 90 10
      vertex 10 70.4158 6.9563
      vertex 10 70.8135 6.82709
    endloop
  endfacet
  facet normal 1 0 0
    outer loop
      vertex 10 90 10
      vertex 10 70 7
      vertex 10 70.4158 6.9563
    endloop
  endfacet
  facet normal 1 0 0
    outer loop
      vertex 10 90 10
      vertex 10 69.5842 6.9563
      vertex 10 70 7
    endloop
  endfacet
  facet normal 1 0 0
    outer loop
      vertex 10 68.011 5.20906
      vertex 10 21.989 5.20906
      vertex 10 68.011 4.79094
    endloop
  endfacet
  facet normal 1 0 0
    outer loop
      vertex 10 68.0979 5.61803
      vertex 10 21.989 5.20906
      vertex 10 68.011 5.20906
    endloop
  endfacet
  facet normal 1 0 0
    outer loop
      vertex 10 21.9021 5.61803
      vertex 10 68.0979 5.61803
      vertex 10 68.268 6
    endloop
  endfacet
  facet normal 1 0 0
    outer loop
      vertex 10 21.732 6
      vertex 10 68.268 6
      vertex 10 68.5137 6.33826
    endloop
  endfacet
  facet normal 1 0 0
    outer loop
      vertex 10 21.4863 6.33826
      vertex 10 68.5137 6.33826
      vertex 10 68.8244 6.61803
    endloop
  endfacet
  facet normal 1 0 0
    outer loop
      vertex 10 21.1756 6.61803
      vertex 10 68.8244 6.61803
      vertex 10 69.1865 6.82709
    endloop
  endfacet
  facet normal 1 0 0
    outer loop
      vertex 10 20.8135 6.82709
      vertex 10 69.1865 6.82709
      vertex 10 69.5842 6.9563
    endloop
  endfacet
  facet normal 1 0 0
    outer loop
      vertex 10 20.4158 6.9563
      vertex 10 69.5842 6.9563
      vertex 10 90 10
    endloop
  endfacet
  facet normal 1 0 0
    outer loop
      vertex 10 68.0979 5.61803
      vertex 10 21.9021 5.61803
      vertex 10 21.989 5.20906
    endloop
  endfacet
  facet normal 1 0 0
    outer loop
      vertex 10 68.268 6
      vertex 10 21.732 6
      vertex 10 21.9021 5.61803
    endloop
  endfacet
  facet normal 1 0 0
    outer loop
      vertex 10 68.5137 6.33826
      vertex 10 21.4863 6.33826
      vertex 10 21.732 6
    endloop
  endfacet
  facet normal 1 0 0
    outer loop
      vertex 10 68.8244 6.61803
      vertex 10 21.1756 6.61803
      vertex 10 21.4863 6.33826
    endloop
  endfacet
  facet normal 1 0 0
    outer loop
      vertex 10 69.1865 6.82709
      vertex 10 20.8135 6.82709
      vertex 10 21.1756 6.61803
    endloop
  endfacet
  facet normal 1 0 0
    outer loop
      vertex 10 69.5842 6.9563
      vertex 10 20.4158 6.9563
      vertex 10 20.8135 6.82709
    endloop
  endfacet
  facet normal 1 0 0
    outer loop
      vertex 10 90 10
      vertex 10 20 7
      vertex 10 20.4158 6.9563
    endloop
  endfacet
  facet normal 1 0 0
    outer loop
      vertex 10 18.011 5.20906
      vertex 10 0 10
      vertex 10 18.011 4.79094
    endloop
  endfacet
  facet normal 1 0 0
    outer loop
      vertex 10 18.0979 5.61803
      vertex 10 0 10
      vertex 10 18.011 5.20906
    endloop
  endfacet
  facet normal 1 0 0
    outer loop
      vertex 10 18.2679 6
      vertex 10 0 10
      vertex 10 18.0979 5.61803
    endloop
  endfacet
  facet normal 1 0 0
    outer loop
      vertex 10 18.5137 6.33826
      vertex 10 0 10
      vertex 10 18.2679 6
    endloop
  endfacet
  facet normal 1 0 0
    outer loop
      vertex 10 18.8244 6.61803
      vertex 10 0 10
      vertex 10 18.5137 6.33826
    endloop
  endfacet
  facet normal 1 0 0
    outer loop
      vertex 10 19.1865 6.82709
      vertex 10 0 10
      vertex 10 18.8244 6.61803
    endloop
  endfacet
  facet normal 1 0 0
    outer loop
      vertex 10 19.5842 6.9563
      vertex 10 0 10
      vertex 10 19.1865 6.82709
    endloop
  endfacet
  facet normal 1 0 0
    outer loop
      vertex 10 20 7
      vertex 10 0 10
      vertex 10 19.5842 6.9563
    endloop
  endfacet
  facet normal 1 -0 0
    outer loop
      vertex 10 0 10
      vertex 10 20 7
      vertex 10 90 10
    endloop
  endfacet
  facet normal -1 0 0
    outer loop
      vertex 0 80 40
      vertex 0 90 45
      vertex 0 90 40
    endloop
  endfacet
  facet normal -1 -0 0
    outer loop
      vertex 0 90 45
      vertex 0 80 40
      vertex 0 80 45
    endloop
  endfacet
  facet normal -1 0 0
    outer loop
      vertex 0 90 40
      vertex 0 100 0
      vertex 0 90 10
    endloop
  endfacet
  facet normal -1 0 0
    outer loop
      vertex 0 71.732 4
      vertex 0 90 10
      vertex 0 100 0
    endloop
  endfacet
  facet normal -1 0 0
    outer loop
      vertex 0 90 10
      vertex 0 71.9021 4.38197
      vertex 0 71.989 4.79094
    endloop
  endfacet
  facet normal -1 0 0
    outer loop
      vertex 0 90 10
      vertex 0 71.732 4
      vertex 0 71.9021 4.38197
    endloop
  endfacet
  facet normal -1 0 0
    outer loop
      vertex 0 100 0
      vertex 0 71.4863 3.66174
      vertex 0 71.732 4
    endloop
  endfacet
  facet normal -1 0 0
    outer loop
      vertex 0 100 0
      vertex 0 71.1756 3.38197
      vertex 0 71.4863 3.66174
    endloop
  endfacet
  facet normal -1 0 0
    outer loop
      vertex 0 100 0
      vertex 0 70.8135 3.17291
      vertex 0 71.1756 3.38197
    endloop
  endfacet
  facet normal -1 0 0
    outer loop
      vertex 0 100 0
      vertex 0 70.4158 3.0437
      vertex 0 70.8135 3.17291
    endloop
  endfacet
  facet normal -1 0 0
    outer loop
      vertex 0 100 0
      vertex 0 70 3
      vertex 0 70.4158 3.0437
    endloop
  endfacet
  facet normal -1 0 0
    outer loop
      vertex 0 68.011 4.79094
      vertex 0 21.989 4.79094
      vertex 0 68.011 5.20906
    endloop
  endfacet
  facet normal -1 0 0
    outer loop
      vertex 0 68.0979 4.38197
      vertex 0 21.989 4.79094
      vertex 0 68.011 4.79094
    endloop
  endfacet
  facet normal -1 0 0
    outer loop
      vertex 0 21.9021 4.38197
      vertex 0 68.0979 4.38197
      vertex 0 68.268 4
    endloop
  endfacet
  facet normal -1 0 0
    outer loop
      vertex 0 21.732 4
      vertex 0 68.268 4
      vertex 0 68.5137 3.66174
    endloop
  endfacet
  facet normal -1 0 0
    outer loop
      vertex 0 21.4863 3.66174
      vertex 0 68.5137 3.66174
      vertex 0 68.8244 3.38197
    endloop
  endfacet
  facet normal -1 0 0
    outer loop
      vertex 0 21.1756 3.38197
      vertex 0 68.8244 3.38197
      vertex 0 69.1865 3.17291
    endloop
  endfacet
  facet normal -1 0 0
    outer loop
      vertex 0 20.8135 3.17291
      vertex 0 69.1865 3.17291
      vertex 0 69.5842 3.0437
    endloop
  endfacet
  facet normal -1 0 0
    outer loop
      vertex 0 20.4158 3.0437
      vertex 0 69.5842 3.0437
      vertex 0 70 3
    endloop
  endfacet
  facet normal -1 0 0
    outer loop
      vertex 0 20 3
      vertex 0 70 3
      vertex 0 100 0
    endloop
  endfacet
  facet normal -1 0 0
    outer loop
      vertex 0 68.0979 4.38197
      vertex 0 21.9021 4.38197
      vertex 0 21.989 4.79094
    endloop
  endfacet
  facet normal -1 0 0
    outer loop
      vertex 0 68.268 4
      vertex 0 21.732 4
      vertex 0 21.9021 4.38197
    endloop
  endfacet
  facet normal -1 0 0
    outer loop
      vertex 0 68.5137 3.66174
      vertex 0 21.4863 3.66174
      vertex 0 21.732 4
    endloop
  endfacet
  facet normal -1 0 0
    outer loop
      vertex 0 68.8244 3.38197
      vertex 0 21.1756 3.38197
      vertex 0 21.4863 3.66174
    endloop
  endfacet
  facet normal -1 0 0
    outer loop
      vertex 0 69.1865 3.17291
      vertex 0 20.8135 3.17291
      vertex 0 21.1756 3.38197
    endloop
  endfacet
  facet normal -1 0 0
    outer loop
      vertex 0 69.5842 3.0437
      vertex 0 20.4158 3.0437
      vertex 0 20.8135 3.17291
    endloop
  endfacet
  facet normal -1 0 0
    outer loop
      vertex 0 70 3
      vertex 0 20 3
      vertex 0 20.4158 3.0437
    endloop
  endfacet
  facet normal -1 0 0
    outer loop
      vertex 0 18.011 4.79094
      vertex 0 0 10
      vertex 0 18.011 5.20906
    endloop
  endfacet
  facet normal -1 0 0
    outer loop
      vertex 0 18.0979 4.38197
      vertex 0 0 10
      vertex 0 18.011 4.79094
    endloop
  endfacet
  facet normal -1 0 0
    outer loop
      vertex 0 18.2679 4
      vertex 0 0 10
      vertex 0 18.0979 4.38197
    endloop
  endfacet
  facet normal -1 0 0
    outer loop
      vertex 0 -10 0
      vertex 0 18.2679 4
      vertex 0 18.5137 3.66174
    endloop
  endfacet
  facet normal -1 0 0
    outer loop
      vertex 0 -10 0
      vertex 0 18.5137 3.66174
      vertex 0 18.8244 3.38197
    endloop
  endfacet
  facet normal -1 0 0
    outer loop
      vertex 0 -10 0
      vertex 0 18.8244 3.38197
      vertex 0 19.1865 3.17291
    endloop
  endfacet
  facet normal -1 0 0
    outer loop
      vertex 0 -10 0
      vertex 0 0 40
      vertex 0 0 10
    endloop
  endfacet
  facet normal -1 0 0
    outer loop
      vertex 0 -10 60
      vertex 0 0 40
      vertex 0 -10 0
    endloop
  endfacet
  facet normal -1 0 0
    outer loop
      vertex 0 0 40
      vertex 0 -10 60
      vertex 0 0 45
    endloop
  endfacet
  facet normal -1 -0 0
    outer loop
      vertex 0 18.2679 4
      vertex 0 -10 0
      vertex 0 0 10
    endloop
  endfacet
  facet normal -1 -0 0
    outer loop
      vertex 0 19.5842 3.0437
      vertex 0 -10 0
      vertex 0 19.1865 3.17291
    endloop
  endfacet
  facet normal -1 -0 0
    outer loop
      vertex 0 20 3
      vertex 0 -10 0
      vertex 0 19.5842 3.0437
    endloop
  endfacet
  facet normal -1 0 0
    outer loop
      vertex 0 -10 0
      vertex 0 20 3
      vertex 0 100 0
    endloop
  endfacet
  facet normal -1 0 0
    outer loop
      vertex 0 100 0
      vertex 0 90 40
      vertex 0 100 60
    endloop
  endfacet
  facet normal -1 0 0
    outer loop
      vertex 0 90 45
      vertex 0 100 60
      vertex 0 90 40
    endloop
  endfacet
  facet normal -1 0 0
    outer loop
      vertex 0 90 55
      vertex 0 100 60
      vertex 0 90 45
    endloop
  endfacet
  facet normal -1 0 0
    outer loop
      vertex 0 80 60
      vertex 0 90 55
      vertex 0 80 55
    endloop
  endfacet
  facet normal -1 0 0
    outer loop
      vertex 0 90 55
      vertex 0 80 60
      vertex 0 100 60
    endloop
  endfacet
  facet normal -1 0 0
    outer loop
      vertex 0 71.989 5.20906
      vertex 0 90 10
      vertex 0 71.989 4.79094
    endloop
  endfacet
  facet normal -1 0 0
    outer loop
      vertex 0 71.9021 5.61803
      vertex 0 90 10
      vertex 0 71.989 5.20906
    endloop
  endfacet
  facet normal -1 0 0
    outer loop
      vertex 0 71.732 6
      vertex 0 90 10
      vertex 0 71.9021 5.61803
    endloop
  endfacet
  facet normal -1 0 0
    outer loop
      vertex 0 71.4863 6.33826
      vertex 0 90 10
      vertex 0 71.732 6
    endloop
  endfacet
  facet normal -1 0 0
    outer loop
      vertex 0 71.1756 6.61803
      vertex 0 90 10
      vertex 0 71.4863 6.33826
    endloop
  endfacet
  facet normal -1 0 0
    outer loop
      vertex 0 70.8135 6.82709
      vertex 0 90 10
      vertex 0 71.1756 6.61803
    endloop
  endfacet
  facet normal -1 0 0
    outer loop
      vertex 0 70.4158 6.9563
      vertex 0 90 10
      vertex 0 70.8135 6.82709
    endloop
  endfacet
  facet normal -1 0 0
    outer loop
      vertex 0 70 7
      vertex 0 90 10
      vertex 0 70.4158 6.9563
    endloop
  endfacet
  facet normal -1 0 0
    outer loop
      vertex 0 69.5842 6.9563
      vertex 0 90 10
      vertex 0 70 7
    endloop
  endfacet
  facet normal -1 0 0
    outer loop
      vertex 0 21.989 5.20906
      vertex 0 68.011 5.20906
      vertex 0 21.989 4.79094
    endloop
  endfacet
  facet normal -1 0 0
    outer loop
      vertex 0 68.011 5.20906
      vertex 0 21.989 5.20906
      vertex 0 68.0979 5.61803
    endloop
  endfacet
  facet normal -1 0 0
    outer loop
      vertex 0 21.9021 5.61803
      vertex 0 68.0979 5.61803
      vertex 0 21.989 5.20906
    endloop
  endfacet
  facet normal -1 0 0
    outer loop
      vertex 0 68.0979 5.61803
      vertex 0 21.9021 5.61803
      vertex 0 68.268 6
    endloop
  endfacet
  facet normal -1 0 0
    outer loop
      vertex 0 21.732 6
      vertex 0 68.268 6
      vertex 0 21.9021 5.61803
    endloop
  endfacet
  facet normal -1 0 0
    outer loop
      vertex 0 68.268 6
      vertex 0 21.732 6
      vertex 0 68.5137 6.33826
    endloop
  endfacet
  facet normal -1 0 0
    outer loop
      vertex 0 21.4863 6.33826
      vertex 0 68.5137 6.33826
      vertex 0 21.732 6
    endloop
  endfacet
  facet normal -1 0 0
    outer loop
      vertex 0 68.5137 6.33826
      vertex 0 21.4863 6.33826
      vertex 0 68.8244 6.61803
    endloop
  endfacet
  facet normal -1 0 0
    outer loop
      vertex 0 21.1756 6.61803
      vertex 0 68.8244 6.61803
      vertex 0 21.4863 6.33826
    endloop
  endfacet
  facet normal -1 0 0
    outer loop
      vertex 0 68.8244 6.61803
      vertex 0 21.1756 6.61803
      vertex 0 69.1865 6.82709
    endloop
  endfacet
  facet normal -1 0 0
    outer loop
      vertex 0 20.8135 6.82709
      vertex 0 69.1865 6.82709
      vertex 0 21.1756 6.61803
    endloop
  endfacet
  facet normal -1 0 0
    outer loop
      vertex 0 69.1865 6.82709
      vertex 0 20.8135 6.82709
      vertex 0 69.5842 6.9563
    endloop
  endfacet
  facet normal -1 0 0
    outer loop
      vertex 0 20.4158 6.9563
      vertex 0 69.5842 6.9563
      vertex 0 20.8135 6.82709
    endloop
  endfacet
  facet normal -1 0 0
    outer loop
      vertex 0 69.5842 6.9563
      vertex 0 20.4158 6.9563
      vertex 0 90 10
    endloop
  endfacet
  facet normal -1 0 0
    outer loop
      vertex 0 20 7
      vertex 0 90 10
      vertex 0 20.4158 6.9563
    endloop
  endfacet
  facet normal -1 0 0
    outer loop
      vertex 0 20 7
      vertex 0 0 10
      vertex 0 90 10
    endloop
  endfacet
  facet normal -1 0 0
    outer loop
      vertex 0 19.5842 6.9563
      vertex 0 0 10
      vertex 0 20 7
    endloop
  endfacet
  facet normal -1 0 0
    outer loop
      vertex 0 19.1865 6.82709
      vertex 0 0 10
      vertex 0 19.5842 6.9563
    endloop
  endfacet
  facet normal -1 0 0
    outer loop
      vertex 0 18.8244 6.61803
      vertex 0 0 10
      vertex 0 19.1865 6.82709
    endloop
  endfacet
  facet normal -1 0 0
    outer loop
      vertex 0 18.5137 6.33826
      vertex 0 0 10
      vertex 0 18.8244 6.61803
    endloop
  endfacet
  facet normal -1 0 0
    outer loop
      vertex 0 18.2679 6
      vertex 0 0 10
      vertex 0 18.5137 6.33826
    endloop
  endfacet
  facet normal -1 0 0
    outer loop
      vertex 0 18.0979 5.61803
      vertex 0 0 10
      vertex 0 18.2679 6
    endloop
  endfacet
  facet normal -1 0 0
    outer loop
      vertex 0 0 10
      vertex 0 18.0979 5.61803
      vertex 0 18.011 5.20906
    endloop
  endfacet
  facet normal -1 0 0
    outer loop
      vertex 0 0 40
      vertex 0 10 45
      vertex 0 10 40
    endloop
  endfacet
  facet normal -1 -0 0
    outer loop
      vertex 0 10 45
      vertex 0 0 40
      vertex 0 0 45
    endloop
  endfacet
  facet normal -1 0 0
    outer loop
      vertex 0 0 55
      vertex 0 10 60
      vertex 0 10 55
    endloop
  endfacet
  facet normal -1 0 0
    outer loop
      vertex 0 0 55
      vertex 0 -10 60
      vertex 0 10 60
    endloop
  endfacet
  facet normal -1 0 0
    outer loop
      vertex 0 0 45
      vertex 0 -10 60
      vertex 0 0 55
    endloop
  endfacet
  facet normal 0 1 -0
    outer loop
      vertex 10 0 45
      vertex 0 0 55
      vertex 10 0 55
    endloop
  endfacet
  facet normal 0 1 0
    outer loop
      vertex 0 0 55
      vertex 10 0 45
      vertex 0 0 45
    endloop
  endfacet
  facet normal 0 1 -0
    outer loop
      vertex 10 0 10
      vertex 0 0 40
      vertex 10 0 40
    endloop
  endfacet
  facet normal 0 1 0
    outer loop
      vertex 0 0 40
      vertex 10 0 10
      vertex 0 0 10
    endloop
  endfacet
  facet normal 0 -1 0
    outer loop
      vertex 0 90 45
      vertex 10 90 55
      vertex 0 90 55
    endloop
  endfacet
  facet normal 0 -1 -0
    outer loop
      vertex 10 90 55
      vertex 0 90 45
      vertex 10 90 45
    endloop
  endfacet
  facet normal 0 -1 0
    outer loop
      vertex 0 90 10
      vertex 10 90 40
      vertex 0 90 40
    endloop
  endfacet
  facet normal 0 -1 -0
    outer loop
      vertex 10 90 40
      vertex 0 90 10
      vertex 10 90 10
    endloop
  endfacet
  facet normal -0 0 1
    outer loop
      vertex 0 90 10
      vertex 10 0 10
      vertex 10 90 10
    endloop
  endfacet
  facet normal 0 0 1
    outer loop
      vertex 10 0 10
      vertex 0 90 10
      vertex 0 0 10
    endloop
  endfacet
  facet normal 0 -0.104527 0.994522
    outer loop
      vertex 0 20.4158 3.0437
      vertex 10 20 3
      vertex 10 20.4158 3.0437
    endloop
  endfacet
  facet normal 0 -0.104527 0.994522
    outer loop
      vertex 10 20 3
      vertex 0 20.4158 3.0437
      vertex 0 20 3
    endloop
  endfacet
  facet normal 0 -0.104529 -0.994522
    outer loop
      vertex 0 20 7
      vertex 10 20.4158 6.9563
      vertex 10 20 7
    endloop
  endfacet
  facet normal -0 -0.104529 -0.994522
    outer loop
      vertex 10 20.4158 6.9563
      vertex 0 20 7
      vertex 0 20.4158 6.9563
    endloop
  endfacet
  facet normal 0 1 -0
    outer loop
      vertex 10 18.011 4.79094
      vertex 0 18.011 5.20906
      vertex 10 18.011 5.20906
    endloop
  endfacet
  facet normal 0 1 0
    outer loop
      vertex 0 18.011 5.20906
      vertex 10 18.011 4.79094
      vertex 0 18.011 4.79094
    endloop
  endfacet
  facet normal 0 -0.669131 -0.743144
    outer loop
      vertex 0 21.1756 6.61803
      vertex 10 21.4863 6.33826
      vertex 10 21.1756 6.61803
    endloop
  endfacet
  facet normal -0 -0.669131 -0.743144
    outer loop
      vertex 10 21.4863 6.33826
      vertex 0 21.1756 6.61803
      vertex 0 21.4863 6.33826
    endloop
  endfacet
  facet normal 0 -0.913545 -0.406738
    outer loop
      vertex 0 21.9021 5.61803
      vertex 10 21.732 6
      vertex 0 21.732 6
    endloop
  endfacet
  facet normal 0 -0.913545 -0.406738
    outer loop
      vertex 10 21.732 6
      vertex 0 21.9021 5.61803
      vertex 10 21.9021 5.61803
    endloop
  endfacet
  facet normal -0 0.309019 0.951056
    outer loop
      vertex 0 19.5842 3.0437
      vertex 10 19.1865 3.17291
      vertex 10 19.5842 3.0437
    endloop
  endfacet
  facet normal 0 0.309019 0.951056
    outer loop
      vertex 10 19.1865 3.17291
      vertex 0 19.5842 3.0437
      vertex 0 19.1865 3.17291
    endloop
  endfacet
  facet normal -0 0.104526 0.994522
    outer loop
      vertex 0 20 3
      vertex 10 19.5842 3.0437
      vertex 10 20 3
    endloop
  endfacet
  facet normal 0 0.104526 0.994522
    outer loop
      vertex 10 19.5842 3.0437
      vertex 0 20 3
      vertex 0 19.5842 3.0437
    endloop
  endfacet
  facet normal -0 0.499998 0.866026
    outer loop
      vertex 0 19.1865 3.17291
      vertex 10 18.8244 3.38197
      vertex 10 19.1865 3.17291
    endloop
  endfacet
  facet normal 0 0.499998 0.866026
    outer loop
      vertex 10 18.8244 3.38197
      vertex 0 19.1865 3.17291
      vertex 0 18.8244 3.38197
    endloop
  endfacet
  facet normal 0 -0.499998 -0.866026
    outer loop
      vertex 0 20.8135 6.82709
      vertex 10 21.1756 6.61803
      vertex 10 20.8135 6.82709
    endloop
  endfacet
  facet normal -0 -0.499998 -0.866026
    outer loop
      vertex 10 21.1756 6.61803
      vertex 0 20.8135 6.82709
      vertex 0 21.1756 6.61803
    endloop
  endfacet
  facet normal 0 -0.309018 -0.951056
    outer loop
      vertex 0 20.4158 6.9563
      vertex 10 20.8135 6.82709
      vertex 10 20.4158 6.9563
    endloop
  endfacet
  facet normal -0 -0.309018 -0.951056
    outer loop
      vertex 10 20.8135 6.82709
      vertex 0 20.4158 6.9563
      vertex 0 20.8135 6.82709
    endloop
  endfacet
  facet normal 0 -0.809018 -0.587784
    outer loop
      vertex 0 21.732 6
      vertex 10 21.4863 6.33826
      vertex 0 21.4863 6.33826
    endloop
  endfacet
  facet normal 0 -0.809018 -0.587784
    outer loop
      vertex 10 21.4863 6.33826
      vertex 0 21.732 6
      vertex 10 21.732 6
    endloop
  endfacet
  facet normal 0 -0.978147 -0.207913
    outer loop
      vertex 0 21.989 5.20906
      vertex 10 21.9021 5.61803
      vertex 0 21.9021 5.61803
    endloop
  endfacet
  facet normal 0 -0.978147 -0.207913
    outer loop
      vertex 10 21.9021 5.61803
      vertex 0 21.989 5.20906
      vertex 10 21.989 5.20906
    endloop
  endfacet
  facet normal 0 0.499998 -0.866026
    outer loop
      vertex 0 18.8244 6.61803
      vertex 10 19.1865 6.82709
      vertex 10 18.8244 6.61803
    endloop
  endfacet
  facet normal 0 0.499998 -0.866026
    outer loop
      vertex 10 19.1865 6.82709
      vertex 0 18.8244 6.61803
      vertex 0 19.1865 6.82709
    endloop
  endfacet
  facet normal 0 0.978148 0.207909
    outer loop
      vertex 10 18.0979 4.38197
      vertex 0 18.011 4.79094
      vertex 10 18.011 4.79094
    endloop
  endfacet
  facet normal 0 0.978148 0.207909
    outer loop
      vertex 0 18.011 4.79094
      vertex 10 18.0979 4.38197
      vertex 0 18.0979 4.38197
    endloop
  endfacet
  facet normal 0 -0.309018 0.951056
    outer loop
      vertex 0 20.8135 3.17291
      vertex 10 20.4158 3.0437
      vertex 10 20.8135 3.17291
    endloop
  endfacet
  facet normal 0 -0.309018 0.951056
    outer loop
      vertex 10 20.4158 3.0437
      vertex 0 20.8135 3.17291
      vertex 0 20.4158 3.0437
    endloop
  endfacet
  facet normal 0 -0.669131 0.743144
    outer loop
      vertex 0 21.4863 3.66174
      vertex 10 21.1756 3.38197
      vertex 10 21.4863 3.66174
    endloop
  endfacet
  facet normal 0 -0.669131 0.743144
    outer loop
      vertex 10 21.1756 3.38197
      vertex 0 21.4863 3.66174
      vertex 0 21.1756 3.38197
    endloop
  endfacet
  facet normal 0 -0.978147 0.207913
    outer loop
      vertex 0 21.9021 4.38197
      vertex 10 21.989 4.79094
      vertex 0 21.989 4.79094
    endloop
  endfacet
  facet normal 0 -0.978147 0.207913
    outer loop
      vertex 10 21.989 4.79094
      vertex 0 21.9021 4.38197
      vertex 10 21.9021 4.38197
    endloop
  endfacet
  facet normal 0 -1 0
    outer loop
      vertex 0 21.989 4.79094
      vertex 10 21.989 5.20906
      vertex 0 21.989 5.20906
    endloop
  endfacet
  facet normal 0 -1 -0
    outer loop
      vertex 10 21.989 5.20906
      vertex 0 21.989 4.79094
      vertex 10 21.989 4.79094
    endloop
  endfacet
  facet normal 0 0.809017 0.587786
    outer loop
      vertex 10 18.5137 3.66174
      vertex 0 18.2679 4
      vertex 10 18.2679 4
    endloop
  endfacet
  facet normal 0 0.809017 0.587786
    outer loop
      vertex 0 18.2679 4
      vertex 10 18.5137 3.66174
      vertex 0 18.5137 3.66174
    endloop
  endfacet
  facet normal 0 0.913545 0.406739
    outer loop
      vertex 10 18.2679 4
      vertex 0 18.0979 4.38197
      vertex 10 18.0979 4.38197
    endloop
  endfacet
  facet normal 0 0.913545 0.406739
    outer loop
      vertex 0 18.0979 4.38197
      vertex 10 18.2679 4
      vertex 0 18.2679 4
    endloop
  endfacet
  facet normal 0 -0.499998 0.866026
    outer loop
      vertex 0 21.1756 3.38197
      vertex 10 20.8135 3.17291
      vertex 10 21.1756 3.38197
    endloop
  endfacet
  facet normal 0 -0.499998 0.866026
    outer loop
      vertex 10 20.8135 3.17291
      vertex 0 21.1756 3.38197
      vertex 0 20.8135 3.17291
    endloop
  endfacet
  facet normal 0 -0.913545 0.406739
    outer loop
      vertex 0 21.732 4
      vertex 10 21.9021 4.38197
      vertex 0 21.9021 4.38197
    endloop
  endfacet
  facet normal 0 -0.913545 0.406739
    outer loop
      vertex 10 21.9021 4.38197
      vertex 0 21.732 4
      vertex 10 21.732 4
    endloop
  endfacet
  facet normal 0 -0.809019 0.587783
    outer loop
      vertex 0 21.4863 3.66174
      vertex 10 21.732 4
      vertex 0 21.732 4
    endloop
  endfacet
  facet normal 0 -0.809019 0.587783
    outer loop
      vertex 10 21.732 4
      vertex 0 21.4863 3.66174
      vertex 10 21.4863 3.66174
    endloop
  endfacet
  facet normal 0 0.978148 -0.207909
    outer loop
      vertex 10 18.011 5.20906
      vertex 0 18.0979 5.61803
      vertex 10 18.0979 5.61803
    endloop
  endfacet
  facet normal 0 0.978148 -0.207909
    outer loop
      vertex 0 18.0979 5.61803
      vertex 10 18.011 5.20906
      vertex 0 18.011 5.20906
    endloop
  endfacet
  facet normal 0 0.669131 -0.743144
    outer loop
      vertex 0 18.5137 6.33826
      vertex 10 18.8244 6.61803
      vertex 10 18.5137 6.33826
    endloop
  endfacet
  facet normal 0 0.669131 -0.743144
    outer loop
      vertex 10 18.8244 6.61803
      vertex 0 18.5137 6.33826
      vertex 0 18.8244 6.61803
    endloop
  endfacet
  facet normal 0 0.309019 -0.951056
    outer loop
      vertex 0 19.1865 6.82709
      vertex 10 19.5842 6.9563
      vertex 10 19.1865 6.82709
    endloop
  endfacet
  facet normal 0 0.309019 -0.951056
    outer loop
      vertex 10 19.5842 6.9563
      vertex 0 19.1865 6.82709
      vertex 0 19.5842 6.9563
    endloop
  endfacet
  facet normal 0 0.104529 -0.994522
    outer loop
      vertex 0 19.5842 6.9563
      vertex 10 20 7
      vertex 10 19.5842 6.9563
    endloop
  endfacet
  facet normal 0 0.104529 -0.994522
    outer loop
      vertex 10 20 7
      vertex 0 19.5842 6.9563
      vertex 0 20 7
    endloop
  endfacet
  facet normal -0 0.669131 0.743144
    outer loop
      vertex 0 18.8244 3.38197
      vertex 10 18.5137 3.66174
      vertex 10 18.8244 3.38197
    endloop
  endfacet
  facet normal 0 0.669131 0.743144
    outer loop
      vertex 10 18.5137 3.66174
      vertex 0 18.8244 3.38197
      vertex 0 18.5137 3.66174
    endloop
  endfacet
  facet normal 0 0.913545 -0.406738
    outer loop
      vertex 10 18.0979 5.61803
      vertex 0 18.2679 6
      vertex 10 18.2679 6
    endloop
  endfacet
  facet normal 0 0.913545 -0.406738
    outer loop
      vertex 0 18.2679 6
      vertex 10 18.0979 5.61803
      vertex 0 18.0979 5.61803
    endloop
  endfacet
  facet normal 0 0.809016 -0.587787
    outer loop
      vertex 10 18.2679 6
      vertex 0 18.5137 6.33826
      vertex 10 18.5137 6.33826
    endloop
  endfacet
  facet normal 0 0.809016 -0.587787
    outer loop
      vertex 0 18.5137 6.33826
      vertex 10 18.2679 6
      vertex 0 18.2679 6
    endloop
  endfacet
  facet normal 0 -0.104526 0.994522
    outer loop
      vertex 0 70.4158 3.0437
      vertex 10 70 3
      vertex 10 70.4158 3.0437
    endloop
  endfacet
  facet normal 0 -0.104526 0.994522
    outer loop
      vertex 10 70 3
      vertex 0 70.4158 3.0437
      vertex 0 70 3
    endloop
  endfacet
  facet normal 0 -0.104529 -0.994522
    outer loop
      vertex 0 70 7
      vertex 10 70.4158 6.9563
      vertex 10 70 7
    endloop
  endfacet
  facet normal -0 -0.104529 -0.994522
    outer loop
      vertex 10 70.4158 6.9563
      vertex 0 70 7
      vertex 0 70.4158 6.9563
    endloop
  endfacet
  facet normal 0 1 -0
    outer loop
      vertex 10 68.011 4.79094
      vertex 0 68.011 5.20906
      vertex 10 68.011 5.20906
    endloop
  endfacet
  facet normal 0 1 0
    outer loop
      vertex 0 68.011 5.20906
      vertex 10 68.011 4.79094
      vertex 0 68.011 4.79094
    endloop
  endfacet
  facet normal 0 -0.669127 -0.743148
    outer loop
      vertex 0 71.1756 6.61803
      vertex 10 71.4863 6.33826
      vertex 10 71.1756 6.61803
    endloop
  endfacet
  facet normal -0 -0.669127 -0.743148
    outer loop
      vertex 10 71.4863 6.33826
      vertex 0 71.1756 6.61803
      vertex 0 71.4863 6.33826
    endloop
  endfacet
  facet normal 0 -0.913542 -0.406745
    outer loop
      vertex 0 71.9021 5.61803
      vertex 10 71.732 6
      vertex 0 71.732 6
    endloop
  endfacet
  facet normal 0 -0.913542 -0.406745
    outer loop
      vertex 10 71.732 6
      vertex 0 71.9021 5.61803
      vertex 10 71.9021 5.61803
    endloop
  endfacet
  facet normal -0 0.309017 0.951057
    outer loop
      vertex 0 69.5842 3.0437
      vertex 10 69.1865 3.17291
      vertex 10 69.5842 3.0437
    endloop
  endfacet
  facet normal 0 0.309017 0.951057
    outer loop
      vertex 10 69.1865 3.17291
      vertex 0 69.5842 3.0437
      vertex 0 69.1865 3.17291
    endloop
  endfacet
  facet normal -0 0.104526 0.994522
    outer loop
      vertex 0 70 3
      vertex 10 69.5842 3.0437
      vertex 10 70 3
    endloop
  endfacet
  facet normal 0 0.104526 0.994522
    outer loop
      vertex 10 69.5842 3.0437
      vertex 0 70 3
      vertex 0 69.5842 3.0437
    endloop
  endfacet
  facet normal -0 0.500006 0.866022
    outer loop
      vertex 0 69.1865 3.17291
      vertex 10 68.8244 3.38197
      vertex 10 69.1865 3.17291
    endloop
  endfacet
  facet normal 0 0.500006 0.866022
    outer loop
      vertex 10 68.8244 3.38197
      vertex 0 69.1865 3.17291
      vertex 0 68.8244 3.38197
    endloop
  endfacet
  facet normal 0 -0.500006 -0.866022
    outer loop
      vertex 0 70.8135 6.82709
      vertex 10 71.1756 6.61803
      vertex 10 70.8135 6.82709
    endloop
  endfacet
  facet normal -0 -0.500006 -0.866022
    outer loop
      vertex 10 71.1756 6.61803
      vertex 0 70.8135 6.82709
      vertex 0 71.1756 6.61803
    endloop
  endfacet
  facet normal 0 -0.309017 -0.951057
    outer loop
      vertex 0 70.4158 6.9563
      vertex 10 70.8135 6.82709
      vertex 10 70.4158 6.9563
    endloop
  endfacet
  facet normal -0 -0.309017 -0.951057
    outer loop
      vertex 10 70.8135 6.82709
      vertex 0 70.4158 6.9563
      vertex 0 70.8135 6.82709
    endloop
  endfacet
  facet normal 0 -0.80902 -0.587781
    outer loop
      vertex 0 71.732 6
      vertex 10 71.4863 6.33826
      vertex 0 71.4863 6.33826
    endloop
  endfacet
  facet normal 0 -0.80902 -0.587781
    outer loop
      vertex 10 71.4863 6.33826
      vertex 0 71.732 6
      vertex 10 71.732 6
    endloop
  endfacet
  facet normal 0 -0.978148 -0.207909
    outer loop
      vertex 0 71.989 5.20906
      vertex 10 71.9021 5.61803
      vertex 0 71.9021 5.61803
    endloop
  endfacet
  facet normal 0 -0.978148 -0.207909
    outer loop
      vertex 10 71.9021 5.61803
      vertex 0 71.989 5.20906
      vertex 10 71.989 5.20906
    endloop
  endfacet
  facet normal 0 0.500006 -0.866022
    outer loop
      vertex 0 68.8244 6.61803
      vertex 10 69.1865 6.82709
      vertex 10 68.8244 6.61803
    endloop
  endfacet
  facet normal 0 0.500006 -0.866022
    outer loop
      vertex 10 69.1865 6.82709
      vertex 0 68.8244 6.61803
      vertex 0 69.1865 6.82709
    endloop
  endfacet
  facet normal 0 0.978148 0.207909
    outer loop
      vertex 10 68.0979 4.38197
      vertex 0 68.011 4.79094
      vertex 10 68.011 4.79094
    endloop
  endfacet
  facet normal 0 0.978148 0.207909
    outer loop
      vertex 0 68.011 4.79094
      vertex 10 68.0979 4.38197
      vertex 0 68.0979 4.38197
    endloop
  endfacet
  facet normal 0 -0.309017 0.951057
    outer loop
      vertex 0 70.8135 3.17291
      vertex 10 70.4158 3.0437
      vertex 10 70.8135 3.17291
    endloop
  endfacet
  facet normal 0 -0.309017 0.951057
    outer loop
      vertex 10 70.4158 3.0437
      vertex 0 70.8135 3.17291
      vertex 0 70.4158 3.0437
    endloop
  endfacet
  facet normal 0 -0.669127 0.743148
    outer loop
      vertex 0 71.4863 3.66174
      vertex 10 71.1756 3.38197
      vertex 10 71.4863 3.66174
    endloop
  endfacet
  facet normal 0 -0.669127 0.743148
    outer loop
      vertex 10 71.1756 3.38197
      vertex 0 71.4863 3.66174
      vertex 0 71.1756 3.38197
    endloop
  endfacet
  facet normal 0 -0.978148 0.207909
    outer loop
      vertex 0 71.9021 4.38197
      vertex 10 71.989 4.79094
      vertex 0 71.989 4.79094
    endloop
  endfacet
  facet normal 0 -0.978148 0.207909
    outer loop
      vertex 10 71.989 4.79094
      vertex 0 71.9021 4.38197
      vertex 10 71.9021 4.38197
    endloop
  endfacet
  facet normal 0 -1 0
    outer loop
      vertex 0 71.989 4.79094
      vertex 10 71.989 5.20906
      vertex 0 71.989 5.20906
    endloop
  endfacet
  facet normal 0 -1 -0
    outer loop
      vertex 10 71.989 5.20906
      vertex 0 71.989 4.79094
      vertex 10 71.989 4.79094
    endloop
  endfacet
  facet normal 0 -0.809021 0.58778
    outer loop
      vertex 0 71.4863 3.66174
      vertex 10 71.732 4
      vertex 0 71.732 4
    endloop
  endfacet
  facet normal 0 -0.809021 0.58778
    outer loop
      vertex 10 71.732 4
      vertex 0 71.4863 3.66174
      vertex 10 71.4863 3.66174
    endloop
  endfacet
  facet normal 0 0.809021 0.58778
    outer loop
      vertex 10 68.5137 3.66174
      vertex 0 68.268 4
      vertex 10 68.268 4
    endloop
  endfacet
  facet normal 0 0.809021 0.58778
    outer loop
      vertex 0 68.268 4
      vertex 10 68.5137 3.66174
      vertex 0 68.5137 3.66174
    endloop
  endfacet
  facet normal 0 0.913541 0.406746
    outer loop
      vertex 10 68.268 4
      vertex 0 68.0979 4.38197
      vertex 10 68.0979 4.38197
    endloop
  endfacet
  facet normal 0 0.913541 0.406746
    outer loop
      vertex 0 68.0979 4.38197
      vertex 10 68.268 4
      vertex 0 68.268 4
    endloop
  endfacet
  facet normal 0 -0.500006 0.866022
    outer loop
      vertex 0 71.1756 3.38197
      vertex 10 70.8135 3.17291
      vertex 10 71.1756 3.38197
    endloop
  endfacet
  facet normal 0 -0.500006 0.866022
    outer loop
      vertex 10 70.8135 3.17291
      vertex 0 71.1756 3.38197
      vertex 0 70.8135 3.17291
    endloop
  endfacet
  facet normal 0 -0.913541 0.406746
    outer loop
      vertex 0 71.732 4
      vertex 10 71.9021 4.38197
      vertex 0 71.9021 4.38197
    endloop
  endfacet
  facet normal 0 -0.913541 0.406746
    outer loop
      vertex 10 71.9021 4.38197
      vertex 0 71.732 4
      vertex 10 71.732 4
    endloop
  endfacet
  facet normal 0 0.978148 -0.207909
    outer loop
      vertex 10 68.011 5.20906
      vertex 0 68.0979 5.61803
      vertex 10 68.0979 5.61803
    endloop
  endfacet
  facet normal 0 0.978148 -0.207909
    outer loop
      vertex 0 68.0979 5.61803
      vertex 10 68.011 5.20906
      vertex 0 68.011 5.20906
    endloop
  endfacet
  facet normal 0 0.669127 -0.743148
    outer loop
      vertex 0 68.5137 6.33826
      vertex 10 68.8244 6.61803
      vertex 10 68.5137 6.33826
    endloop
  endfacet
  facet normal 0 0.669127 -0.743148
    outer loop
      vertex 10 68.8244 6.61803
      vertex 0 68.5137 6.33826
      vertex 0 68.8244 6.61803
    endloop
  endfacet
  facet normal 0 0.309017 -0.951057
    outer loop
      vertex 0 69.1865 6.82709
      vertex 10 69.5842 6.9563
      vertex 10 69.1865 6.82709
    endloop
  endfacet
  facet normal 0 0.309017 -0.951057
    outer loop
      vertex 10 69.5842 6.9563
      vertex 0 69.1865 6.82709
      vertex 0 69.5842 6.9563
    endloop
  endfacet
  facet normal 0 0.104529 -0.994522
    outer loop
      vertex 0 69.5842 6.9563
      vertex 10 70 7
      vertex 10 69.5842 6.9563
    endloop
  endfacet
  facet normal 0 0.104529 -0.994522
    outer loop
      vertex 10 70 7
      vertex 0 69.5842 6.9563
      vertex 0 70 7
    endloop
  endfacet
  facet normal -0 0.669127 0.743148
    outer loop
      vertex 0 68.8244 3.38197
      vertex 10 68.5137 3.66174
      vertex 10 68.8244 3.38197
    endloop
  endfacet
  facet normal 0 0.669127 0.743148
    outer loop
      vertex 10 68.5137 3.66174
      vertex 0 68.8244 3.38197
      vertex 0 68.5137 3.66174
    endloop
  endfacet
  facet normal 0 0.913542 -0.406745
    outer loop
      vertex 10 68.0979 5.61803
      vertex 0 68.268 6
      vertex 10 68.268 6
    endloop
  endfacet
  facet normal 0 0.913542 -0.406745
    outer loop
      vertex 0 68.268 6
      vertex 10 68.0979 5.61803
      vertex 0 68.0979 5.61803
    endloop
  endfacet
  facet normal 0 0.80902 -0.587781
    outer loop
      vertex 10 68.268 6
      vertex 0 68.5137 6.33826
      vertex 10 68.5137 6.33826
    endloop
  endfacet
  facet normal 0 0.80902 -0.587781
    outer loop
      vertex 0 68.5137 6.33826
      vertex 10 68.268 6
      vertex 0 68.268 6
    endloop
  endfacet
  facet normal -0 0 1
    outer loop
      vertex 0 10 60
      vertex 10 -10 60
      vertex 10 10 60
    endloop
  endfacet
  facet normal 0 0 1
    outer loop
      vertex 10 -10 60
      vertex 0 10 60
      vertex 0 -10 60
    endloop
  endfacet
  facet normal 0 -1 0
    outer loop
      vertex 0 -10 0
      vertex 10 -10 60
      vertex 0 -10 60
    endloop
  endfacet
  facet normal 0 -1 -0
    outer loop
      vertex 10 -10 60
      vertex 0 -10 0
      vertex 10 -10 0
    endloop
  endfacet
  facet normal -0 0 1
    outer loop
      vertex 0 100 60
      vertex 10 80 60
      vertex 10 100 60
    endloop
  endfacet
  facet normal 0 0 1
    outer loop
      vertex 10 80 60
      vertex 0 100 60
      vertex 0 80 60
    endloop
  endfacet
  facet normal 0 1 -0
    outer loop
      vertex 10 100 0
      vertex 0 100 60
      vertex 10 100 60
    endloop
  endfacet
  facet normal 0 1 0
    outer loop
      vertex 0 100 60
      vertex 10 100 0
      vertex 0 100 0
    endloop
  endfacet
  facet normal 0 1 -0
    outer loop
      vertex 10 10 55
      vertex 0 10 60
      vertex 10 10 60
    endloop
  endfacet
  facet normal 0 1 0
    outer loop
      vertex 0 10 60
      vertex 10 10 55
      vertex 0 10 55
    endloop
  endfacet
  facet normal 0 0 -1
    outer loop
      vertex 0 0 55
      vertex 10 10 55
      vertex 10 0 55
    endloop
  endfacet
  facet normal -0 0 -1
    outer loop
      vertex 10 10 55
      vertex 0 0 55
      vertex 0 10 55
    endloop
  endfacet
  facet normal -0 0 1
    outer loop
      vertex 0 10 45
      vertex 10 0 45
      vertex 10 10 45
    endloop
  endfacet
  facet normal 0 0 1
    outer loop
      vertex 10 0 45
      vertex 0 10 45
      vertex 0 0 45
    endloop
  endfacet
  facet normal 0 1 -0
    outer loop
      vertex 10 10 40
      vertex 0 10 45
      vertex 10 10 45
    endloop
  endfacet
  facet normal 0 1 0
    outer loop
      vertex 0 10 45
      vertex 10 10 40
      vertex 0 10 40
    endloop
  endfacet
  facet normal 0 0 -1
    outer loop
      vertex 0 0 40
      vertex 10 10 40
      vertex 10 0 40
    endloop
  endfacet
  facet normal -0 0 -1
    outer loop
      vertex 10 10 40
      vertex 0 0 40
      vertex 0 10 40
    endloop
  endfacet
  facet normal 0 0 -1
    outer loop
      vertex 0 80 55
      vertex 10 90 55
      vertex 10 80 55
    endloop
  endfacet
  facet normal -0 0 -1
    outer loop
      vertex 10 90 55
      vertex 0 80 55
      vertex 0 90 55
    endloop
  endfacet
  facet normal 0 -1 0
    outer loop
      vertex 0 80 55
      vertex 10 80 60
      vertex 0 80 60
    endloop
  endfacet
  facet normal 0 -1 -0
    outer loop
      vertex 10 80 60
      vertex 0 80 55
      vertex 10 80 55
    endloop
  endfacet
  facet normal -0 0 1
    outer loop
      vertex 0 90 45
      vertex 10 80 45
      vertex 10 90 45
    endloop
  endfacet
  facet normal 0 0 1
    outer loop
      vertex 10 80 45
      vertex 0 90 45
      vertex 0 80 45
    endloop
  endfacet
  facet normal 0 0 -1
    outer loop
      vertex 0 80 40
      vertex 10 90 40
      vertex 10 80 40
    endloop
  endfacet
  facet normal -0 0 -1
    outer loop
      vertex 10 90 40
      vertex 0 80 40
      vertex 0 90 40
    endloop
  endfacet
  facet normal 0 -1 0
    outer loop
      vertex 0 80 40
      vertex 10 80 45
      vertex 0 80 45
    endloop
  endfacet
  facet normal 0 -1 -0
    outer loop
      vertex 10 80 45
      vertex 0 80 40
      vertex 10 80 40
    endloop
  endfacet
endsolid OpenSCAD_Model
