solid OpenSCAD_Model
  facet normal 0 0 -1
    outer loop
      vertex 0 -10 0
      vertex 10 70 0
      vertex 10 -10 0
    endloop
  endfacet
  facet normal -0 0 -1
    outer loop
      vertex 10 70 0
      vertex 0 -10 0
      vertex 0 70 0
    endloop
  endfacet
  facet normal 1 0 0
    outer loop
      vertex 10 -15 60
      vertex 10 -20 60
      vertex 10 -15 50
    endloop
  endfacet
  facet normal 1 0 0
    outer loop
      vertex 10 -5 50
      vertex 10 0 60
      vertex 10 -5 60
    endloop
  endfacet
  facet normal 1 0 0
    outer loop
      vertex 10 65 60
      vertex 10 60 60
      vertex 10 65 50
    endloop
  endfacet
  facet normal 1 0 0
    outer loop
      vertex 10 75 50
      vertex 10 80 60
      vertex 10 75 60
    endloop
  endfacet
  facet normal 1 0 0
    outer loop
      vertex 10 80 60
      vertex 10 75 50
      vertex 10 80 45
    endloop
  endfacet
  facet normal 1 0 0
    outer loop
      vertex 10 75 50
      vertex 10 70 45
      vertex 10 80 45
    endloop
  endfacet
  facet normal 1 -0 0
    outer loop
      vertex 10 65 50
      vertex 10 70 45
      vertex 10 75 50
    endloop
  endfacet
  facet normal 1 0 0
    outer loop
      vertex 10 60 10
      vertex 10 70 45
      vertex 10 65 50
    endloop
  endfacet
  facet normal 1 0 0
    outer loop
      vertex 10 60 10
      vertex 10 65 50
      vertex 10 60 60
    endloop
  endfacet
  facet normal 1 0 0
    outer loop
      vertex 10 70 45
      vertex 10 60 10
      vertex 10 70 0
    endloop
  endfacet
  facet normal 1 0 0
    outer loop
      vertex 10 56.989 4.79094
      vertex 10 60 10
      vertex 10 56.989 5.20906
    endloop
  endfacet
  facet normal 1 0 0
    outer loop
      vertex 10 60 10
      vertex 10 56.989 4.79094
      vertex 10 70 0
    endloop
  endfacet
  facet normal 1 -0 0
    outer loop
      vertex 10 56.9021 4.38197
      vertex 10 70 0
      vertex 10 56.989 4.79094
    endloop
  endfacet
  facet normal 1 -0 0
    outer loop
      vertex 10 56.732 4
      vertex 10 70 0
      vertex 10 56.9021 4.38197
    endloop
  endfacet
  facet normal 1 -0 0
    outer loop
      vertex 10 56.4863 3.66174
      vertex 10 70 0
      vertex 10 56.732 4
    endloop
  endfacet
  facet normal 1 -0 0
    outer loop
      vertex 10 56.1756 3.38197
      vertex 10 70 0
      vertex 10 56.4863 3.66174
    endloop
  endfacet
  facet normal 1 -0 0
    outer loop
      vertex 10 55.8135 3.17291
      vertex 10 70 0
      vertex 10 56.1756 3.38197
    endloop
  endfacet
  facet normal 1 -0 0
    outer loop
      vertex 10 55.4158 3.0437
      vertex 10 70 0
      vertex 10 55.8135 3.17291
    endloop
  endfacet
  facet normal 1 -0 0
    outer loop
      vertex 10 55 3
      vertex 10 70 0
      vertex 10 55.4158 3.0437
    endloop
  endfacet
  facet normal 1 0 0
    outer loop
      vertex 10 54.5842 3.0437
      vertex 10 70 0
      vertex 10 55 3
    endloop
  endfacet
  facet normal 1 0 0
    outer loop
      vertex 10 6.98904 4.79094
      vertex 10 53.011 4.79094
      vertex 10 6.98904 5.20906
    endloop
  endfacet
  facet normal 1 0 0
    outer loop
      vertex 10 53.011 4.79094
      vertex 10 6.98904 4.79094
      vertex 10 53.0979 4.38197
    endloop
  endfacet
  facet normal 1 0 0
    outer loop
      vertex 10 6.90211 4.38197
      vertex 10 53.0979 4.38197
      vertex 10 6.98904 4.79094
    endloop
  endfacet
  facet normal 1 0 0
    outer loop
      vertex 10 53.0979 4.38197
      vertex 10 6.90211 4.38197
      vertex 10 53.2679 4
    endloop
  endfacet
  facet normal 1 0 0
    outer loop
      vertex 10 6.73205 4
      vertex 10 53.2679 4
      vertex 10 6.90211 4.38197
    endloop
  endfacet
  facet normal 1 0 0
    outer loop
      vertex 10 53.2679 4
      vertex 10 6.73205 4
      vertex 10 53.5137 3.66174
    endloop
  endfacet
  facet normal 1 0 0
    outer loop
      vertex 10 6.48629 3.66174
      vertex 10 53.5137 3.66174
      vertex 10 6.73205 4
    endloop
  endfacet
  facet normal 1 0 0
    outer loop
      vertex 10 53.5137 3.66174
      vertex 10 6.48629 3.66174
      vertex 10 53.8244 3.38197
    endloop
  endfacet
  facet normal 1 0 0
    outer loop
      vertex 10 6.17557 3.38197
      vertex 10 53.8244 3.38197
      vertex 10 6.48629 3.66174
    endloop
  endfacet
  facet normal 1 0 0
    outer loop
      vertex 10 53.8244 3.38197
      vertex 10 6.17557 3.38197
      vertex 10 54.1865 3.17291
    endloop
  endfacet
  facet normal 1 0 0
    outer loop
      vertex 10 5.81347 3.17291
      vertex 10 54.1865 3.17291
      vertex 10 6.17557 3.38197
    endloop
  endfacet
  facet normal 1 0 0
    outer loop
      vertex 10 54.1865 3.17291
      vertex 10 5.81347 3.17291
      vertex 10 54.5842 3.0437
    endloop
  endfacet
  facet normal 1 0 0
    outer loop
      vertex 10 5.41582 3.0437
      vertex 10 54.5842 3.0437
      vertex 10 5.81347 3.17291
    endloop
  endfacet
  facet normal 1 0 0
    outer loop
      vertex 10 54.5842 3.0437
      vertex 10 5.41582 3.0437
      vertex 10 70 0
    endloop
  endfacet
  facet normal 1 0 0
    outer loop
      vertex 10 -10 0
      vertex 10 5.41582 3.0437
      vertex 10 5 3
    endloop
  endfacet
  facet normal 1 0 0
    outer loop
      vertex 10 -10 0
      vertex 10 3.01096 4.79094
      vertex 10 0 10
    endloop
  endfacet
  facet normal 1 0 0
    outer loop
      vertex 10 3.01096 4.79094
      vertex 10 -10 0
      vertex 10 3.09789 4.38197
    endloop
  endfacet
  facet normal 1 0 0
    outer loop
      vertex 10 0 60
      vertex 10 -5 50
      vertex 10 0 10
    endloop
  endfacet
  facet normal 1 -0 0
    outer loop
      vertex 10 -10 45
      vertex 10 0 10
      vertex 10 -5 50
    endloop
  endfacet
  facet normal 1 0 0
    outer loop
      vertex 10 5.41582 3.0437
      vertex 10 -10 0
      vertex 10 70 0
    endloop
  endfacet
  facet normal 1 0 0
    outer loop
      vertex 10 4.58418 3.0437
      vertex 10 -10 0
      vertex 10 5 3
    endloop
  endfacet
  facet normal 1 0 0
    outer loop
      vertex 10 4.18653 3.17291
      vertex 10 -10 0
      vertex 10 4.58418 3.0437
    endloop
  endfacet
  facet normal 1 0 0
    outer loop
      vertex 10 3.82443 3.38197
      vertex 10 -10 0
      vertex 10 4.18653 3.17291
    endloop
  endfacet
  facet normal 1 0 0
    outer loop
      vertex 10 3.51371 3.66174
      vertex 10 -10 0
      vertex 10 3.82443 3.38197
    endloop
  endfacet
  facet normal 1 0 0
    outer loop
      vertex 10 3.26795 4
      vertex 10 -10 0
      vertex 10 3.51371 3.66174
    endloop
  endfacet
  facet normal 1 0 0
    outer loop
      vertex 10 3.09789 4.38197
      vertex 10 -10 0
      vertex 10 3.26795 4
    endloop
  endfacet
  facet normal 1 0 0
    outer loop
      vertex 10 -10 0
      vertex 10 0 10
      vertex 10 -10 45
    endloop
  endfacet
  facet normal 1 -0 0
    outer loop
      vertex 10 -15 50
      vertex 10 -10 45
      vertex 10 -5 50
    endloop
  endfacet
  facet normal 1 0 0
    outer loop
      vertex 10 -15 50
      vertex 10 -20 45
      vertex 10 -10 45
    endloop
  endfacet
  facet normal 1 0 0
    outer loop
      vertex 10 -20 45
      vertex 10 -15 50
      vertex 10 -20 60
    endloop
  endfacet
  facet normal 1 0 0
    outer loop
      vertex 10 60 10
      vertex 10 56.9021 5.61803
      vertex 10 56.989 5.20906
    endloop
  endfacet
  facet normal 1 0 0
    outer loop
      vertex 10 60 10
      vertex 10 56.732 6
      vertex 10 56.9021 5.61803
    endloop
  endfacet
  facet normal 1 0 0
    outer loop
      vertex 10 60 10
      vertex 10 56.4863 6.33826
      vertex 10 56.732 6
    endloop
  endfacet
  facet normal 1 0 0
    outer loop
      vertex 10 60 10
      vertex 10 56.1756 6.61803
      vertex 10 56.4863 6.33826
    endloop
  endfacet
  facet normal 1 0 0
    outer loop
      vertex 10 60 10
      vertex 10 55.8135 6.82709
      vertex 10 56.1756 6.61803
    endloop
  endfacet
  facet normal 1 0 0
    outer loop
      vertex 10 60 10
      vertex 10 55.4158 6.9563
      vertex 10 55.8135 6.82709
    endloop
  endfacet
  facet normal 1 0 0
    outer loop
      vertex 10 60 10
      vertex 10 55 7
      vertex 10 55.4158 6.9563
    endloop
  endfacet
  facet normal 1 0 0
    outer loop
      vertex 10 60 10
      vertex 10 54.5842 6.9563
      vertex 10 55 7
    endloop
  endfacet
  facet normal 1 0 0
    outer loop
      vertex 10 60 10
      vertex 10 54.1865 6.82709
      vertex 10 54.5842 6.9563
    endloop
  endfacet
  facet normal 1 0 0
    outer loop
      vertex 10 53.011 5.20906
      vertex 10 6.98904 5.20906
      vertex 10 53.011 4.79094
    endloop
  endfacet
  facet normal 1 0 0
    outer loop
      vertex 10 53.0979 5.61803
      vertex 10 6.98904 5.20906
      vertex 10 53.011 5.20906
    endloop
  endfacet
  facet normal 1 0 0
    outer loop
      vertex 10 6.90211 5.61803
      vertex 10 53.0979 5.61803
      vertex 10 53.2679 6
    endloop
  endfacet
  facet normal 1 0 0
    outer loop
      vertex 10 6.73205 6
      vertex 10 53.2679 6
      vertex 10 53.5137 6.33826
    endloop
  endfacet
  facet normal 1 0 0
    outer loop
      vertex 10 6.48629 6.33826
      vertex 10 53.5137 6.33826
      vertex 10 53.8244 6.61803
    endloop
  endfacet
  facet normal 1 0 0
    outer loop
      vertex 10 6.17557 6.61803
      vertex 10 53.8244 6.61803
      vertex 10 54.1865 6.82709
    endloop
  endfacet
  facet normal 1 0 0
    outer loop
      vertex 10 5.81347 6.82709
      vertex 10 54.1865 6.82709
      vertex 10 60 10
    endloop
  endfacet
  facet normal 1 0 0
    outer loop
      vertex 10 53.0979 5.61803
      vertex 10 6.90211 5.61803
      vertex 10 6.98904 5.20906
    endloop
  endfacet
  facet normal 1 0 0
    outer loop
      vertex 10 53.2679 6
      vertex 10 6.73205 6
      vertex 10 6.90211 5.61803
    endloop
  endfacet
  facet normal 1 0 0
    outer loop
      vertex 10 53.5137 6.33826
      vertex 10 6.48629 6.33826
      vertex 10 6.73205 6
    endloop
  endfacet
  facet normal 1 0 0
    outer loop
      vertex 10 53.8244 6.61803
      vertex 10 6.17557 6.61803
      vertex 10 6.48629 6.33826
    endloop
  endfacet
  facet normal 1 0 0
    outer loop
      vertex 10 54.1865 6.82709
      vertex 10 5.81347 6.82709
      vertex 10 6.17557 6.61803
    endloop
  endfacet
  facet normal 1 -0 0
    outer loop
      vertex 10 0 10
      vertex 10 5.81347 6.82709
      vertex 10 60 10
    endloop
  endfacet
  facet normal 1 0 0
    outer loop
      vertex 10 5.81347 6.82709
      vertex 10 0 10
      vertex 10 5.41582 6.9563
    endloop
  endfacet
  facet normal 1 0 0
    outer loop
      vertex 10 3.01096 5.20906
      vertex 10 0 10
      vertex 10 3.01096 4.79094
    endloop
  endfacet
  facet normal 1 0 0
    outer loop
      vertex 10 3.09789 5.61803
      vertex 10 0 10
      vertex 10 3.01096 5.20906
    endloop
  endfacet
  facet normal 1 0 0
    outer loop
      vertex 10 3.26795 6
      vertex 10 0 10
      vertex 10 3.09789 5.61803
    endloop
  endfacet
  facet normal 1 0 0
    outer loop
      vertex 10 3.51371 6.33826
      vertex 10 0 10
      vertex 10 3.26795 6
    endloop
  endfacet
  facet normal 1 0 0
    outer loop
      vertex 10 3.82443 6.61803
      vertex 10 0 10
      vertex 10 3.51371 6.33826
    endloop
  endfacet
  facet normal 1 0 0
    outer loop
      vertex 10 4.18653 6.82709
      vertex 10 0 10
      vertex 10 3.82443 6.61803
    endloop
  endfacet
  facet normal 1 0 0
    outer loop
      vertex 10 4.58418 6.9563
      vertex 10 0 10
      vertex 10 4.18653 6.82709
    endloop
  endfacet
  facet normal 1 0 0
    outer loop
      vertex 10 5 7
      vertex 10 0 10
      vertex 10 4.58418 6.9563
    endloop
  endfacet
  facet normal 1 0 0
    outer loop
      vertex 10 5.41582 6.9563
      vertex 10 0 10
      vertex 10 5 7
    endloop
  endfacet
  facet normal -1 0 0
    outer loop
      vertex 0 60 10
      vertex 0 70 45
      vertex 0 70 0
    endloop
  endfacet
  facet normal -1 0 0
    outer loop
      vertex 0 60 60
      vertex 0 65 50
      vertex 0 60 10
    endloop
  endfacet
  facet normal -1 -0 0
    outer loop
      vertex 0 70 45
      vertex 0 60 10
      vertex 0 65 50
    endloop
  endfacet
  facet normal -1 0 0
    outer loop
      vertex 0 70 0
      vertex 0 56.989 4.79094
      vertex 0 60 10
    endloop
  endfacet
  facet normal -1 0 0
    outer loop
      vertex 0 70 0
      vertex 0 56.9021 4.38197
      vertex 0 56.989 4.79094
    endloop
  endfacet
  facet normal -1 0 0
    outer loop
      vertex 0 70 0
      vertex 0 56.732 4
      vertex 0 56.9021 4.38197
    endloop
  endfacet
  facet normal -1 0 0
    outer loop
      vertex 0 70 0
      vertex 0 56.4863 3.66174
      vertex 0 56.732 4
    endloop
  endfacet
  facet normal -1 0 0
    outer loop
      vertex 0 70 0
      vertex 0 56.1756 3.38197
      vertex 0 56.4863 3.66174
    endloop
  endfacet
  facet normal -1 0 0
    outer loop
      vertex 0 70 0
      vertex 0 55.8135 3.17291
      vertex 0 56.1756 3.38197
    endloop
  endfacet
  facet normal -1 0 0
    outer loop
      vertex 0 70 0
      vertex 0 55.4158 3.0437
      vertex 0 55.8135 3.17291
    endloop
  endfacet
  facet normal -1 0 0
    outer loop
      vertex 0 70 0
      vertex 0 55 3
      vertex 0 55.4158 3.0437
    endloop
  endfacet
  facet normal -1 0 0
    outer loop
      vertex 0 70 0
      vertex 0 54.5842 3.0437
      vertex 0 55 3
    endloop
  endfacet
  facet normal -1 0 0
    outer loop
      vertex 0 53.011 4.79094
      vertex 0 6.98904 4.79094
      vertex 0 53.011 5.20906
    endloop
  endfacet
  facet normal -1 0 0
    outer loop
      vertex 0 53.0979 4.38197
      vertex 0 6.98904 4.79094
      vertex 0 53.011 4.79094
    endloop
  endfacet
  facet normal -1 0 0
    outer loop
      vertex 0 6.90211 4.38197
      vertex 0 53.0979 4.38197
      vertex 0 53.2679 4
    endloop
  endfacet
  facet normal -1 0 0
    outer loop
      vertex 0 6.73205 4
      vertex 0 53.2679 4
      vertex 0 53.5137 3.66174
    endloop
  endfacet
  facet normal -1 0 0
    outer loop
      vertex 0 6.48629 3.66174
      vertex 0 53.5137 3.66174
      vertex 0 53.8244 3.38197
    endloop
  endfacet
  facet normal -1 0 0
    outer loop
      vertex 0 6.17557 3.38197
      vertex 0 53.8244 3.38197
      vertex 0 54.1865 3.17291
    endloop
  endfacet
  facet normal -1 0 0
    outer loop
      vertex 0 5.81347 3.17291
      vertex 0 54.1865 3.17291
      vertex 0 54.5842 3.0437
    endloop
  endfacet
  facet normal -1 0 0
    outer loop
      vertex 0 5.41582 3.0437
      vertex 0 54.5842 3.0437
      vertex 0 70 0
    endloop
  endfacet
  facet normal -1 0 0
    outer loop
      vertex 0 53.0979 4.38197
      vertex 0 6.90211 4.38197
      vertex 0 6.98904 4.79094
    endloop
  endfacet
  facet normal -1 0 0
    outer loop
      vertex 0 53.2679 4
      vertex 0 6.73205 4
      vertex 0 6.90211 4.38197
    endloop
  endfacet
  facet normal -1 0 0
    outer loop
      vertex 0 53.5137 3.66174
      vertex 0 6.48629 3.66174
      vertex 0 6.73205 4
    endloop
  endfacet
  facet normal -1 0 0
    outer loop
      vertex 0 53.8244 3.38197
      vertex 0 6.17557 3.38197
      vertex 0 6.48629 3.66174
    endloop
  endfacet
  facet normal -1 0 0
    outer loop
      vertex 0 54.1865 3.17291
      vertex 0 5.81347 3.17291
      vertex 0 6.17557 3.38197
    endloop
  endfacet
  facet normal -1 0 0
    outer loop
      vertex 0 54.5842 3.0437
      vertex 0 5.41582 3.0437
      vertex 0 5.81347 3.17291
    endloop
  endfacet
  facet normal -1 0 0
    outer loop
      vertex 0 -10 0
      vertex 0 5.41582 3.0437
      vertex 0 70 0
    endloop
  endfacet
  facet normal -1 0 0
    outer loop
      vertex 0 3.01096 4.79094
      vertex 0 0 10
      vertex 0 3.01096 5.20906
    endloop
  endfacet
  facet normal -1 0 0
    outer loop
      vertex 0 -10 0
      vertex 0 3.01096 4.79094
      vertex 0 3.09789 4.38197
    endloop
  endfacet
  facet normal -1 0 0
    outer loop
      vertex 0 -10 0
      vertex 0 3.09789 4.38197
      vertex 0 3.26795 4
    endloop
  endfacet
  facet normal -1 0 0
    outer loop
      vertex 0 0 10
      vertex 0 -5 50
      vertex 0 0 60
    endloop
  endfacet
  facet normal -1 0 0
    outer loop
      vertex 0 5.41582 3.0437
      vertex 0 -10 0
      vertex 0 5 3
    endloop
  endfacet
  facet normal -1 0 0
    outer loop
      vertex 0 -10 0
      vertex 0 4.58418 3.0437
      vertex 0 5 3
    endloop
  endfacet
  facet normal -1 0 0
    outer loop
      vertex 0 -10 0
      vertex 0 4.18653 3.17291
      vertex 0 4.58418 3.0437
    endloop
  endfacet
  facet normal -1 0 0
    outer loop
      vertex 0 -10 0
      vertex 0 3.82443 3.38197
      vertex 0 4.18653 3.17291
    endloop
  endfacet
  facet normal -1 0 0
    outer loop
      vertex 0 -10 0
      vertex 0 3.51371 3.66174
      vertex 0 3.82443 3.38197
    endloop
  endfacet
  facet normal -1 0 0
    outer loop
      vertex 0 -10 0
      vertex 0 3.26795 4
      vertex 0 3.51371 3.66174
    endloop
  endfacet
  facet normal -1 -0 0
    outer loop
      vertex 0 3.01096 4.79094
      vertex 0 -10 0
      vertex 0 0 10
    endloop
  endfacet
  facet normal -1 0 0
    outer loop
      vertex 0 -10 45
      vertex 0 0 10
      vertex 0 -10 0
    endloop
  endfacet
  facet normal -1 0 0
    outer loop
      vertex 0 0 10
      vertex 0 -10 45
      vertex 0 -5 50
    endloop
  endfacet
  facet normal -1 0 0
    outer loop
      vertex 0 -10 45
      vertex 0 -15 50
      vertex 0 -5 50
    endloop
  endfacet
  facet normal -1 0 0
    outer loop
      vertex 0 -20 45
      vertex 0 -15 50
      vertex 0 -10 45
    endloop
  endfacet
  facet normal -1 0 0
    outer loop
      vertex 0 -20 60
      vertex 0 -15 50
      vertex 0 -20 45
    endloop
  endfacet
  facet normal -1 0 0
    outer loop
      vertex 0 -15 50
      vertex 0 -20 60
      vertex 0 -15 60
    endloop
  endfacet
  facet normal -1 0 0
    outer loop
      vertex 0 80 45
      vertex 0 75 50
      vertex 0 80 60
    endloop
  endfacet
  facet normal -1 0 0
    outer loop
      vertex 0 70 45
      vertex 0 75 50
      vertex 0 80 45
    endloop
  endfacet
  facet normal -1 -0 0
    outer loop
      vertex 0 75 50
      vertex 0 70 45
      vertex 0 65 50
    endloop
  endfacet
  facet normal -1 -0 0
    outer loop
      vertex 0 80 60
      vertex 0 75 50
      vertex 0 75 60
    endloop
  endfacet
  facet normal -1 0 0
    outer loop
      vertex 0 65 50
      vertex 0 60 60
      vertex 0 65 60
    endloop
  endfacet
  facet normal -1 0 0
    outer loop
      vertex 0 56.989 5.20906
      vertex 0 60 10
      vertex 0 56.989 4.79094
    endloop
  endfacet
  facet normal -1 0 0
    outer loop
      vertex 0 56.9021 5.61803
      vertex 0 60 10
      vertex 0 56.989 5.20906
    endloop
  endfacet
  facet normal -1 0 0
    outer loop
      vertex 0 56.732 6
      vertex 0 60 10
      vertex 0 56.9021 5.61803
    endloop
  endfacet
  facet normal -1 0 0
    outer loop
      vertex 0 56.4863 6.33826
      vertex 0 60 10
      vertex 0 56.732 6
    endloop
  endfacet
  facet normal -1 0 0
    outer loop
      vertex 0 56.1756 6.61803
      vertex 0 60 10
      vertex 0 56.4863 6.33826
    endloop
  endfacet
  facet normal -1 0 0
    outer loop
      vertex 0 55.8135 6.82709
      vertex 0 60 10
      vertex 0 56.1756 6.61803
    endloop
  endfacet
  facet normal -1 0 0
    outer loop
      vertex 0 55.4158 6.9563
      vertex 0 60 10
      vertex 0 55.8135 6.82709
    endloop
  endfacet
  facet normal -1 0 0
    outer loop
      vertex 0 55 7
      vertex 0 60 10
      vertex 0 55.4158 6.9563
    endloop
  endfacet
  facet normal -1 0 0
    outer loop
      vertex 0 54.5842 6.9563
      vertex 0 60 10
      vertex 0 55 7
    endloop
  endfacet
  facet normal -1 0 0
    outer loop
      vertex 0 54.1865 6.82709
      vertex 0 60 10
      vertex 0 54.5842 6.9563
    endloop
  endfacet
  facet normal -1 0 0
    outer loop
      vertex 0 6.98904 5.20906
      vertex 0 53.011 5.20906
      vertex 0 6.98904 4.79094
    endloop
  endfacet
  facet normal -1 0 0
    outer loop
      vertex 0 53.011 5.20906
      vertex 0 6.98904 5.20906
      vertex 0 53.0979 5.61803
    endloop
  endfacet
  facet normal -1 0 0
    outer loop
      vertex 0 6.90211 5.61803
      vertex 0 53.0979 5.61803
      vertex 0 6.98904 5.20906
    endloop
  endfacet
  facet normal -1 0 0
    outer loop
      vertex 0 53.0979 5.61803
      vertex 0 6.90211 5.61803
      vertex 0 53.2679 6
    endloop
  endfacet
  facet normal -1 0 0
    outer loop
      vertex 0 6.73205 6
      vertex 0 53.2679 6
      vertex 0 6.90211 5.61803
    endloop
  endfacet
  facet normal -1 0 0
    outer loop
      vertex 0 53.2679 6
      vertex 0 6.73205 6
      vertex 0 53.5137 6.33826
    endloop
  endfacet
  facet normal -1 0 0
    outer loop
      vertex 0 6.48629 6.33826
      vertex 0 53.5137 6.33826
      vertex 0 6.73205 6
    endloop
  endfacet
  facet normal -1 0 0
    outer loop
      vertex 0 53.5137 6.33826
      vertex 0 6.48629 6.33826
      vertex 0 53.8244 6.61803
    endloop
  endfacet
  facet normal -1 0 0
    outer loop
      vertex 0 6.17557 6.61803
      vertex 0 53.8244 6.61803
      vertex 0 6.48629 6.33826
    endloop
  endfacet
  facet normal -1 0 0
    outer loop
      vertex 0 53.8244 6.61803
      vertex 0 6.17557 6.61803
      vertex 0 54.1865 6.82709
    endloop
  endfacet
  facet normal -1 0 0
    outer loop
      vertex 0 5.81347 6.82709
      vertex 0 54.1865 6.82709
      vertex 0 6.17557 6.61803
    endloop
  endfacet
  facet normal -1 0 0
    outer loop
      vertex 0 54.1865 6.82709
      vertex 0 5.81347 6.82709
      vertex 0 60 10
    endloop
  endfacet
  facet normal -1 0 0
    outer loop
      vertex 0 0 10
      vertex 0 5.81347 6.82709
      vertex 0 5.41582 6.9563
    endloop
  endfacet
  facet normal -1 0 0
    outer loop
      vertex 0 0 10
      vertex 0 5.41582 6.9563
      vertex 0 5 7
    endloop
  endfacet
  facet normal -1 0 0
    outer loop
      vertex 0 5.81347 6.82709
      vertex 0 0 10
      vertex 0 60 10
    endloop
  endfacet
  facet normal -1 0 0
    outer loop
      vertex 0 4.58418 6.9563
      vertex 0 0 10
      vertex 0 5 7
    endloop
  endfacet
  facet normal -1 0 0
    outer loop
      vertex 0 4.18653 6.82709
      vertex 0 0 10
      vertex 0 4.58418 6.9563
    endloop
  endfacet
  facet normal -1 0 0
    outer loop
      vertex 0 3.82443 6.61803
      vertex 0 0 10
      vertex 0 4.18653 6.82709
    endloop
  endfacet
  facet normal -1 0 0
    outer loop
      vertex 0 3.51371 6.33826
      vertex 0 0 10
      vertex 0 3.82443 6.61803
    endloop
  endfacet
  facet normal -1 0 0
    outer loop
      vertex 0 3.26795 6
      vertex 0 0 10
      vertex 0 3.51371 6.33826
    endloop
  endfacet
  facet normal -1 0 0
    outer loop
      vertex 0 3.09789 5.61803
      vertex 0 0 10
      vertex 0 3.26795 6
    endloop
  endfacet
  facet normal -1 0 0
    outer loop
      vertex 0 0 10
      vertex 0 3.09789 5.61803
      vertex 0 3.01096 5.20906
    endloop
  endfacet
  facet normal -1 -0 0
    outer loop
      vertex 0 0 60
      vertex 0 -5 50
      vertex 0 -5 60
    endloop
  endfacet
  facet normal 0 1 -0
    outer loop
      vertex 10 0 10
      vertex 0 0 60
      vertex 10 0 60
    endloop
  endfacet
  facet normal 0 1 0
    outer loop
      vertex 0 0 60
      vertex 10 0 10
      vertex 0 0 10
    endloop
  endfacet
  facet normal 0 -1 0
    outer loop
      vertex 0 60 10
      vertex 10 60 60
      vertex 0 60 60
    endloop
  endfacet
  facet normal 0 -1 -0
    outer loop
      vertex 10 60 60
      vertex 0 60 10
      vertex 10 60 10
    endloop
  endfacet
  facet normal -0 0 1
    outer loop
      vertex 0 60 10
      vertex 10 0 10
      vertex 10 60 10
    endloop
  endfacet
  facet normal 0 0 1
    outer loop
      vertex 10 0 10
      vertex 0 60 10
      vertex 0 0 10
    endloop
  endfacet
  facet normal 0 -0.104527 0.994522
    outer loop
      vertex 0 5.41582 3.0437
      vertex 10 5 3
      vertex 10 5.41582 3.0437
    endloop
  endfacet
  facet normal 0 -0.104527 0.994522
    outer loop
      vertex 10 5 3
      vertex 0 5.41582 3.0437
      vertex 0 5 3
    endloop
  endfacet
  facet normal 0 -0.104529 -0.994522
    outer loop
      vertex 0 5 7
      vertex 10 5.41582 6.9563
      vertex 10 5 7
    endloop
  endfacet
  facet normal -0 -0.104529 -0.994522
    outer loop
      vertex 10 5.41582 6.9563
      vertex 0 5 7
      vertex 0 5.41582 6.9563
    endloop
  endfacet
  facet normal 0 1 -0
    outer loop
      vertex 10 3.01096 4.79094
      vertex 0 3.01096 5.20906
      vertex 10 3.01096 5.20906
    endloop
  endfacet
  facet normal 0 1 0
    outer loop
      vertex 0 3.01096 5.20906
      vertex 10 3.01096 4.79094
      vertex 0 3.01096 4.79094
    endloop
  endfacet
  facet normal 0 -0.669131 -0.743144
    outer loop
      vertex 0 6.17557 6.61803
      vertex 10 6.48629 6.33826
      vertex 10 6.17557 6.61803
    endloop
  endfacet
  facet normal -0 -0.669131 -0.743144
    outer loop
      vertex 10 6.48629 6.33826
      vertex 0 6.17557 6.61803
      vertex 0 6.48629 6.33826
    endloop
  endfacet
  facet normal 0 -0.913545 -0.406738
    outer loop
      vertex 0 6.90211 5.61803
      vertex 10 6.73205 6
      vertex 0 6.73205 6
    endloop
  endfacet
  facet normal 0 -0.913545 -0.406738
    outer loop
      vertex 10 6.73205 6
      vertex 0 6.90211 5.61803
      vertex 10 6.90211 5.61803
    endloop
  endfacet
  facet normal -0 0.309018 0.951056
    outer loop
      vertex 0 4.58418 3.0437
      vertex 10 4.18653 3.17291
      vertex 10 4.58418 3.0437
    endloop
  endfacet
  facet normal 0 0.309018 0.951056
    outer loop
      vertex 10 4.18653 3.17291
      vertex 0 4.58418 3.0437
      vertex 0 4.18653 3.17291
    endloop
  endfacet
  facet normal -0 0.499999 0.866026
    outer loop
      vertex 0 4.18653 3.17291
      vertex 10 3.82443 3.38197
      vertex 10 4.18653 3.17291
    endloop
  endfacet
  facet normal 0 0.499999 0.866026
    outer loop
      vertex 10 3.82443 3.38197
      vertex 0 4.18653 3.17291
      vertex 0 3.82443 3.38197
    endloop
  endfacet
  facet normal 0 -0.499999 -0.866026
    outer loop
      vertex 0 5.81347 6.82709
      vertex 10 6.17557 6.61803
      vertex 10 5.81347 6.82709
    endloop
  endfacet
  facet normal -0 -0.499999 -0.866026
    outer loop
      vertex 10 6.17557 6.61803
      vertex 0 5.81347 6.82709
      vertex 0 6.17557 6.61803
    endloop
  endfacet
  facet normal 0 -0.309018 -0.951056
    outer loop
      vertex 0 5.41582 6.9563
      vertex 10 5.81347 6.82709
      vertex 10 5.41582 6.9563
    endloop
  endfacet
  facet normal -0 -0.309018 -0.951056
    outer loop
      vertex 10 5.81347 6.82709
      vertex 0 5.41582 6.9563
      vertex 0 5.81347 6.82709
    endloop
  endfacet
  facet normal 0 -0.809017 -0.587786
    outer loop
      vertex 0 6.73205 6
      vertex 10 6.48629 6.33826
      vertex 0 6.48629 6.33826
    endloop
  endfacet
  facet normal 0 -0.809017 -0.587786
    outer loop
      vertex 10 6.48629 6.33826
      vertex 0 6.73205 6
      vertex 10 6.73205 6
    endloop
  endfacet
  facet normal 0 -0.978148 -0.207911
    outer loop
      vertex 0 6.98904 5.20906
      vertex 10 6.90211 5.61803
      vertex 0 6.90211 5.61803
    endloop
  endfacet
  facet normal 0 -0.978148 -0.207911
    outer loop
      vertex 10 6.90211 5.61803
      vertex 0 6.98904 5.20906
      vertex 10 6.98904 5.20906
    endloop
  endfacet
  facet normal 0 0.499999 -0.866026
    outer loop
      vertex 0 3.82443 6.61803
      vertex 10 4.18653 6.82709
      vertex 10 3.82443 6.61803
    endloop
  endfacet
  facet normal 0 0.499999 -0.866026
    outer loop
      vertex 10 4.18653 6.82709
      vertex 0 3.82443 6.61803
      vertex 0 4.18653 6.82709
    endloop
  endfacet
  facet normal 0 0.978148 0.207911
    outer loop
      vertex 10 3.09789 4.38197
      vertex 0 3.01096 4.79094
      vertex 10 3.01096 4.79094
    endloop
  endfacet
  facet normal 0 0.978148 0.207911
    outer loop
      vertex 0 3.01096 4.79094
      vertex 10 3.09789 4.38197
      vertex 0 3.09789 4.38197
    endloop
  endfacet
  facet normal 0 -0.309018 0.951056
    outer loop
      vertex 0 5.81347 3.17291
      vertex 10 5.41582 3.0437
      vertex 10 5.81347 3.17291
    endloop
  endfacet
  facet normal 0 -0.309018 0.951056
    outer loop
      vertex 10 5.41582 3.0437
      vertex 0 5.81347 3.17291
      vertex 0 5.41582 3.0437
    endloop
  endfacet
  facet normal 0 -0.669131 0.743144
    outer loop
      vertex 0 6.48629 3.66174
      vertex 10 6.17557 3.38197
      vertex 10 6.48629 3.66174
    endloop
  endfacet
  facet normal 0 -0.669131 0.743144
    outer loop
      vertex 10 6.17557 3.38197
      vertex 0 6.48629 3.66174
      vertex 0 6.17557 3.38197
    endloop
  endfacet
  facet normal 0 -0.978148 0.207911
    outer loop
      vertex 0 6.90211 4.38197
      vertex 10 6.98904 4.79094
      vertex 0 6.98904 4.79094
    endloop
  endfacet
  facet normal 0 -0.978148 0.207911
    outer loop
      vertex 10 6.98904 4.79094
      vertex 0 6.90211 4.38197
      vertex 10 6.90211 4.38197
    endloop
  endfacet
  facet normal 0 -1 0
    outer loop
      vertex 0 6.98904 4.79094
      vertex 10 6.98904 5.20906
      vertex 0 6.98904 5.20906
    endloop
  endfacet
  facet normal 0 -1 -0
    outer loop
      vertex 10 6.98904 5.20906
      vertex 0 6.98904 4.79094
      vertex 10 6.98904 4.79094
    endloop
  endfacet
  facet normal -0 0.104527 0.994522
    outer loop
      vertex 0 5 3
      vertex 10 4.58418 3.0437
      vertex 10 5 3
    endloop
  endfacet
  facet normal 0 0.104527 0.994522
    outer loop
      vertex 10 4.58418 3.0437
      vertex 0 5 3
      vertex 0 4.58418 3.0437
    endloop
  endfacet
  facet normal 0 0.809018 0.587784
    outer loop
      vertex 10 3.51371 3.66174
      vertex 0 3.26795 4
      vertex 10 3.26795 4
    endloop
  endfacet
  facet normal 0 0.809018 0.587784
    outer loop
      vertex 0 3.26795 4
      vertex 10 3.51371 3.66174
      vertex 0 3.51371 3.66174
    endloop
  endfacet
  facet normal 0 0.913545 0.406739
    outer loop
      vertex 10 3.26795 4
      vertex 0 3.09789 4.38197
      vertex 10 3.09789 4.38197
    endloop
  endfacet
  facet normal 0 0.913545 0.406739
    outer loop
      vertex 0 3.09789 4.38197
      vertex 10 3.26795 4
      vertex 0 3.26795 4
    endloop
  endfacet
  facet normal 0 -0.499999 0.866026
    outer loop
      vertex 0 6.17557 3.38197
      vertex 10 5.81347 3.17291
      vertex 10 6.17557 3.38197
    endloop
  endfacet
  facet normal 0 -0.499999 0.866026
    outer loop
      vertex 10 5.81347 3.17291
      vertex 0 6.17557 3.38197
      vertex 0 5.81347 3.17291
    endloop
  endfacet
  facet normal 0 -0.913545 0.406739
    outer loop
      vertex 0 6.73205 4
      vertex 10 6.90211 4.38197
      vertex 0 6.90211 4.38197
    endloop
  endfacet
  facet normal 0 -0.913545 0.406739
    outer loop
      vertex 10 6.90211 4.38197
      vertex 0 6.73205 4
      vertex 10 6.73205 4
    endloop
  endfacet
  facet normal 0 -0.809018 0.587784
    outer loop
      vertex 0 6.48629 3.66174
      vertex 10 6.73205 4
      vertex 0 6.73205 4
    endloop
  endfacet
  facet normal 0 -0.809018 0.587784
    outer loop
      vertex 10 6.73205 4
      vertex 0 6.48629 3.66174
      vertex 10 6.48629 3.66174
    endloop
  endfacet
  facet normal 0 0.978148 -0.207911
    outer loop
      vertex 10 3.01096 5.20906
      vertex 0 3.09789 5.61803
      vertex 10 3.09789 5.61803
    endloop
  endfacet
  facet normal 0 0.978148 -0.207911
    outer loop
      vertex 0 3.09789 5.61803
      vertex 10 3.01096 5.20906
      vertex 0 3.01096 5.20906
    endloop
  endfacet
  facet normal 0 0.669131 -0.743144
    outer loop
      vertex 0 3.51371 6.33826
      vertex 10 3.82443 6.61803
      vertex 10 3.51371 6.33826
    endloop
  endfacet
  facet normal 0 0.669131 -0.743144
    outer loop
      vertex 10 3.82443 6.61803
      vertex 0 3.51371 6.33826
      vertex 0 3.82443 6.61803
    endloop
  endfacet
  facet normal 0 0.309018 -0.951056
    outer loop
      vertex 0 4.18653 6.82709
      vertex 10 4.58418 6.9563
      vertex 10 4.18653 6.82709
    endloop
  endfacet
  facet normal 0 0.309018 -0.951056
    outer loop
      vertex 10 4.58418 6.9563
      vertex 0 4.18653 6.82709
      vertex 0 4.58418 6.9563
    endloop
  endfacet
  facet normal 0 0.104529 -0.994522
    outer loop
      vertex 0 4.58418 6.9563
      vertex 10 5 7
      vertex 10 4.58418 6.9563
    endloop
  endfacet
  facet normal 0 0.104529 -0.994522
    outer loop
      vertex 10 5 7
      vertex 0 4.58418 6.9563
      vertex 0 5 7
    endloop
  endfacet
  facet normal -0 0.669131 0.743144
    outer loop
      vertex 0 3.82443 3.38197
      vertex 10 3.51371 3.66174
      vertex 10 3.82443 3.38197
    endloop
  endfacet
  facet normal 0 0.669131 0.743144
    outer loop
      vertex 10 3.51371 3.66174
      vertex 0 3.82443 3.38197
      vertex 0 3.51371 3.66174
    endloop
  endfacet
  facet normal 0 0.913545 -0.406738
    outer loop
      vertex 10 3.09789 5.61803
      vertex 0 3.26795 6
      vertex 10 3.26795 6
    endloop
  endfacet
  facet normal 0 0.913545 -0.406738
    outer loop
      vertex 0 3.26795 6
      vertex 10 3.09789 5.61803
      vertex 0 3.09789 5.61803
    endloop
  endfacet
  facet normal 0 0.809017 -0.587786
    outer loop
      vertex 10 3.26795 6
      vertex 0 3.51371 6.33826
      vertex 10 3.51371 6.33826
    endloop
  endfacet
  facet normal 0 0.809017 -0.587786
    outer loop
      vertex 0 3.51371 6.33826
      vertex 10 3.26795 6
      vertex 0 3.26795 6
    endloop
  endfacet
  facet normal 0 -0.104526 0.994522
    outer loop
      vertex 0 55.4158 3.0437
      vertex 10 55 3
      vertex 10 55.4158 3.0437
    endloop
  endfacet
  facet normal 0 -0.104526 0.994522
    outer loop
      vertex 10 55 3
      vertex 0 55.4158 3.0437
      vertex 0 55 3
    endloop
  endfacet
  facet normal 0 -0.104529 -0.994522
    outer loop
      vertex 0 55 7
      vertex 10 55.4158 6.9563
      vertex 10 55 7
    endloop
  endfacet
  facet normal -0 -0.104529 -0.994522
    outer loop
      vertex 10 55.4158 6.9563
      vertex 0 55 7
      vertex 0 55.4158 6.9563
    endloop
  endfacet
  facet normal 0 1 -0
    outer loop
      vertex 10 53.011 4.79094
      vertex 0 53.011 5.20906
      vertex 10 53.011 5.20906
    endloop
  endfacet
  facet normal 0 1 0
    outer loop
      vertex 0 53.011 5.20906
      vertex 10 53.011 4.79094
      vertex 0 53.011 4.79094
    endloop
  endfacet
  facet normal 0 -0.669131 -0.743144
    outer loop
      vertex 0 56.1756 6.61803
      vertex 10 56.4863 6.33826
      vertex 10 56.1756 6.61803
    endloop
  endfacet
  facet normal -0 -0.669131 -0.743144
    outer loop
      vertex 10 56.4863 6.33826
      vertex 0 56.1756 6.61803
      vertex 0 56.4863 6.33826
    endloop
  endfacet
  facet normal 0 -0.913542 -0.406745
    outer loop
      vertex 0 56.9021 5.61803
      vertex 10 56.732 6
      vertex 0 56.732 6
    endloop
  endfacet
  facet normal 0 -0.913542 -0.406745
    outer loop
      vertex 10 56.732 6
      vertex 0 56.9021 5.61803
      vertex 10 56.9021 5.61803
    endloop
  endfacet
  facet normal -0 0.309019 0.951056
    outer loop
      vertex 0 54.5842 3.0437
      vertex 10 54.1865 3.17291
      vertex 10 54.5842 3.0437
    endloop
  endfacet
  facet normal 0 0.309019 0.951056
    outer loop
      vertex 10 54.1865 3.17291
      vertex 0 54.5842 3.0437
      vertex 0 54.1865 3.17291
    endloop
  endfacet
  facet normal -0 0.499998 0.866026
    outer loop
      vertex 0 54.1865 3.17291
      vertex 10 53.8244 3.38197
      vertex 10 54.1865 3.17291
    endloop
  endfacet
  facet normal 0 0.499998 0.866026
    outer loop
      vertex 10 53.8244 3.38197
      vertex 0 54.1865 3.17291
      vertex 0 53.8244 3.38197
    endloop
  endfacet
  facet normal 0 -0.499998 -0.866026
    outer loop
      vertex 0 55.8135 6.82709
      vertex 10 56.1756 6.61803
      vertex 10 55.8135 6.82709
    endloop
  endfacet
  facet normal -0 -0.499998 -0.866026
    outer loop
      vertex 10 56.1756 6.61803
      vertex 0 55.8135 6.82709
      vertex 0 56.1756 6.61803
    endloop
  endfacet
  facet normal 0 -0.309019 -0.951056
    outer loop
      vertex 0 55.4158 6.9563
      vertex 10 55.8135 6.82709
      vertex 10 55.4158 6.9563
    endloop
  endfacet
  facet normal -0 -0.309019 -0.951056
    outer loop
      vertex 10 55.8135 6.82709
      vertex 0 55.4158 6.9563
      vertex 0 55.8135 6.82709
    endloop
  endfacet
  facet normal 0 -0.80902 -0.587781
    outer loop
      vertex 0 56.732 6
      vertex 10 56.4863 6.33826
      vertex 0 56.4863 6.33826
    endloop
  endfacet
  facet normal 0 -0.80902 -0.587781
    outer loop
      vertex 10 56.4863 6.33826
      vertex 0 56.732 6
      vertex 10 56.732 6
    endloop
  endfacet
  facet normal 0 -0.978148 -0.207909
    outer loop
      vertex 0 56.989 5.20906
      vertex 10 56.9021 5.61803
      vertex 0 56.9021 5.61803
    endloop
  endfacet
  facet normal 0 -0.978148 -0.207909
    outer loop
      vertex 10 56.9021 5.61803
      vertex 0 56.989 5.20906
      vertex 10 56.989 5.20906
    endloop
  endfacet
  facet normal 0 0.499998 -0.866026
    outer loop
      vertex 0 53.8244 6.61803
      vertex 10 54.1865 6.82709
      vertex 10 53.8244 6.61803
    endloop
  endfacet
  facet normal 0 0.499998 -0.866026
    outer loop
      vertex 10 54.1865 6.82709
      vertex 0 53.8244 6.61803
      vertex 0 54.1865 6.82709
    endloop
  endfacet
  facet normal 0 0.978148 0.207909
    outer loop
      vertex 10 53.0979 4.38197
      vertex 0 53.011 4.79094
      vertex 10 53.011 4.79094
    endloop
  endfacet
  facet normal 0 0.978148 0.207909
    outer loop
      vertex 0 53.011 4.79094
      vertex 10 53.0979 4.38197
      vertex 0 53.0979 4.38197
    endloop
  endfacet
  facet normal 0 -0.309019 0.951056
    outer loop
      vertex 0 55.8135 3.17291
      vertex 10 55.4158 3.0437
      vertex 10 55.8135 3.17291
    endloop
  endfacet
  facet normal 0 -0.309019 0.951056
    outer loop
      vertex 10 55.4158 3.0437
      vertex 0 55.8135 3.17291
      vertex 0 55.4158 3.0437
    endloop
  endfacet
  facet normal 0 -0.669131 0.743144
    outer loop
      vertex 0 56.4863 3.66174
      vertex 10 56.1756 3.38197
      vertex 10 56.4863 3.66174
    endloop
  endfacet
  facet normal 0 -0.669131 0.743144
    outer loop
      vertex 10 56.1756 3.38197
      vertex 0 56.4863 3.66174
      vertex 0 56.1756 3.38197
    endloop
  endfacet
  facet normal 0 -0.978148 0.207909
    outer loop
      vertex 0 56.9021 4.38197
      vertex 10 56.989 4.79094
      vertex 0 56.989 4.79094
    endloop
  endfacet
  facet normal 0 -0.978148 0.207909
    outer loop
      vertex 10 56.989 4.79094
      vertex 0 56.9021 4.38197
      vertex 10 56.9021 4.38197
    endloop
  endfacet
  facet normal 0 -1 0
    outer loop
      vertex 0 56.989 4.79094
      vertex 10 56.989 5.20906
      vertex 0 56.989 5.20906
    endloop
  endfacet
  facet normal 0 -1 -0
    outer loop
      vertex 10 56.989 5.20906
      vertex 0 56.989 4.79094
      vertex 10 56.989 4.79094
    endloop
  endfacet
  facet normal -0 0.104526 0.994522
    outer loop
      vertex 0 55 3
      vertex 10 54.5842 3.0437
      vertex 10 55 3
    endloop
  endfacet
  facet normal 0 0.104526 0.994522
    outer loop
      vertex 10 54.5842 3.0437
      vertex 0 55 3
      vertex 0 54.5842 3.0437
    endloop
  endfacet
  facet normal 0 0.809017 0.587786
    outer loop
      vertex 10 53.5137 3.66174
      vertex 0 53.2679 4
      vertex 10 53.2679 4
    endloop
  endfacet
  facet normal 0 0.809017 0.587786
    outer loop
      vertex 0 53.2679 4
      vertex 10 53.5137 3.66174
      vertex 0 53.5137 3.66174
    endloop
  endfacet
  facet normal 0 0.913545 0.406739
    outer loop
      vertex 10 53.2679 4
      vertex 0 53.0979 4.38197
      vertex 10 53.0979 4.38197
    endloop
  endfacet
  facet normal 0 0.913545 0.406739
    outer loop
      vertex 0 53.0979 4.38197
      vertex 10 53.2679 4
      vertex 0 53.2679 4
    endloop
  endfacet
  facet normal 0 -0.499998 0.866026
    outer loop
      vertex 0 56.1756 3.38197
      vertex 10 55.8135 3.17291
      vertex 10 56.1756 3.38197
    endloop
  endfacet
  facet normal 0 -0.499998 0.866026
    outer loop
      vertex 10 55.8135 3.17291
      vertex 0 56.1756 3.38197
      vertex 0 55.8135 3.17291
    endloop
  endfacet
  facet normal 0 -0.913541 0.406746
    outer loop
      vertex 0 56.732 4
      vertex 10 56.9021 4.38197
      vertex 0 56.9021 4.38197
    endloop
  endfacet
  facet normal 0 -0.913541 0.406746
    outer loop
      vertex 10 56.9021 4.38197
      vertex 0 56.732 4
      vertex 10 56.732 4
    endloop
  endfacet
  facet normal 0 -0.809021 0.58778
    outer loop
      vertex 0 56.4863 3.66174
      vertex 10 56.732 4
      vertex 0 56.732 4
    endloop
  endfacet
  facet normal 0 -0.809021 0.58778
    outer loop
      vertex 10 56.732 4
      vertex 0 56.4863 3.66174
      vertex 10 56.4863 3.66174
    endloop
  endfacet
  facet normal 0 0.978148 -0.207909
    outer loop
      vertex 10 53.011 5.20906
      vertex 0 53.0979 5.61803
      vertex 10 53.0979 5.61803
    endloop
  endfacet
  facet normal 0 0.978148 -0.207909
    outer loop
      vertex 0 53.0979 5.61803
      vertex 10 53.011 5.20906
      vertex 0 53.011 5.20906
    endloop
  endfacet
  facet normal 0 0.669131 -0.743144
    outer loop
      vertex 0 53.5137 6.33826
      vertex 10 53.8244 6.61803
      vertex 10 53.5137 6.33826
    endloop
  endfacet
  facet normal 0 0.669131 -0.743144
    outer loop
      vertex 10 53.8244 6.61803
      vertex 0 53.5137 6.33826
      vertex 0 53.8244 6.61803
    endloop
  endfacet
  facet normal 0 0.309019 -0.951056
    outer loop
      vertex 0 54.1865 6.82709
      vertex 10 54.5842 6.9563
      vertex 10 54.1865 6.82709
    endloop
  endfacet
  facet normal 0 0.309019 -0.951056
    outer loop
      vertex 10 54.5842 6.9563
      vertex 0 54.1865 6.82709
      vertex 0 54.5842 6.9563
    endloop
  endfacet
  facet normal 0 0.104529 -0.994522
    outer loop
      vertex 0 54.5842 6.9563
      vertex 10 55 7
      vertex 10 54.5842 6.9563
    endloop
  endfacet
  facet normal 0 0.104529 -0.994522
    outer loop
      vertex 10 55 7
      vertex 0 54.5842 6.9563
      vertex 0 55 7
    endloop
  endfacet
  facet normal -0 0.669131 0.743144
    outer loop
      vertex 0 53.8244 3.38197
      vertex 10 53.5137 3.66174
      vertex 10 53.8244 3.38197
    endloop
  endfacet
  facet normal 0 0.669131 0.743144
    outer loop
      vertex 10 53.5137 3.66174
      vertex 0 53.8244 3.38197
      vertex 0 53.5137 3.66174
    endloop
  endfacet
  facet normal 0 0.913545 -0.406738
    outer loop
      vertex 10 53.0979 5.61803
      vertex 0 53.2679 6
      vertex 10 53.2679 6
    endloop
  endfacet
  facet normal 0 0.913545 -0.406738
    outer loop
      vertex 0 53.2679 6
      vertex 10 53.0979 5.61803
      vertex 0 53.0979 5.61803
    endloop
  endfacet
  facet normal 0 0.809016 -0.587787
    outer loop
      vertex 10 53.2679 6
      vertex 0 53.5137 6.33826
      vertex 10 53.5137 6.33826
    endloop
  endfacet
  facet normal 0 0.809016 -0.587787
    outer loop
      vertex 0 53.5137 6.33826
      vertex 10 53.2679 6
      vertex 0 53.2679 6
    endloop
  endfacet
  facet normal -0 0 1
    outer loop
      vertex 0 0 60
      vertex 10 -5 60
      vertex 10 0 60
    endloop
  endfacet
  facet normal 0 0 1
    outer loop
      vertex 10 -5 60
      vertex 0 0 60
      vertex 0 -5 60
    endloop
  endfacet
  facet normal 0 -1 0
    outer loop
      vertex 0 -10 0
      vertex 10 -10 45
      vertex 0 -10 45
    endloop
  endfacet
  facet normal 0 -1 -0
    outer loop
      vertex 10 -10 45
      vertex 0 -10 0
      vertex 10 -10 0
    endloop
  endfacet
  facet normal 0 -1 0
    outer loop
      vertex 0 -5 50
      vertex 10 -5 60
      vertex 0 -5 60
    endloop
  endfacet
  facet normal 0 -1 -0
    outer loop
      vertex 10 -5 60
      vertex 0 -5 50
      vertex 10 -5 50
    endloop
  endfacet
  facet normal -0 0 1
    outer loop
      vertex 0 -5 50
      vertex 10 -15 50
      vertex 10 -5 50
    endloop
  endfacet
  facet normal 0 0 1
    outer loop
      vertex 10 -15 50
      vertex 0 -5 50
      vertex 0 -15 50
    endloop
  endfacet
  facet normal -0 0 1
    outer loop
      vertex 0 65 60
      vertex 10 60 60
      vertex 10 65 60
    endloop
  endfacet
  facet normal 0 0 1
    outer loop
      vertex 10 60 60
      vertex 0 65 60
      vertex 0 60 60
    endloop
  endfacet
  facet normal 0 1 -0
    outer loop
      vertex 10 70 0
      vertex 0 70 45
      vertex 10 70 45
    endloop
  endfacet
  facet normal 0 1 0
    outer loop
      vertex 0 70 45
      vertex 10 70 0
      vertex 0 70 0
    endloop
  endfacet
  facet normal -0 0 1
    outer loop
      vertex 0 75 50
      vertex 10 65 50
      vertex 10 75 50
    endloop
  endfacet
  facet normal 0 0 1
    outer loop
      vertex 10 65 50
      vertex 0 75 50
      vertex 0 65 50
    endloop
  endfacet
  facet normal 0 1 -0
    outer loop
      vertex 10 65 50
      vertex 0 65 60
      vertex 10 65 60
    endloop
  endfacet
  facet normal 0 1 0
    outer loop
      vertex 0 65 60
      vertex 10 65 50
      vertex 0 65 50
    endloop
  endfacet
  facet normal -0 0 1
    outer loop
      vertex 0 -15 60
      vertex 10 -20 60
      vertex 10 -15 60
    endloop
  endfacet
  facet normal 0 0 1
    outer loop
      vertex 10 -20 60
      vertex 0 -15 60
      vertex 0 -20 60
    endloop
  endfacet
  facet normal 0 0 -1
    outer loop
      vertex 0 -20 45
      vertex 10 -10 45
      vertex 10 -20 45
    endloop
  endfacet
  facet normal -0 0 -1
    outer loop
      vertex 10 -10 45
      vertex 0 -20 45
      vertex 0 -10 45
    endloop
  endfacet
  facet normal 0 -1 0
    outer loop
      vertex 0 -20 45
      vertex 10 -20 60
      vertex 0 -20 60
    endloop
  endfacet
  facet normal 0 -1 -0
    outer loop
      vertex 10 -20 60
      vertex 0 -20 45
      vertex 10 -20 45
    endloop
  endfacet
  facet normal 0 1 -0
    outer loop
      vertex 10 -15 50
      vertex 0 -15 60
      vertex 10 -15 60
    endloop
  endfacet
  facet normal 0 1 0
    outer loop
      vertex 0 -15 60
      vertex 10 -15 50
      vertex 0 -15 50
    endloop
  endfacet
  facet normal -0 0 1
    outer loop
      vertex 0 80 60
      vertex 10 75 60
      vertex 10 80 60
    endloop
  endfacet
  facet normal 0 0 1
    outer loop
      vertex 10 75 60
      vertex 0 80 60
      vertex 0 75 60
    endloop
  endfacet
  facet normal 0 1 -0
    outer loop
      vertex 10 80 45
      vertex 0 80 60
      vertex 10 80 60
    endloop
  endfacet
  facet normal 0 1 0
    outer loop
      vertex 0 80 60
      vertex 10 80 45
      vertex 0 80 45
    endloop
  endfacet
  facet normal 0 0 -1
    outer loop
      vertex 0 70 45
      vertex 10 80 45
      vertex 10 70 45
    endloop
  endfacet
  facet normal -0 0 -1
    outer loop
      vertex 10 80 45
      vertex 0 70 45
      vertex 0 80 45
    endloop
  endfacet
  facet normal 0 -1 0
    outer loop
      vertex 0 75 50
      vertex 10 75 60
      vertex 0 75 60
    endloop
  endfacet
  facet normal 0 -1 -0
    outer loop
      vertex 10 75 60
      vertex 0 75 50
      vertex 10 75 50
    endloop
  endfacet
endsolid OpenSCAD_Model
